<?xml version="1.0" encoding="UTF-8"?>
<svg id="Layer_2" data-name="Layer 2" xmlns="http://www.w3.org/2000/svg" viewBox="0 0 289.38 102.31">
  <defs>
    <style>
      .cls-1 {
        fill: #dce8ef;
      }

      .cls-2 {
        fill: #f9fbfc;
      }
    </style>
  </defs>
  <g id="OBJECTS">
    <g>
      <path class="cls-1" d="m288.79,57.99c-.84,2.82-2.54,5.28-4.84,7.05.17,3.1-.39,6.24-1.68,9.14-2.38,5.34-6.99,9.36-12.61,10.99-5.61,1.63-11.65.7-16.52-2.53-1.1-.74-2.12-1.57-3.05-2.52-2.34,3.32-5.9,5.71-10.03,6.53-3.96.78-7.97.05-11.33-1.93-3.2,8.34-10.32,14.69-19.17,16.82-8.92,2.16-18.23-.31-24.9-6.38-7.37,3.04-15.67,3.4-23.39.85-6.41-2.11-11.96-6.06-16.02-11.25-2.95,2.17-6.64,3.21-10.39,2.82-3.92-.41-7.45-2.34-9.89-5.26-1.68,3.85-4.75,6.98-8.66,8.73-4.27,1.92-9.12,1.98-13.39.22-3.63,3.97-8.61,6.56-14.08,7.16-5.98.66-11.92-1.1-16.53-4.81-6.54,5.38-15.73,6.66-23.63,2.95-6.29-2.94-10.66-8.53-12.22-14.96-5.15,2.55-11.52,2.04-16.27-1.82-4.05-3.29-5.96-8.24-5.52-13.08-1.59-1.19-2.88-2.8-3.68-4.72-.71-1.7-.99-3.49-.86-5.25,5.7,11.57,18.25,17.89,30.74,15.85,1.72,4.35,5.11,7.88,9.47,9.78,3.68,1.6,7.74,1.9,11.55.92,5.38,5.18,13.32,6.91,20.47,4.27,5.81-2.16,10.13-6.86,11.91-12.54,4.57,2.91,10.08,4.13,15.54,3.32,5.53-.82,10.51-3.63,14.03-7.84,3.11,4.07,8.27,6.21,13.49,5.38,4.03-.64,7.48-2.96,9.61-6.22,6.88,7.9,17.62,11.49,28,9.13,8.7-1.98,15.81-7.83,19.52-15.61,2.99,3.31,7.24,5.37,11.87,5.51,4.9.15,9.51-1.85,12.74-5.32,4.16,4.75,10.49,7.18,16.9,6.26,4.38-.62,8.29-2.74,11.17-5.84,2.28,2.39,5.25,4.05,8.55,4.73,4.64.95,9.45-.15,13.21-3.01,3.77-2.87,6.11-7.22,6.43-11.93.32-4.72-1.41-9.34-4.75-12.69,2.72-1.01,5.7-1.14,8.54-.37,3.62,1,6.68,3.42,8.5,6.7,1.83,3.29,2.25,7.17,1.17,10.77Z"/>
      <path class="cls-2" d="m275.33,53.58c-.32,4.71-2.66,9.06-6.43,11.93-3.76,2.86-8.57,3.96-13.21,3.01-3.3-.68-6.27-2.34-8.55-4.73-2.88,3.1-6.79,5.22-11.17,5.84-6.41.92-12.74-1.51-16.9-6.26-3.23,3.47-7.84,5.47-12.74,5.32-4.63-.14-8.88-2.2-11.87-5.51-3.71,7.78-10.82,13.63-19.52,15.61-10.38,2.36-21.12-1.23-28-9.13-2.13,3.26-5.58,5.58-9.61,6.22-5.22.83-10.38-1.31-13.49-5.38-3.52,4.21-8.5,7.02-14.03,7.84-5.46.81-10.97-.41-15.54-3.32-1.78,5.68-6.1,10.38-11.91,12.54-7.15,2.64-15.09.91-20.47-4.27-3.81.98-7.87.68-11.55-.92-4.36-1.9-7.75-5.43-9.47-9.78-12.49,2.04-25.04-4.28-30.74-15.85-2.92-.08-5.71-1.38-7.65-3.67C-.02,50.13-.69,46.04.75,42.45s4.74-6.08,8.58-6.49c2.1-.22,4.16.2,5.95,1.15,1.81-2.76,4.74-4.67,8.1-5.17,4.1-.61,8.2.99,10.8,4.16,3.74-5.05,9.5-8.38,15.92-9,5.41-.52,10.72.94,15.04,3.95,1.73-3.23,4.83-5.64,8.6-6.4,3.41-.68,6.84.09,9.57,1.96,1.45-2.62,3.69-4.78,6.47-6.13,2.52-1.23,5.29-1.69,7.99-1.41C102.59,7,114.76-.88,128.14.08c12.56.9,22.94,9.38,26.67,20.86,4.04-2.69,9.08-3.68,13.98-2.58,4.64,1.05,8.59,3.86,11.12,7.71,2.15-2.53,4.94-4.5,8.13-5.69,3.36-1.26,6.95-1.57,10.4-.97,4.52-9.05,14.3-14.8,24.93-13.72,10.35,1.05,18.61,8.27,21.44,17.68,6-1.09,12.29.33,17.31,4.1,4.44,3.34,7.4,8.15,8.46,13.42,3.34,3.35,5.07,7.97,4.75,12.69Z"/>
      <path class="cls-1" d="m89.06,69.73c1.22,1.26,2.37,2.03,3.53,2.53,1.15.49,2.27.69,3.4.68,1.12-.02,2.24-.24,3.38-.76,1.14-.52,2.28-1.31,3.48-2.6.43,1.73-.23,3.68-1.54,5.08-1.31,1.41-3.28,2.27-5.27,2.28-1.99.03-3.98-.79-5.32-2.17-1.34-1.37-2.04-3.3-1.65-5.04Z"/>
      <path class="cls-1" d="m240.75,60.31c1.22,1.26,2.37,2.03,3.53,2.53,1.15.49,2.27.69,3.4.68,1.12-.02,2.24-.24,3.38-.76,1.14-.52,2.28-1.31,3.48-2.6.43,1.73-.23,3.68-1.54,5.08-1.31,1.41-3.28,2.27-5.27,2.28-1.99.03-3.98-.79-5.32-2.17-1.34-1.37-2.04-3.3-1.65-5.04Z"/>
      <path class="cls-1" d="m174.03,49.41c2.44,4.06,5.5,7.16,9.04,9.25,3.52,2.09,7.45,3.12,11.38,3.07,3.93-.05,7.83-1.17,11.3-3.33,3.49-2.16,6.48-5.33,8.83-9.44.09,4.77-2.19,9.67-5.92,13.15-3.72,3.51-8.91,5.58-14.15,5.62-5.23.07-10.47-1.89-14.26-5.31-3.81-3.4-6.19-8.24-6.22-13.01Z"/>
      <path class="cls-1" d="m135.93,60.43c1.94,2.28,3.91,3.78,5.96,4.76,2.05.98,4.13,1.4,6.21,1.38,2.08-.04,4.15-.51,6.17-1.53,2.03-1.02,3.96-2.56,5.86-4.88.55,2.98-.67,6.26-2.95,8.6-2.27,2.36-5.63,3.8-9.02,3.81-3.39.05-6.77-1.31-9.1-3.62-2.33-2.29-3.62-5.53-3.14-8.52Z"/>
      <path class="cls-1" d="m54.2,70.34c-1.23,2.1-3.32,3.67-5.68,4.55-2.37.88-5.04,1.06-7.56.51-2.52-.54-4.88-1.81-6.67-3.6-1.78-1.78-3.03-4.08-3.28-6.5,1.74,1.67,3.42,3.01,5.22,4.03,1.78,1.03,3.65,1.74,5.58,2.17,1.93.42,3.92.54,5.97.35,2.06-.19,4.14-.7,6.42-1.51Z"/>
    </g>
  </g>
</svg>