<?xml version="1.0" encoding="UTF-8"?>
<svg id="Layer_2" data-name="Layer 2" xmlns="http://www.w3.org/2000/svg" viewBox="0 0 222.65 222.65">
  <defs>
    <style>
      .cls-1 {
        stroke: #fff;
        stroke-miterlimit: 10;
        stroke-width: 10.41px;
      }

      .cls-1, .cls-2 {
        fill: #ffc400;
      }
    </style>
  </defs>
  <g id="objects">
    <g>
      <polygon class="cls-2" points="218.75 140.9 132.48 119.86 209.5 164.04 130.09 124.31 195.27 184.62 126.76 128.13 176.85 201.45 122.59 131.15 155.2 213.75 117.86 133.19 131.32 220.95 112.87 134.1 106.35 222.65 107.82 133.87 81.75 218.75 102.79 132.48 58.61 209.5 98.34 130.09 38.03 195.27 94.52 126.76 21.2 176.85 91.49 122.59 8.9 155.2 89.46 117.86 1.7 131.32 88.55 112.87 0 106.35 88.78 107.82 3.9 81.75 90.17 102.79 13.15 58.61 92.55 98.34 27.38 38.03 95.89 94.52 45.8 21.2 100.06 91.49 67.45 8.9 104.79 89.46 91.33 1.7 109.77 88.55 116.3 0 114.83 88.78 140.9 3.9 119.86 90.17 164.04 13.15 124.31 92.55 184.62 27.38 128.13 95.89 201.45 45.8 131.15 100.06 213.75 67.45 133.19 104.79 220.95 91.33 134.1 109.77 222.65 116.3 133.87 114.83 218.75 140.9"/>
      <circle class="cls-1" cx="111.32" cy="111.32" r="55.21" transform="translate(-46.11 111.32) rotate(-45)"/>
    </g>
  </g>
</svg>