<?xml version="1.0" encoding="UTF-8"?>
<svg id="Layer_2" data-name="Layer 2" xmlns="http://www.w3.org/2000/svg" viewBox="0 0 204.34 88.55">
  <defs>
    <style>
      .cls-1 {
        fill: #dce8ef;
      }

      .cls-2 {
        fill: #f9fbfc;
      }
    </style>
  </defs>
  <g id="OBJECTS">
    <g>
      <path class="cls-1" d="m204.27,70.1c-.32,2.59-1.74,4.93-3.9,6.4s-4.86,1.93-7.39,1.27c-2.1-.55-3.92-1.84-5.14-3.6-1.04,1.25-2.53,2.11-4.23,2.37-2.54.38-5.02-.66-6.52-2.62-1.91,2.99-5.18,4.99-8.9,5.22-3.95.25-7.64-1.56-9.89-4.6-2.93,3.19-7.05,5.22-11.59,5.47-5.79.32-11.21-2.32-14.55-6.81-1.62,2.22-3.88,3.98-6.58,5-4.68,1.77-9.84.97-13.72-1.91-2.41,5.46-7.14,9.76-13.17,11.47-8,2.28-16.48-.52-21.59-6.84-2.11,1.8-4.68,3.05-7.49,3.59-3.96.76-8.01.02-11.41-2.01-3.31,2.61-7.47,3.99-11.74,3.84-4.11-.14-8.01-1.68-11.08-4.32-3.66,2.17-7.98,3.03-12.25,2.4-3.43-.51-6.61-1.95-9.22-4.12-2.43,1.61-5.55,1.96-8.33.83-3.36-1.37-5.57-4.64-5.58-8.28,0-.32.02-.64.06-.95,1.07,2.23,3.27,3.79,5.85,3.99,1.98.15,3.86-.54,5.26-1.79,2.8,1.77,6.32,2.16,9.51.95,3.44-1.31,5.94-4.28,6.67-7.82,2.76,1.77,6.3,2.12,9.45.75,3.83-1.69,6.18-5.55,5.98-9.66,2.54.28,5.13-.24,7.39-1.49,2.45-1.36,4.37-3.5,5.45-6.05,2.26,6.55,8.72,10.92,15.84,10.34,5.19-.42,9.61-3.38,12.08-7.6,1.8,2.49,4.58,4.21,7.8,4.61,3.43.43,6.75-.71,9.16-2.95,2.87,5.37,8.89,8.48,15.08,7.52,4.18-.65,7.72-3.04,9.92-6.36,2.64,3.36,6.67,5.45,11.07,5.61,3.77.13,7.38-1.18,10.15-3.56,2.66,5.33,7.76,9.11,13.73,10.05,5.25.82,10.53-.64,14.57-3.9,4.34,3.48,10.29,4.04,15.17,1.56,1.25,1.75,3.22,2.93,5.45,3.12,3.25.28,6.31-1.59,7.55-4.61.93,1.65,1.32,3.57,1.08,5.49Z"/>
      <path class="cls-2" d="m203.19,64.61c-1.24,3.02-4.3,4.89-7.55,4.61-2.23-.19-4.2-1.37-5.45-3.12-4.88,2.48-10.83,1.92-15.17-1.56-4.04,3.26-9.32,4.72-14.57,3.9-5.97-.94-11.07-4.72-13.73-10.05-2.77,2.38-6.38,3.69-10.15,3.56-4.4-.16-8.43-2.25-11.07-5.61-2.2,3.32-5.74,5.71-9.92,6.36-6.19.96-12.21-2.15-15.08-7.52-2.41,2.24-5.73,3.38-9.16,2.95-3.22-.4-6-2.12-7.8-4.61-2.47,4.22-6.89,7.18-12.08,7.6-7.12.58-13.58-3.79-15.84-10.34-1.08,2.55-3,4.69-5.45,6.05-2.26,1.25-4.85,1.77-7.39,1.49.2,4.11-2.15,7.97-5.98,9.66-3.15,1.37-6.69,1.02-9.45-.75-.73,3.54-3.23,6.51-6.67,7.82-3.19,1.21-6.71.82-9.51-.95-1.4,1.25-3.28,1.94-5.26,1.79-2.58-.2-4.78-1.76-5.85-3.99.33-3.24,2.42-6.08,5.48-7.35,1.57-.65,3.26-.83,4.87-.56.11-1.15.52-2.29,1.24-3.28,1.83-2.53,5.09-3.44,7.91-2.37,1-1.65,2.39-3.07,4.08-4.11,2.62-1.6,5.71-2.14,8.66-1.57.27-1.99,1.25-3.87,2.84-5.26.93-.81,2.01-1.39,3.14-1.73-.21-7.67,3.54-15.05,10.12-19.37,4.28-2.81,9.26-4.01,14.14-3.61.05-5.06,1.77-10.01,4.97-14.03C71.6,3.51,77.71.37,84.27.03c6.57-.33,12.96,2.17,17.56,6.87,3.08,3.14,5.15,7.07,6.03,11.29,5.4-1.06,11.08-.19,15.99,2.6,4.86,2.76,8.5,7.13,10.36,12.25,3.75-1.71,8.12-1.85,12.1-.21,4.02,1.66,7.02,4.9,8.45,8.8,5.99-3.38,13.14-4.37,19.96-2.59,7.87,2.05,14.31,7.53,17.65,14.82,3.22-1.21,6.97-.34,9.32,2.41,2.03,2.38,2.5,5.58,1.5,8.34Z"/>
      <path class="cls-1" d="m48.24,46.89c1.02,1.32,2.12,2.24,3.3,2.84,1.18.6,2.41.88,3.64.87,1.23-.02,2.45-.32,3.61-.95,1.17-.63,2.24-1.57,3.24-2.91.23,1.67-.49,3.48-1.78,4.77-1.29,1.3-3.15,2.08-5.04,2.09-1.88.03-3.77-.71-5.08-1.98-1.32-1.26-2.07-3.05-1.89-4.72Z"/>
      <path class="cls-1" d="m115.44,49.25c-1.06,2.59-3.13,4.76-5.63,6.23-2.51,1.47-5.49,2.23-8.45,2.15-2.96-.07-5.89-.97-8.33-2.57-2.43-1.59-4.38-3.87-5.31-6.51,2.26,1.62,4.46,2.87,6.75,3.72,2.29.85,4.63,1.3,6.99,1.36,2.36.06,4.72-.27,7.05-1,2.34-.73,4.6-1.87,6.93-3.38Z"/>
      <path class="cls-1" d="m132.01,46.95c2.54,3.13,5.27,5.51,8.29,7.16,2.99,1.68,6.22,2.58,9.48,2.81,3.26.19,6.58-.29,9.77-1.54,3.2-1.25,6.23-3.24,9.16-6-.73,4-3.34,7.68-6.88,10.13-3.54,2.47-8.04,3.69-12.44,3.39-4.4-.3-8.7-2.08-11.88-5.02-3.19-2.89-5.29-6.89-5.5-10.94Z"/>
    </g>
  </g>
</svg>