<?xml version="1.0" encoding="UTF-8"?>
<svg id="Layer_2" data-name="Layer 2" xmlns="http://www.w3.org/2000/svg" viewBox="0 0 98.21 50.15">
  <defs>
    <style>
      .cls-1 {
        fill: #dce8ef;
      }

      .cls-2 {
        fill: #f9fbfc;
      }
    </style>
  </defs>
  <g id="OBJECTS">
    <g>
      <path class="cls-1" d="m98.21,28.98c-.02,2.4-.99,4.7-2.71,6.38-1.09,1.06-2.41,1.82-3.84,2.22-1.75,5.73-6.72,10.05-12.85,10.81-5.64.7-11.06-1.75-14.3-6.14-2.74,2.5-6.63,3.41-10.23,2.3-2.85,3.63-7.32,5.77-12.08,5.59-5.1-.18-9.65-3-12.13-7.3-2.91,1.69-6.43,2.03-9.64.88-2.92-1.04-5.25-3.19-6.54-5.94-1.98.55-4.15.31-6.02-.78-2.46-1.44-3.9-4.07-3.88-6.82.75,2.56,2.83,4.52,5.44,5.1,2.28.52,4.64-.09,6.39-1.59,2.32,3.62,6.6,5.55,10.91,4.83,3.93-.66,7.11-3.39,8.42-7.05,2.68,5.21,8.82,7.86,14.56,5.99,4.51-1.47,7.58-5.33,8.25-9.72,1.36,2.14,3.38,3.83,5.8,4.79,3.24,1.28,6.83,1.12,9.9-.38,1.65,2.75,4.93,4.16,8.12,3.36,2.52-.63,4.44-2.52,5.2-4.86,2.29,1.4,5.27,1.33,7.52-.34,1.78-1.32,2.74-3.37,2.73-5.45.64,1.27.99,2.68.98,4.12Z"/>
      <path class="cls-2" d="m97.23,24.86c.01,2.08-.95,4.13-2.73,5.45-2.25,1.67-5.23,1.74-7.52.34-.76,2.34-2.68,4.23-5.2,4.86-3.19.8-6.47-.61-8.12-3.36-3.07,1.5-6.66,1.66-9.9.38-2.42-.96-4.44-2.65-5.8-4.79-.67,4.39-3.74,8.25-8.25,9.72-5.74,1.87-11.88-.78-14.56-5.99-1.31,3.66-4.49,6.39-8.42,7.05-4.31.72-8.59-1.21-10.91-4.83-1.75,1.5-4.11,2.11-6.39,1.59-2.61-.58-4.69-2.54-5.44-5.1-.81-.37-1.54-.91-2.16-1.58-1.69-1.83-2.26-4.43-1.5-6.79.76-2.37,2.73-4.15,5.16-4.67,1.67-.35,3.37-.07,4.81.74.34-2.21,1.55-4.27,3.45-5.65,2.58-1.88,5.93-2.15,8.72-.85,1.01-1.43,2.43-2.58,4.12-3.27,2.89-1.18,6.16-.85,8.74.85C38.23,3.59,43.86.07,50.17,0c6.26-.07,11.93,3.26,14.98,8.49,2.04-1.43,4.63-2,7.16-1.5,2.62.53,4.84,2.13,6.16,4.35,3.34-1.27,7.19-.58,9.88,1.95,1.96,1.84,3,4.36,3.01,6.92,1.58.38,3.03,1.19,4.2,2.36.68.68,1.24,1.45,1.67,2.29Z"/>
      <path class="cls-1" d="m66.93,27.86c1.02,1.32,2.12,2.24,3.3,2.84,1.18.6,2.41.88,3.64.87,1.23-.02,2.45-.32,3.61-.95,1.17-.63,2.24-1.57,3.24-2.91.23,1.67-.49,3.48-1.78,4.77-1.29,1.3-3.15,2.08-5.04,2.09-1.88.03-3.77-.71-5.08-1.98-1.32-1.26-2.07-3.05-1.89-4.72Z"/>
      <path class="cls-1" d="m48.62,27.96c-.81,2.29-2.57,4.23-4.73,5.54-2.16,1.31-4.75,1.99-7.33,1.92-2.58-.06-5.13-.87-7.23-2.28-2.09-1.42-3.74-3.44-4.44-5.77,2.03,1.32,3.93,2.31,5.88,2.98,1.95.67,3.91,1.03,5.88,1.08,1.97.05,3.95-.2,5.93-.78,1.99-.57,3.94-1.47,6.02-2.68Z"/>
    </g>
  </g>
</svg>