<?xml version="1.0" encoding="UTF-8"?>
<svg id="Layer_2" data-name="Layer 2" xmlns="http://www.w3.org/2000/svg" viewBox="0 0 153.55 102.79">
  <defs>
    <style>
      .cls-1 {
        fill: #dce8ef;
      }

      .cls-2 {
        fill: #f9fbfc;
      }
    </style>
  </defs>
  <g id="OBJECTS">
    <g>
      <path class="cls-1" d="m150.84,74.28c-2.8,4.25-7.42,6.96-12.49,7.34-2.92.21-5.81-.36-8.37-1.61-.82,1.36-1.84,2.63-3.06,3.75-3.92,3.6-9.12,5.03-14.06,4.26-.18.79-.42,1.57-.71,2.34-1.94,5.14-6,9.21-11.14,11.17s-10.88,1.62-15.75-.93c-4.19-2.2-7.41-5.85-9.06-10.24-14.03,2.53-28.4-4.43-34.93-17.52-5.1,2.77-11.12,3.64-16.95,2.28-7.52-1.77-13.67-6.99-16.65-13.97-1.43-.29-2.8-.92-3.98-1.84C1.4,57.52.05,54.8,0,51.9s1.21-5.67,3.43-7.54c1.76-1.47,3.98-2.26,6.24-2.25-2.75,2.99-2.79,7.57-.09,10.6.83.93,1.83,1.62,2.92,2.05.75,6.38,5.12,11.86,11.34,13.93,5.92,1.96,12.33.45,16.74-3.71,3.36,3.52,7.85,5.82,12.74,6.48,4.43.6,8.9-.18,12.83-2.19.55,4.82,3.82,8.99,8.52,10.6,4.45,1.53,9.31.46,12.7-2.63,4.61,3.49,10.66,4.64,16.32,2.96,5.27-1.56,9.48-5.37,11.61-10.28,4.04,2.41,9,2.88,13.47,1.18,2.66-1,4.94-2.7,6.65-4.84,3.81,1.36,8.08.18,10.66-2.97,2.67-3.26,2.91-7.86.61-11.38,2.75,1.96,4.85,4.74,5.97,8.01,1.66,4.81.98,10.12-1.82,14.36Z"/>
      <path class="cls-2" d="m146.08,63.29c-2.58,3.15-6.85,4.33-10.66,2.97-1.71,2.14-3.99,3.84-6.65,4.84-4.47,1.7-9.43,1.23-13.47-1.18-2.13,4.91-6.34,8.72-11.61,10.28-5.66,1.68-11.71.53-16.32-2.96-3.39,3.09-8.25,4.16-12.7,2.63-4.7-1.61-7.97-5.78-8.52-10.6-3.93,2.01-8.4,2.79-12.83,2.19-4.89-.66-9.38-2.96-12.74-6.48-4.41,4.16-10.82,5.67-16.74,3.71-6.22-2.07-10.59-7.55-11.34-13.93-1.09-.43-2.09-1.12-2.92-2.05-2.7-3.03-2.66-7.61.09-10.6,1.76-4.12,5.36-7.29,9.85-8.43,2.78-.7,5.64-.56,8.24.32,3.16-6.7,9.2-11.73,16.58-13.56,3.52-.87,7.1-.95,10.54-.3C59.29,7.78,71.31-.54,84.77.03c11.65.48,21.67,7.51,26.34,17.63,4.06-.66,8.27.07,11.92,2.17,3.76,2.16,6.57,5.56,8.02,9.55,6.19-.19,12.1,3.17,15.03,8.86,2.25,4.36,2.37,9.35.61,13.67,2.3,3.52,2.06,8.12-.61,11.38Z"/>
      <path class="cls-1" d="m127.92,60.91c1.22,1.26,2.37,2.03,3.53,2.53,1.15.49,2.27.69,3.4.68,1.12-.02,2.24-.24,3.38-.76,1.14-.52,2.28-1.31,3.48-2.6.43,1.73-.23,3.68-1.54,5.08-1.31,1.41-3.28,2.27-5.27,2.28-1.99.03-3.98-.79-5.32-2.17-1.34-1.37-2.04-3.3-1.65-5.04Z"/>
      <path class="cls-1" d="m54.05,59.26c-.81,2.29-2.57,4.23-4.73,5.54-2.16,1.31-4.75,1.99-7.33,1.92-2.58-.06-5.13-.87-7.23-2.28-2.09-1.42-3.74-3.44-4.44-5.77,2.03,1.32,3.93,2.31,5.88,2.98,1.95.67,3.91,1.03,5.88,1.08,1.97.05,3.95-.2,5.93-.78,1.99-.57,3.94-1.47,6.02-2.68Z"/>
      <path class="cls-1" d="m75.21,68.42c1.88,3.12,4.28,5.18,6.89,6.27,2.6,1.1,5.35,1.27,7.86.58,2.52-.68,4.82-2.19,6.5-4.45,1.7-2.26,2.76-5.24,2.82-8.88,2.36,2.83,2.89,7.27,1.35,11.08-.73,1.92-2,3.66-3.56,5.07-1.59,1.39-3.5,2.43-5.56,2.98-4.11,1.15-8.71.18-11.92-2.39-3.24-2.52-5-6.63-4.39-10.26Z"/>
    </g>
  </g>
</svg>