<?xml version="1.0" encoding="UTF-8"?>
<svg id="Layer_2" data-name="Layer 2" xmlns="http://www.w3.org/2000/svg" viewBox="0 0 746.88 638.83">
  <defs>
    <style>
      .cls-1 {
        fill: #785c39;
        stroke: #785c39;
      }

      .cls-1, .cls-2, .cls-3, .cls-4, .cls-5, .cls-6, .cls-7, .cls-8, .cls-9, .cls-10, .cls-11, .cls-12, .cls-13, .cls-14, .cls-15, .cls-16, .cls-17, .cls-18, .cls-19, .cls-20, .cls-21, .cls-22, .cls-23, .cls-24, .cls-25, .cls-26, .cls-27, .cls-28, .cls-29, .cls-30, .cls-31, .cls-32, .cls-33, .cls-34, .cls-35, .cls-36, .cls-37, .cls-38, .cls-39, .cls-40, .cls-41, .cls-42, .cls-43, .cls-44, .cls-45, .cls-46, .cls-47, .cls-48, .cls-49, .cls-50, .cls-51, .cls-52, .cls-53, .cls-54, .cls-55 {
        stroke-width: .3px;
      }

      .cls-2 {
        fill: #c8c8c8;
        stroke: #c8c8c8;
      }

      .cls-3 {
        fill: #775c3b;
        stroke: #775c3b;
      }

      .cls-4 {
        fill: #3e3f39;
        stroke: #3e3f39;
      }

      .cls-5 {
        fill: #725d40;
        stroke: #725d40;
      }

      .cls-6 {
        fill: #533e2c;
        stroke: #533e2c;
      }

      .cls-7 {
        fill: #473b2e;
        stroke: #473b2e;
      }

      .cls-8 {
        fill: #604424;
        stroke: #604424;
      }

      .cls-9 {
        fill: #11100e;
        stroke: #11100e;
      }

      .cls-10 {
        fill: #3e3b36;
        stroke: #3e3b36;
      }

      .cls-11 {
        fill: #1e0e05;
        stroke: #1e0e05;
      }

      .cls-12 {
        fill: #795c38;
        stroke: #795c38;
      }

      .cls-13 {
        fill: #cfcbc6;
        stroke: #cfcbc6;
      }

      .cls-14 {
        fill: #d8d1c6;
        stroke: #d8d1c6;
      }

      .cls-15 {
        fill: #b6b0a4;
        stroke: #b6b0a4;
      }

      .cls-16 {
        fill: #3d3a36;
        stroke: #3d3a36;
      }

      .cls-17 {
        fill: #6f4f25;
        stroke: #6f4f25;
      }

      .cls-18 {
        fill: #89817a;
        stroke: #89817a;
      }

      .cls-19 {
        fill: #191b1a;
        stroke: #191b1a;
      }

      .cls-20 {
        fill: #1a0a02;
        stroke: #1a0a02;
      }

      .cls-21 {
        fill: #b7b1a0;
        stroke: #b7b1a0;
      }

      .cls-22 {
        fill: #291809;
        stroke: #291809;
      }

      .cls-23 {
        fill: #1d0c04;
        stroke: #1d0c04;
      }

      .cls-24 {
        fill: #877c6a;
        stroke: #877c6a;
      }

      .cls-25 {
        fill: #b7b1a1;
        stroke: #b7b1a1;
      }

      .cls-26 {
        fill: #5f4428;
        stroke: #5f4428;
      }

      .cls-27 {
        fill: #5f4427;
        stroke: #5f4427;
      }

      .cls-28 {
        fill: #5f4426;
        stroke: #5f4426;
      }

      .cls-29 {
        fill: #b8b0a0;
        stroke: #b8b0a0;
      }

      .cls-30 {
        fill: #745d3e;
        stroke: #745d3e;
      }

      .cls-31 {
        fill: #5f4425;
        stroke: #5f4425;
      }

      .cls-32 {
        fill: #b8b0a1;
        stroke: #b8b0a1;
      }

      .cls-33 {
        fill: #533d26;
        stroke: #533d26;
      }

      .cls-34 {
        fill: #3c3b36;
        stroke: #3c3b36;
      }

      .cls-35 {
        fill: #b8b1a1;
        stroke: #b8b1a1;
      }

      .cls-36 {
        fill: #765d38;
        stroke: #765d38;
      }

      .cls-37 {
        fill: #877b6a;
        stroke: #877b6a;
      }

      .cls-38 {
        fill: #d2d2d2;
        stroke: #d2d2d2;
      }

      .cls-39 {
        fill: #563d25;
        stroke: #563d25;
      }

      .cls-40 {
        fill: #ded4cb;
        stroke: #ded4cb;
      }

      .cls-41 {
        fill: #5e4426;
        stroke: #5e4426;
      }

      .cls-42 {
        fill: #6b4445;
        stroke: #6b4445;
      }

      .cls-43 {
        fill: #4b3722;
        stroke: #4b3722;
      }

      .cls-44 {
        fill: #ded5c4;
        stroke: #ded5c4;
      }

      .cls-45 {
        fill: #3c3b39;
        stroke: #3c3b39;
      }

      .cls-46 {
        fill: #877b69;
        stroke: #877b69;
      }

      .cls-47 {
        fill: #877c69;
        stroke: #877c69;
      }

      .cls-48 {
        fill: #0f0b07;
        stroke: #0f0b07;
      }

      .cls-49 {
        fill: #573d24;
        stroke: #573d24;
      }

      .cls-50 {
        fill: #604425;
        stroke: #604425;
      }

      .cls-51 {
        fill: #b9ac9f;
        stroke: #b9ac9f;
      }

      .cls-52 {
        fill: #fefefd;
        stroke: #fefefd;
      }

      .cls-53 {
        fill: #584b3f;
        stroke: #584b3f;
      }

      .cls-54 {
        fill: #98702b;
        stroke: #98702b;
      }

      .cls-55 {
        fill: #795d38;
        stroke: #795d38;
      }
    </style>
  </defs>
  <g id="Logo_ship" data-name="Logo ship">
    <g>
      <path class="cls-28" d="m419.26.15c2.43.07,4.86.22,7.3.41-.16,2.98-.31,5.96-.74,8.92-.87,8.52-1.57,17.07-2.09,25.61,0,8.95-1.33,17.85-1.68,26.8-2.61-.05-5.2-.06-7.79-.1,1.61-20.55,3.38-41.09,5-61.64Z"/>
      <path class="cls-10" d="m423.73,35.09c.52-8.54,1.22-17.09,2.09-25.61,7.17,4.08,13.46,9.75,21.31,12.62,4.69,2.03,9.84,2.23,14.87,2.66,9.37,1.34,18.61,4.56,26.37,10.06,5.03,3.58,9.4,8.94,9.44,15.41-3.75-3.1-7.59-6.87-12.84-6.71-8.71.04-17.09,3.2-25.82,3.21-12.8.7-25.09-4.45-35.42-11.64Z"/>
      <path class="cls-35" d="m365.98,63.21c16.01-1.92,32.18-1.62,48.28-1.42,2.59.04,5.18.05,7.79.1,7.68.55,15.41.3,23.08,1.12-5.58,7.43-11.11,15.05-14.53,23.76-4.36,10.36-5.96,22.61-1.24,33.13,1.83,4.55,5.1,8.24,7.94,12.17-3.65.27-7.29.29-10.92.47-.91.03-1.78.09-2.64.15-2.28-.15-4.54-.37-6.79-.54-.11,1.83-.36,3.75.52,5.46-.34.24-1.02.74-1.35.99.05-2.13.15-4.25.26-6.37-2.63-.14-5.25-.26-7.86-.38-16.87-.86-33.66-3.25-50.08-7.23-.55-.99-1.07-1.97-1.59-2.94,4.84-3.21,9.71-6.35,14.53-9.58,1.99,1.23,3.93,2.57,5.82,3.97-.3-2.36-.62-4.7-1.03-7.03,17.99-11.98,36.09-23.8,54.15-35.67,4.02-2.96,8.79-5,12.18-8.76-4.27,1.28-7.62,4.33-11.34,6.63-18.6,12.13-37.05,24.52-55.75,36.51-4.23-8.55-11.98-15.22-21.05-18.17.92-3.84,1.66-7.74,2.93-11.49.68-2.18,1.64-4.37,1.34-6.71.56-.59,1.13-1.19,1.69-1.8.22-.45.66-1.36.88-1.81,1.14-1.83,2.29-4.47,4.78-4.56Z"/>
      <path class="cls-7" d="m431.16,71.24c3.72-2.3,7.07-5.35,11.34-6.63-3.39,3.76-8.16,5.8-12.18,8.76-18.06,11.87-36.16,23.69-54.15,35.67.41,2.33.73,4.67,1.03,7.03-1.89-1.4-3.83-2.74-5.82-3.97-4.82,3.23-9.69,6.37-14.53,9.58-14.64,9.7-29.4,19.24-44,29.02-10.13,6.55-20.24,13.13-30.23,19.89-10.77,6.88-21.35,14.03-32.07,20.96-18.78,12.42-37.57,24.82-56.44,37.08-27.98,18.61-56.16,36.91-84.16,55.47l-.28-.54c.04-.3.12-.91.15-1.21,28.99-18.68,57.68-37.82,86.51-56.75,16.78-11.02,33.63-21.94,50.3-33.14,11.12-7.05,21.99-14.47,33.05-21.61,11.63-7.65,23.23-15.35,34.89-22.96,14.04-9.25,28.07-18.48,42.13-27.7,4.31-2.87,8.7-5.63,12.86-8.73,1.95-1.23,3.89-2.48,5.85-3.71,18.7-11.99,37.15-24.38,55.75-36.51Z"/>
      <path class="cls-10" d="m332.71,90.89c9.51-7.68,18.82-15.63,28.49-23.12-.22.45-.66,1.36-.88,1.81-.56.61-1.13,1.21-1.69,1.8-7.56,6.34-15.32,12.45-22.87,18.8,5.99-1.9,12.53-2.73,18.6-.6,9.07,2.95,16.82,9.62,21.05,18.17-1.96,1.23-3.9,2.48-5.85,3.71-4.95-.28-9.8.74-14.39,2.48-7.85,2.85-15.78,5.88-24.21,6.31-4.65.22-9.17-.98-13.41-2.74-2.86-1.68-5.59-3.57-7.91-5.94-.36-.36-.69-.72-1-1.07-1.55-1.78-3.06-3.58-4.52-5.41-3.07-3.51-3-8.45-2.53-12.8.59-4.61.61-9.29,1.68-13.83.8-.11,2.39-.33,3.19-.44-.04.68-.11,2.05-.14,2.73,5.23,5.56,11.85,10.7,19.75,11.24,2.2-.06,4.84.55,6.64-1.1Z"/>
      <path class="cls-41" d="m296.42,73.2c3.36.59,6.7,1.33,10.08,1.88,0,.74-.03,2.2-.04,2.94-.8.11-2.39.33-3.19.44-1.07,4.54-1.09,9.22-1.68,13.83-.47,4.35-.54,9.29,2.53,12.8-.22,3.05-.45,6.1-.63,9.17,1.87-1.03,3.56-2.34,5.15-3.76.31.35.64.71,1,1.07-1.8,1.4-3.57,2.82-5.29,4.3-3.85-.25-7.69-.6-11.51-1.03,1.24-13.88,2.35-27.76,3.58-41.64Z"/>
      <path class="cls-21" d="m355.17,113.94c4.59-1.74,9.44-2.76,14.39-2.48-4.16,3.1-8.55,5.86-12.86,8.73-.52-2.09-1.02-4.17-1.53-6.25Z"/>
      <path class="cls-35" d="m267.08,116.09c8.47-1.69,17.17-1.38,25.76-1.25,3.82.43,7.66.78,11.51,1.03,4.39.53,8.76,1.34,13.2,1.64,4.24,1.76,8.76,2.96,13.41,2.74-5.06,4.33-8.73,10.04-12.07,15.73-1.9,3.76-4.29,7.57-4.32,11.91-11.66,7.61-23.26,15.31-34.89,22.96-5.94-1.93-12.48-2.64-18.55-.92-1.81.38-4.03,1.18-5.51-.37-3.05-2.66-3.23-6.96-4.18-10.59-.1-.26-.31-.79-.41-1.06l-.14-.33c.99-3.74.5-7.66,1.1-11.45,1.23-8.87,3.53-17.94,8.93-25.25,1.63-2,3.41-4.38,6.16-4.79Z"/>
      <path class="cls-26" d="m408.52,131.85c2.61.12,5.23.24,7.86.38-.11,2.12-.21,4.24-.26,6.37.33-.25,1.01-.75,1.35-.99,2.12-1.6,4.16-3.3,6.27-4.92.86-.06,1.73-.12,2.64-.15-3.37,2.65-6.99,4.99-10.1,7.94-.51,1.67-.55,3.41-.75,5.14-2.71.22-5.43.22-8.11-.15.3-4.55.75-9.08,1.1-13.62Z"/>
      <path class="cls-10" d="m373.99,146.13c11.09-1.19,22.29-.91,33.43-.66,2.68.37,5.4.37,8.11.15,24.58,1.29,49.27,2.64,73.55,7,4.61,1.2,10.16,1.42,13.58,5.17-8.45,3.91-14.88,11.98-16.35,21.23-.89,5.57-.95,11.63,1.01,16.96,24.13,10.36,48.39,20.45,72.56,30.76-.03.34-.09,1.02-.11,1.35-24.15-10.06-48.16-20.42-72.31-30.47,2.34,9.35,6.89,17.94,11.8,26.17,1.21,1.89,2.16,4.37,4.67,4.79,17.86,5.34,35.77,10.55,53.59,16.02-.66.13-2,.37-2.66.49-17.28-4.96-34.42-10.37-51.71-15.27,1.55,2.71,3.09,5.53,5.38,7.73.26.89.6,1.8,1.17,2.58,4,5.69,8.05,11.36,12.46,16.76,6.31,7.66,13.09,15.18,21.61,20.45,58.83,38.56,117.71,77.06,176.56,115.59,2.66,1.89,5.94,3.2,7.79,6.05-7.48-3.55-14.01-8.8-21.04-13.14-50.33-32.95-100.67-65.9-151.01-98.84-6.12-3.87-11.96-8.2-18.29-11.7-7.01-2.58-14.22-4.63-21.36-6.8-.27.14-.82.43-1.09.58-15.82,8.8-31.83,17.29-47.75,25.91-.45-.12-1.36-.38-1.82-.51,16.12-8.84,32.43-17.34,48.44-26.38-26.53-7.4-53.94-12.19-81.52-12.67.93,12.27,2.61,24.49,3.33,36.76-.29,2.39-.64,4.79-.63,7.21-.58-2.59.3-6.49-3.05-7.49.03,2.29.17,4.6.31,6.9-.34.4-1.02,1.19-1.36,1.59-.23-2.84-.46-5.66-.76-8.48-.57-.32-1.72-.98-2.29-1.3l-.04-.68c.54-.07,1.63-.2,2.17-.27-1.03-11.64-1.6-23.32-2.97-34.91-2,1.16-1.02,3.58-1.13,5.4.88,9.65.91,19.35,1.88,29-.48-.08-1.44-.24-1.91-.32-.35-11.05-1.32-22.06-1.74-33.1-1.12-.12-2.22-.23-3.3-.33-.39,10.62.6,21.23.63,31.86-.77-1.77-1.35-3.6-1.72-5.47-.26-6.21-.35-12.42-.6-18.62-.16-2.76.12-5.67-1.2-8.18l-1.52.64c-1.41,1.38-.83,3.54-1.11,5.3l-1.59.03c-.03-1.7-.05-3.39-.05-5.07-2.25.22-4.48.46-6.71.63-2.97.03-5.96.44-8.6,1.85-.01-.14-.03-.41-.04-.54-.25.46-.74,1.39-.98,1.86-1.32.41-2.03-2.03-2.94-2.35-.23,1.61-.37,3.23-.41,4.87-.51.11-1.52.33-2.02.44.18-1.22.53-3.65.71-4.87-.4.18-1.2.53-1.6.71-.76,3.03-1.97,6.38-1.28,9.48l1.26.95c.16-1.69.28-3.38.36-5.06.86-.03,1.73-.05,2.62-.06-1.24,2.36-2.29,5.71-.14,7.95.93-3.83,1.38-7.76,1.96-11.64,2.5,4.29-.38,9.26-.01,13.87l-.19.62c-.5-.37-1.49-1.12-1.99-1.5-.45-.24-1.36-.72-1.82-.96.29,2.05-1.89,6.23,1.65,6.14.05-.87.15-2.59.2-3.45l1.09.07c.03,1.59.11,3.19.24,4.8v.11c-.16.55-.48,1.65-.65,2.2-.41.1-1.24.29-1.65.38.01-.67.03-2.02.04-2.69l-1.06-.63-.71.47c-1.05,5.07-1.57,10.22-2.61,15.29-.41.21-1.24.61-1.65.82.59-5.95,2.32-11.78,2.35-17.76l-1.65.14c-1.68,6.69-2.39,13.59-3.99,20.31-.29-1.15-.57-2.3-.84-3.43.83-5.97,2.15-11.85,3.13-17.79-1.34-.36-2.66-.71-3.97-1.05-1.53,6.36-2.64,12.82-4.17,19.19-.28-.56-.82-1.69-1.09-2.26,1.05-6.1,2.8-12.08,3.5-18.24-.48.19-1.42.55-1.89.73-2.41,7.85-4.01,15.93-6.37,23.79-.07.08-.21.24-.29.32-.33-.18-1.01-.56-1.34-.75,3.24-10.82,5.48-21.92,8.63-32.76.46-1.78.78-3.6.98-5.41-2.31,3.83-2.9,8.39-3.75,12.71-2.02,4.77-2.9,9.9-4.48,14.81-.24-.57-.73-1.72-.97-2.3,1.01-4.23,2.33-8.38,3.26-12.62-4.16-1.12-8.13-2.82-12.3-3.82-.68.17-2.05.52-2.73.69-11.94-7.42-22.6-18-27.38-31.47-2.29-6.36-2.8-13.24-2.02-19.92-2.49-2.22-5.06-4.33-7.6-6.47-6.68,5.03-13.3,10.15-19.94,15.24.05-.49.13-1.48.18-1.97,6.34-4.63,12.54-9.45,18.73-14.3-1.48-1.16-2.94-2.32-4.47-3.37.34-.31,1.02-.92,1.36-1.23,1.24,1.26,2.43,2.65,4.02,3.53,3.04-1.38,5.39-3.85,8.11-5.75,2.28-1.88,5.23-3.31,6.38-6.22,2.35-5.39,5.01-10.64,7.61-15.91-6.31-1.81-12.59-3.76-18.88-5.6-1.5-.94-6.66-.57-4.31-3.11,7.76,3.19,16.01,5.09,24.07,7.44,5.43-9.93,11.83-19.36,19.22-27.94,2.79-2.88,5.23-7.08,9.79-6.98m40.6,16.6c-4.42,3.44-9.06,7.57-10.05,13.38-1.44,8.52,2.7,16.49,5.43,24.31,2.09.73,4.2,1.44,6.32,2.16,1.64-1.63,3.54-3.14,6.02-2.99-.01,1.58.05,3.19.1,4.78,4.34.86,8.76,3.47,13.18,1.48-.09.57-.28,1.72-.37,2.3,1.65.45,3.29.89,4.97,1.34,5.71-10.72,9.56-23.25,6.84-35.41-1.59-7.44-7.09-14.49-14.87-15.86-6.22-1.86-12.68.69-17.57,4.51m-49.66,28.42c1.5,3.02,4.05,5.32,6.7,7.35,13.26,9.87,28.86,15.78,43.55,23.01-5.55,2.09-11.1,4.16-16.7,6.09-6.56,2.09-13.04,4.91-19.99,5.3-2.16-3.16-4.86-5.95-8.05-8.07-1.73-1.18-3.93-2.28-6.01-1.34-1.66,3.6-.95,8.05.7,11.59.49,1.21,1.44,3.14-.36,3.72-6.79,2.61-14.49,1.29-21.27,3.85-1.42,1.1.75,2.15,1.65,2.51,3.81,1.67,7.9,2.71,12,3.39,4.76.66,8.59-2.71,12.87-4.07,3.32-1.1,5.79,1.75,8.29,3.39,2.05,1.46,5.26,1.47,6.93-.62,1.8-1.96,1.52-4.75,1.55-7.2,13.46-5.24,27.33-9.45,41.12-13.64,14.28,5.19,28.5,10.76,43.31,14.32-3.22,3.62-8.7,3.86-11.95,7.46,3.05,2.14,6.99,2.99,10.67,2.35,3.61-.66,6.29-3.34,9.28-5.24,1.44,1.74,2.55,4.05,4.87,4.81,4.76,1.79,10.25,2.04,15,.02-.18-1.32-.75-2.48-1.82-3.25-3.5-3.05-7.37-5.62-11.09-8.36,2.39-1.12,5.39-2.05,6.46-4.75,1.06-2.83-.52-5.64-2.27-7.77-2.51,1.99-3.66,5.85-7.26,6.12-3.3.55-6.77,2.22-10.08.92-11.02-3.42-22.01-6.94-32.84-10.88,4.64-2.39,9.93-3.69,14.07-6.97-4.92-1.15-9.68-3.85-14.79-3.5-1.02-1.94-3.35-1.93-5.22-2.16-.59,1.45-.42,3.7-2.59,3.79.67-2.06,1.37-4.21-.89-5.63-.21,1.42-.39,2.85-.52,4.29-.59-.12-1.78-.35-2.38-.47.09-1.74,1.19-4.04-1.03-4.9-1.76.73-1.1,2.83-1.51,4.26-3.13.3-1.11-3.29-1.46-4.91-.93-.27-1.85-.52-2.74-.76-3.43-.92-6.81-1.99-10.25-2.81.47,2.46,1.31,5.9-.81,7.79-15.24-5.83-29.98-12.97-45.14-19.03m78.99,19.1c3.79,2.12,8.32,2.52,12.33,4.22,7.39-4.27,14.15-9.88,18.87-17.06-10.39,4.31-20.79,8.58-31.2,12.84m-120.67,1.08c2.11,2.03,4.36,3.92,6.68,5.73.89-4.81,2.89-9.29,4.18-13.98-3.66,2.7-7.18,5.58-10.86,8.25m105.99,44.07c1.27,11.78,1.55,23.66,3.12,35.41.48.21,1.42.64,1.89.85-.65-12.11-2.22-24.16-3.33-36.24l-1.68-.02m-48.84,12.23c-.23,2.25-2.3,4.99-.23,6.94,1.77-4.14,2.38-8.67,2.82-13.12.2-.57.61-1.71.82-2.28-2.79,1.75-2.39,5.68-3.41,8.46m5.31-8.59c-.32,1.38-.64,2.76-.9,4.16.86.97,1.74,1.94,2.63,2.92,1.63-2.15,1.47-5.01,2.03-7.51-.94.11-2.82.32-3.76.43m-23.59,8.99c4.13,1.34,8.27,2.64,12.38,4.07,1.17-3.66,2.17-7.37,3.02-11.11-5.37,1.63-11.28,2.98-15.4,7.04m20.2,6.58c1.39.4,2.8.78,4.24,1.16.02-.93.06-2.79.07-3.71.56-.15,1.69-.45,2.25-.6-1.12,2.31-.97,4.31.46,6.02.95-2.72,2.82-6.4.2-8.77l.15,1.61c-1.07.02-2.12.05-3.15.1,3.8-2.15-.82-3.84-1.87-5.5-1.04,3.16-1.62,6.44-2.35,9.69Z"/>
      <path class="cls-35" d="m282.62,170.59c9.99-6.76,20.1-13.34,30.23-19.89.19,4.38-.01,8.93,1.64,13.09,1.29,3.76,3.92,6.81,6.42,9.82-2.35,2.54,2.81,2.17,4.31,3.11.22,1.37.46,2.75.71,4.14-9.03.17-17.58-3.25-26.22-5.4-.33.36-.99,1.08-1.33,1.44-1.21-3.97-6.8-2.99-9.89-4.58-.58,3.63-1,7.3-1.39,10.97.17-3.66.26-7.31.39-10.96-1.64-.58-3.27-1.16-4.87-1.74Z"/>
      <path class="cls-22" d="m251.03,157.91c.1.27.31.8.41,1.06-50.72,41.23-101.27,82.68-151.9,124.03-.39.39-1.17,1.17-1.56,1.56-.42-.48-.82-.95-1.21-1.42,5.1-2.77,9.16-7.16,13.8-10.64,46.85-38.16,93.49-76.58,140.46-114.59Z"/>
      <path class="cls-52" d="m414.59,162.73c4.89-3.82,11.35-6.37,17.57-4.51,7.78,1.37,13.28,8.42,14.87,15.86,2.72,12.16-1.13,24.69-6.84,35.41-1.68-.45-3.32-.89-4.97-1.34.09-.58.28-1.73.37-2.3-4.42,1.99-8.84-.62-13.18-1.48-.05-1.59-.11-3.2-.1-4.78-2.48-.15-4.38,1.36-6.02,2.99-2.12-.72-4.23-1.43-6.32-2.16-2.73-7.82-6.87-15.79-5.43-24.31.99-5.81,5.63-9.94,10.05-13.38m23.57,4.45c2.61,3.05,6.74,5.55,6.99,9.96.56,4.98-3.51,8.95-3.11,13.91l.84.02c-.15-4.31,2.92-7.79,3.19-12,.69-5.21-3.3-10.05-7.91-11.89m-11.25,11.91c.17,1.44-.29,3.44,1.24,4.34-.25-4.54.31-9.03.81-13.52-1.95,2.63-2.06,6.04-2.05,9.18m3.71.95c.25,2.66,3.91,4.43,6.43,3.58,2.21-1,3.9-3.17,4.45-5.53.26-2.4-1.7-4.12-2.89-5.95-3.03,2.17-6.38,4.42-7.99,7.9m-17.05-5.29c-3.08,2.13-1.68,7.42,1.35,8.96,3.72.09,6.41-3.03,9.32-4.94-1.94-3.65-6.81-5.62-10.67-4.02m13.69,14.38c.17,3.14,3.07,5.16,5.79,6.12-.6-3.9-3.06-7.16-4.01-10.95-.92,1.46-2.07,2.98-1.78,4.83m-2.52,10.23c-.79,1.3-1.63,3.09-.66,4.54,1.6.25,2.66-1.14,3.92-1.85.45,1.22,1.33,1.85,2.64,1.88.05-.7.15-2.1.2-2.8-1.39.29-2.76.59-4.12.9.13-1.48-1.12-1.92-1.98-2.67m8.39,2.09c-.79,2.86,2.26,1.98,4.01,2.01.37-.58,1.1-1.74,1.47-2.32-1.85.09-3.66.2-5.48.31Z"/>
      <path class="cls-2" d="m438.16,167.18c4.61,1.84,8.6,6.68,7.91,11.89-.27,4.21-3.34,7.69-3.19,12l-.84-.02c-.4-4.96,3.67-8.93,3.11-13.91-.25-4.41-4.38-6.91-6.99-9.96Z"/>
      <path class="cls-38" d="m426.91,179.09c-.01-3.14.1-6.55,2.05-9.18-.5,4.49-1.06,8.98-.81,13.52-1.53-.9-1.07-2.9-1.24-4.34Z"/>
      <path class="cls-16" d="m430.62,180.04c1.61-3.48,4.96-5.73,7.99-7.9,1.19,1.83,3.15,3.55,2.89,5.95-.55,2.36-2.24,4.53-4.45,5.53-2.52.85-6.18-.92-6.43-3.58Z"/>
      <path class="cls-31" d="m287.1,183.29c.39-3.67.81-7.34,1.39-10.97,3.09,1.59,8.68.61,9.89,4.58-.74,7.18-1.1,14.39-1.82,21.57-3.53-.84-7.03-1.75-10.53-2.62.37-4.19.66-8.38,1.07-12.56Z"/>
      <path class="cls-34" d="m413.57,174.75c3.86-1.6,8.73.37,10.67,4.02-2.91,1.91-5.6,5.03-9.32,4.94-3.03-1.54-4.43-6.83-1.35-8.96Z"/>
      <path class="cls-45" d="m427.26,189.13c-.29-1.85.86-3.37,1.78-4.83.95,3.79,3.41,7.05,4.01,10.95-2.72-.96-5.62-2.98-5.79-6.12Z"/>
      <path class="cls-35" d="m194.11,228.63c18.87-12.26,37.66-24.66,56.44-37.08,5.79,1.01,11.7.78,17.53,1.6,6,.75,11.99,1.64,17.95,2.7,3.5.87,7,1.78,10.53,2.62,5.59,1.52,11.04,3.52,16.57,5.24,1.86.49,3.53,1.54,4.85,2.96-.34.31-1.02.92-1.36,1.23-.4-.26-1.22-.77-1.63-1.03-8.33,1.94-12.86,10.64-12.63,18.7-.05.49-.13,1.48-.18,1.97-.94,9.94,1.19,19.98,3.79,29.53.16.32.48.97.64,1.29.28.24.85.71,1.13.94-1.13,2.99.39,6.01,1.27,8.85,4.46,13.07,10.19,26.08,19.63,36.38,1.85,2.05,3.9,3.94,6.23,5.46.43.24,1.29.74,1.71.99,1.84,1.3,3.67,2.62,5.59,3.85-.71.3-2.13.92-2.84,1.22-.86-.37-1.72-.7-2.58-.98-9.01-1.28-18.15-2.17-27.26-2.32-3.61-1.18-7.39-1.04-11.1-.67-3.57-1.18-7.27-1.93-11.03-1.49-3.51-1.24-7.28-1.01-10.91-1.47-23.24-2.31-46.52-4.28-69.75-6.65-1.16-3.54-2.05-7.18-3.63-10.55-.14-.3-.41-.9-.54-1.2.07-2.97-.85-5.82-1.51-8.67-4.29-17.41-6.37-35.39-5.46-53.32l-1.45-.1Z"/>
      <path class="cls-52" d="m364.93,191.15c15.16,6.06,29.9,13.2,45.14,19.03,2.12-1.89,1.28-5.33.81-7.79,3.44.82,6.82,1.89,10.25,2.81l.07,1.27c-.87.04-2.6.13-3.47.17.74.99,1.47,1.99,2.4,2.87,2.46,1.06,5.11,1.53,7.74,2,.6.12,1.79.35,2.38.47.13-1.44.31-2.87.52-4.29,2.26,1.42,1.56,3.57.89,5.63,2.17-.09,2-2.34,2.59-3.79,1.87.23,4.2.22,5.22,2.16,5.11-.35,9.87,2.35,14.79,3.5-4.14,3.28-9.43,4.58-14.07,6.97,10.83,3.94,21.82,7.46,32.84,10.88,3.31,1.3,6.78-.37,10.08-.92,3.6-.27,4.75-4.13,7.26-6.12,1.75,2.13,3.33,4.94,2.27,7.77-1.07,2.7-4.07,3.63-6.46,4.75,3.72,2.74,7.59,5.31,11.09,8.36,1.07.77,1.64,1.93,1.82,3.25-4.75,2.02-10.24,1.77-15-.02-2.32-.76-3.43-3.07-4.87-4.81-2.99,1.9-5.67,4.58-9.28,5.24-3.68.64-7.62-.21-10.67-2.35,3.25-3.6,8.73-3.84,11.95-7.46-14.81-3.56-29.03-9.13-43.31-14.32-13.79,4.19-27.66,8.4-41.12,13.64-.03,2.45.25,5.24-1.55,7.2-1.67,2.09-4.88,2.08-6.93.62-2.5-1.64-4.97-4.49-8.29-3.39-4.28,1.36-8.11,4.73-12.87,4.07-4.1-.68-8.19-1.72-12-3.39-.9-.36-3.07-1.41-1.65-2.51,6.78-2.56,14.48-1.24,21.27-3.85,1.8-.58.85-2.51.36-3.72-1.65-3.54-2.36-7.99-.7-11.59,2.08-.94,4.28.16,6.01,1.34,3.19,2.12,5.89,4.91,8.05,8.07,6.95-.39,13.43-3.21,19.99-5.3,5.6-1.93,11.15-4,16.7-6.09-14.69-7.23-30.29-13.14-43.55-23.01-2.65-2.03-5.2-4.33-6.7-7.35Z"/>
      <path class="cls-29" d="m217.01,193.87c9.82-.99,19.76-2.55,29.62-1.41-16.67,11.2-33.52,22.12-50.3,33.14.78-7.72,3.12-15.41,7.35-21.96,3.2-4.53,7.21-9.76,13.33-9.77Z"/>
      <path class="cls-31" d="m559.88,226.74c1.03-10.7,1.77-21.42,2.77-32.13,3.42.29,6.83.67,10.27.96-.32,5.6-.98,11.17-1.41,16.77-.63,7.59-1.55,15.15-2.08,22.76-.36,4.28-1.09,8.55-.97,12.86,11.91,3.09,23.61,6.96,35.44,10.35,7.89,2.37,15.8,4.67,23.69,7.05,5.51,1.64,10.99,3.41,16.57,4.83,1.19-11.03,2.26-22.07,3.55-33.09,3.29.3,6.61.6,9.94.81-.09,4.81-.75,9.59-1.05,14.39-1.06,7.93-1.21,15.94-1.91,23.9-.34,2.57-.63,5.15-.83,7.75-.62,4.61-.94,9.26-1.55,13.87-3.7-.07-7.38-.07-11.06-.06.84-8.7,1.97-17.38,2.66-26.1-5.73-1.63-11.42-3.36-17.1-5.11-10.17-2.87-20.27-5.96-30.37-9.05-9.52-2.62-18.86-5.87-28.44-8.23-.18,2.18-.34,4.36-.48,6.56-3.13-.27-6.27-.45-9.36-.96-.1-.45-.32-1.33-.43-1.78.18-2.33.37-4.65.55-6.97-1.15-.35-2.3-.7-3.42-1.03.66-.12,2-.36,2.66-.49l.96-.13c.36-5.47.98-10.91,1.29-16.38.02-.33.08-1.01.11-1.35Z"/>
      <path class="cls-52" d="m443.92,210.25c10.41-4.26,20.81-8.53,31.2-12.84-4.72,7.18-11.48,12.79-18.87,17.06-4.01-1.7-8.54-2.1-12.33-4.22Z"/>
      <path class="cls-4" d="m424.74,199.36c.86.75,2.11,1.19,1.98,2.67,1.36-.31,2.73-.61,4.12-.9-.05.7-.15,2.1-.2,2.8-1.31-.03-2.19-.66-2.64-1.88-1.26.71-2.32,2.1-3.92,1.85-.97-1.45-.13-3.24.66-4.54Z"/>
      <path class="cls-10" d="m433.13,201.45c1.82-.11,3.63-.22,5.48-.31-.37.58-1.1,1.74-1.47,2.32-1.75-.03-4.8.85-4.01-2.01Z"/>
      <path class="cls-13" d="m421.13,205.2c.89.24,1.81.49,2.74.76.35,1.62-1.67,5.21,1.46,4.91.41-1.43-.25-3.53,1.51-4.26,2.22.86,1.12,3.16,1.03,4.9-2.63-.47-5.28-.94-7.74-2l1.04-.3c.01-.68.02-2.05.03-2.74l-.07-1.27Z"/>
      <path class="cls-10" d="m417.73,206.64c.87-.04,2.6-.13,3.47-.17-.01.69-.02,2.06-.03,2.74l-1.04.3c-.93-.88-1.66-1.88-2.4-2.87Z"/>
      <path class="cls-10" d="m569.43,235.1c.53-7.61,1.45-15.17,2.08-22.76,5.56,4.23,11.53,8.66,18.69,9.51,4.79.75,9.14-2.11,13.91-1.95,9.4.24,18.32,4.66,25.28,10.81,4.59,4.25,8.89,9.85,8.6,16.45-3.48-4.04-8.34-7.43-13.92-6.98-7.9.42-15.56,2.78-23.47,3.3,1.74,1.5,4,2.14,6.08,3.05,6.52,2.71,13,5.54,19.54,8.22,1.13.52,2.64.85,3.03,2.29-3.94-.7-7.41-2.82-11.1-4.21-7.41-3-14.66-6.4-22.12-9.23-9.38-.75-18.61-3.48-26.6-8.5Z"/>
      <path class="cls-22" d="m509.7,240.13c-.57-.78-.91-1.69-1.17-2.58,5.7,3.37,10.83,7.66,16.69,10.76-.15.46-.45,1.37-.6,1.82-4.93-3.4-9.9-6.75-14.92-10Z"/>
      <path class="cls-35" d="m525.22,248.31c9.99,3.79,20.69,4.78,31.17,6.5.33-.43,1-1.29,1.34-1.72.11.45.33,1.33.43,1.78,3.09.51,6.23.69,9.36.96,9.61.81,19.25,2.44,28.92,1.67,10.1,3.09,20.2,6.18,30.37,9.05-8.51,8.8-14.91,19.69-18.7,31.32,11.04.11,22.09-.18,33.14-.11,3.68-.01,7.36-.01,11.06.06.61-4.61.93-9.26,1.55-13.87-.06,4.62-.41,9.23-.66,13.85,19.95-.19,39.91-.03,59.87.1,5.81-.06,11.7.6,17.47-.53,3.08.95,6.15,2.04,9.34,2.66,2.05-1.18,4.36-1.59,6.63-.72-9.85,11.53-18.71,24.22-23.54,38.73-5.23,14.86-5.63,31.76.74,46.34,2.47,6.15,6.26,11.6,10.09,16.96-10.67,2.87-21.73,3.72-32.69,4.68-18.94,1.42-37.95,1.58-56.94,1.4-.24.39-.74,1.18-.99,1.58-.06-.4-.17-1.2-.23-1.6-4.34-.2-8.67-.18-12.98-.32-.12.55-.35,1.63-.46,2.18-.11-.52-.34-1.54-.45-2.05-15.04-.85-30.12-1.21-45.17-2.03.21,3.39.5,6.79,1.16,10.13.86,4.82,2.58,9.44,4.78,13.8,4.55,9.22,11.98,16.65,20.19,22.69-10.5-1.46-21.02-2.73-31.54-3.9-15.46-1.46-31.15-3.16-46.57-.47-12.95,2.3-25.73,5.63-38.8,7.16-16.14-6.15-31.2-15.52-43.79-27.37-.21-1.6-.4-3.18-.57-4.76-.02-.38-.07-1.14-.1-1.52-1.68-17.56-3.5-35.12-5.09-52.7-.52-3.39,1.99-5.58,4.52-7.25,2.83-2.12,5.7-4.18,8.7-6.05.29-.16.86-.5,1.15-.66,6.49-3.23,12.8-7.72,20.39-7.52.11-.01.34-.05.46-.06.91-.19,2.74-.55,3.66-.73,4.88-.3,9.77-.52,14.65-.97,4.12-.42,8.42.11,12.4-1.33.87-.08,1.8-.13,2.7-.22,3.52,1.09,7.22.53,10.84.53,9.04-.13,18.1-.13,27.14.23,2.93.11,5.88.24,8.83.17.1-.27.28-.8.37-1.06,1.22,1.35,3.01,1.23,4.7,1.28.12-6.82.76-13.6,1.92-20.31-1.59-.19-3.16-.37-4.71-.52-3.04-.32-6.08-.51-9.11-.68-.25,1.37-.47,2.77-.64,4.18-.05-1.47-.09-2.93-.13-4.38-3-.38-6.03-.5-9.02-.19-1.61-.58-3.17-1.3-4.74-1.91-.31.24-.92.72-1.23.96-.46.02-1.36.06-1.81.08-4.4-.85-8.83-.37-13.23.1.07-.31.21-.91.29-1.21-7.03-.42-14.09-.34-21.09-1.13.45-1.54.95-3.05,1.46-4.56.12-.34.35-1,.46-1.34,1.31-3.64,2.57-7.3,3.86-10.95.14-.39.42-1.16.56-1.55,3.75-10.58,7.31-21.23,11.06-31.81-.66-.08-1.98-.23-2.64-.3.27-.15.82-.44,1.09-.58,7.14,2.17,14.35,4.22,21.36,6.8,6.33,3.5,12.17,7.83,18.29,11.7,50.34,32.94,100.68,65.89,151.01,98.84,7.03,4.34,13.56,9.59,21.04,13.14-1.85-2.85-5.13-4.16-7.79-6.05-58.85-38.53-117.73-77.03-176.56-115.59-8.52-5.27-15.3-12.79-21.61-20.45.86-2.24,1.7-4.49,2.46-6.76.15-.45.45-1.36.6-1.82Z"/>
      <path class="cls-10" d="m654.69,276.2c.7-7.96.85-15.97,1.91-23.9,4.4,4.55,9.64,9.39,16.42,9.31,6.21.28,10.78-5.24,16.96-5.16,7.53-.38,14.09,4.57,18.53,10.23,4.26,5.63,7.56,12.37,7.82,19.54-4.47-4.04-9.64-9.17-16.28-7.55-5.43,1.3-11.24,1.42-16.44,3.34,13.41,4.19,26.92,8.08,40.39,12.1,7.47,2,14.78,5.47,22.71,4.58.01.17.02.5.02.67l-.22-.05c-2.27-.87-4.58-.46-6.63.72-3.19-.62-6.26-1.71-9.34-2.66-16.92-4.79-33.71-9.98-50.56-14.96-3.25-.96-6.67-.88-9.97-1.44-5.33-.78-10.43-2.58-15.32-4.77Z"/>
      <path class="cls-50" d="m398.72,258.38c2.64-1.41,5.63-1.82,8.6-1.85-.52,8.25-1.12,16.49-1.81,24.74,1.93,1.29,4.08,2.22,6.31,2.95.04.98.1,2.96.14,3.95-2.09-1.72-4.14-3.39-6.31-4.97-1.11,7.7-1.3,15.5-2.01,23.24,1.47-.03,2.95-.04,4.46-.04-.29.32-.87.96-1.16,1.27-.84.06-2.52.18-3.36.23-.3,3.68-.64,7.35-.79,11.04,3.08,1.9,6,4.19,9.5,5.3-.01.34-.05,1-.07,1.34-3.59,1.4-7.34,2.83-10.25,5.43-.14.65-.43,1.97-.57,2.62,1.47-.07,2.95-.14,4.45-.2,2.1-.01,4.21.08,6.35.18-.07,3.21-.23,6.43-.38,9.64.04-3.04.07-6.08.14-9.11-3.51.29-7.01.62-10.48,1.09-.86,11.67-1.7,23.34-2.62,35,.14.37.43,1.12.58,1.49-1.13,3.65-1.51,7.53-1.01,11.34l.25,1.08c-1.16.51-.96,1.83-1.09,2.87-.47,7.15-1.2,14.28-1.4,21.44-.43,4.81-1.03,9.61-1.1,14.46,4.75.1,9.5.11,14.25.27l-.08.95c-4.94.04-9.88-.18-14.8.17.07,4.83-.26,9.67-.9,14.46-1.06,7.5.26,15.36-2.24,22.63-2.8,1.31-6.11.55-9.1.64-.2-2.97-.38-5.95.06-8.89,1.31-9.59,1.38-19.3,2.54-28.9-13.35-.52-26.77.84-40.07-.42,13.3-.91,26.66-.43,39.99-.85.31-4.9.68-9.79,1.17-14.67.73-9.11,1.62-18.21,2.14-27.33-2.2-.79-4.38-1.61-6.55-2.41.47-.12,1.41-.38,1.88-.51,1.62.38,3.27.8,4.91,1.22.39-4.81.74-9.62,1.24-14.42-.32-.44-.95-1.31-1.27-1.75l-.11-1.43c.4.08,1.2.25,1.6.34.59-8.64,1.48-17.25,2.02-25.88-1.77.93-3.48,1.93-5.23,2.87-1.21.5-2.51.75-3.79.8.92-.78,1.69-1.73,2.36-2.73,1.98-1.66,4.48-2.26,6.98-2.68.25-6.69,1.21-13.34,1.36-20.03-1.05-.56-2.07-1.13-3.07-1.72.05-.35.13-1.04.18-1.39.78.45,2.34,1.34,3.11,1.79.12-1.56.25-3.11.39-4.66-.79.02-2.36.05-3.15.06l.17-1.08c1.04-.24,2.12-.46,3.21-.66.45-8.56,1.63-17.08,1.92-25.64-.2-.31-.61-.93-.81-1.24v-.11c1.63-1.05,1.74-2.9,1.87-4.65-.53-.04-1.59-.11-2.12-.15l-1.09-.07c-.01-.44-.02-1.3-.03-1.73.5.38,1.49,1.13,1.99,1.5l.19-.62c1.6-4.56,2.44-10.07-.05-14.44l2.75.99c-.04-.54-.14-1.62-.19-2.16m3.8,62.63c-.22,2.63-.44,5.28-.11,7.93,2.29-1.41,4.81-2.5,6.82-4.33-2.18-1.33-4.21-2.98-6.71-3.6Z"/>
      <path class="cls-22" d="m416.78,255.64l1.52-.64c.23,11.03-1.03,22.14.25,33.13-.34,0-1.01,0-1.35-.01-.28-.22-.85-.66-1.13-.88.63-10.52.53-21.07.71-31.6Z"/>
      <path class="cls-48" d="m305.97,257.07c20.66,13.24,41.29,26.51,61.99,39.68.99-3.61,2.03-7.21,2.93-10.84.24.58.73,1.73.97,2.3-.99,3.28-2.01,6.58-2.46,10l1.08.65c.33.19,1.01.57,1.34.75.08-.08.22-.24.29-.32.78.33,2.36.98,3.15,1.31.72-2.49,1.1-5.06,1.61-7.59.27.57.81,1.7,1.09,2.26-.55,2.26-1.01,4.54-1.43,6.84,1.18.96,2.74,1.67,3.46,3.13-1.3-.43-2.47-1.07-3.51-1.93-.53,1.74-.92,3.52-1.1,5.34,1.78-.33,3.6-.67,5.41-1.02-.02-.62-.04-1.86-.05-2.48,1.01-3.35,1.74-6.77,2.23-10.23.27,1.13.55,2.28.84,3.43-.47,2.61-.95,5.21-1.38,7.83.68.38,2.05,1.15,2.73,1.53.74-4.01,1.3-8.04,1.94-12.05.41-.21,1.24-.61,1.65-.82-.74,4.28-1.42,8.57-2.07,12.87.67-.1,2.02-.31,2.69-.41,1.66-8.21,2.46-16.6,3.72-24.9.41-.09,1.24-.28,1.65-.38-1.42,8.41-2.48,16.89-3.66,25.34l-.17,1.08c-.15.92-.27,1.86-.35,2.81-.05.35-.13,1.04-.18,1.39-1.3,7.3-2.02,14.69-3.33,21.99,1.66-.11,3.34-.19,5.04-.24-2.5.42-5,1.02-6.98,2.68-1.64-.65-3.67.23-3.59,2.18.31.14.93.41,1.23.55,1.28-.05,2.58-.3,3.79-.8-.72,5.52-1.67,11.01-2.32,16.54-.72,2.89,2.31,4.29,3.93,6.13l.11,1.43c-1.45-1.42-3-2.77-4.53-4.08-.95,6.12-1.78,12.26-2.65,18.39.57.16,1.73.48,2.3.64-.47.13-1.41.39-1.88.51l-.63.15c-1.31,9.7-2.76,19.37-4.09,29.07-.36-.07-1.07-.19-1.43-.26,1.33-9.87,2.83-19.71,4.15-29.58-1.28-.43-2.55-.86-3.81-1.28-1.9,10.36-3.31,20.81-5.12,31.19-.39.05-1.17.15-1.56.2,1.79-10.69,3.7-21.38,5.05-32.13-1.44-.27-2.86-.54-4.26-.8-2.1,10.86-3.85,21.79-6.09,32.63-.36.03-1.07.08-1.42.11,2.01-11.27,4.31-22.49,6.07-33.8-2.25-.53-4.47-1.14-6.67-1.73-2.39,11.89-5.12,23.7-7.39,35.61-.72-.02-1.43-.03-2.1,0l.63-.37c2.46-11.94,4.98-23.86,7.5-35.78-2.12-.71-4.24-1.38-6.36-2.05-3.2,12.15-6.29,24.33-9.42,36.51-.2.43-.59,1.31-.78,1.75-.33.04-.99.11-1.32.15,3.52-12.85,6.65-25.81,10.11-38.69l-2.05-.4c.85-.6,1.72-1.19,2.62-1.75.74-3.04,1.52-6.07,2.05-9.15.41.75.84,1.53,1.28,2.31-.96,2.8-1.68,5.69-2.04,8.64,2.05.39,4.1.94,6.12,1.55,1.39-6.7,2.97-13.36,4.12-20.1-2.24,1.26-4.48,2.49-6.79,3.57-.35,1.68-.67,3.38-.97,5.09-.57-1.34-1.11-2.7-1.57-4.05-.59.48-1.78,1.44-2.38,1.92-1.06,3.88-2.21,7.74-2.96,11.7-4,13-7.4,26.19-10.87,39.34-.41,0-1.22-.01-1.63-.01,3.68-13.4,7.35-26.8,11-40.2-3.22-1.04-6.44-2.05-9.57-3.26-2,.98-3.96,2-5.92,3.02-21.32,11.35-42.47,23.01-63.74,34.42-3.36,1.76-6.51,4.08-10.28,4.88,25.09-14.12,50.63-27.45,75.86-41.34.39-.16,1.16-.49,1.55-.65-.27-.24-.83-.73-1.1-.97.44-.14,1.33-.43,1.77-.58.49-.04,1.48-.13,1.97-.18,4.2-2.23,8.37-4.51,12.59-6.72.9-3.27,1.82-6.54,2.54-9.86.47-.19,1.41-.58,1.88-.78-.83,3-1.65,6-2.54,8.98.94-.18,1.9-.35,2.87-.51.78-2.92,1.49-5.86,2.38-8.75.14-.19.43-.58.58-.78.27-.09.82-.26,1.1-.35-.72,2.79-1.41,5.58-2.02,8.4,2.23-1.29,4.48-2.54,6.77-3.73.35-2.04.74-4.06,1.16-6.07l.97-.17c.65.39,1.31.82,1.97,1.28.49.37,1.47,1.1,1.96,1.47,3.87-.44,3.08-5.2,3.88-7.94-1.87.01-3.73.01-5.56.01-.32.72-.95,2.14-1.27,2.85-.46-.15-.89-.28-1.31-.4,2.16-10.28,4.31-20.57,6.49-30.84-1.38.07-2.74.16-4.08.26-2.21,9.28-4.76,18.48-7.1,27.73.57.53,1.71,1.59,2.28,2.12-1.06-.3-2.13-.59-3.16-.86-.53-.8-1.05-1.58-1.58-2.33-1.06-.06-1.84.45-2.34,1.53-.14-.03-.42-.1-.57-.14.04-.87.11-2.61.14-3.48-6.44-6.7-13.48-12.81-20.31-19.11.86.28,1.72.61,2.58.98,6.29,5.46,12.23,11.32,18.17,17.15,3.18-7.51,4.49-15.68,6.91-23.46-9.29.03-18.53,1.28-27.83,1.24-.42-.25-1.28-.75-1.71-.99,10.68-.7,21.64.18,32.03-2.59-2.86,8.64-5.2,17.46-7.42,26.28.18.31.55.94.73,1.25.3-.01.9-.02,1.21-.02,2.58-9.54,4.87-19.17,7.31-28.72.22-2.35,3.06-5.83.21-7.43-.83,2.81-1.52,5.65-2.18,8.51-1.53-3.11.05-6.35.93-9.38-19.92-12.96-40.11-25.51-59.95-38.59-.28-.23-.85-.7-1.13-.94-.16-.32-.48-.97-.64-1.29m65.86,43.43c-.74,2.62-1.41,5.27-2.08,7.92.94.01,2.82.04,3.77.06.61-2.12,1.07-4.27,1.28-6.46-.75-.38-2.23-1.14-2.97-1.52m16.08,7.88c-1.55,2.97,3.37.26,0,0m-5.93.5c-1.77,9.19-3.6,18.4-4.95,27.67.95-.24,2.85-.71,3.8-.94,1.11-9.05,2.97-17.99,4.1-27.03-.74.07-2.21.22-2.95.3m-7.03.42c-1.89,9.24-3.92,18.45-5.79,27.69,2.04-.17,4.13-.32,6.21-.49,1.67-9.08,3.28-18.17,5.04-27.23-1.84-.03-3.66-.01-5.46.03m11.23,1.15c-1.22,8.49-2.77,16.92-3.99,25.41.8-.1,2.42-.3,3.22-.4,1.09-4.76,1.39-9.67,2.23-14.48.36-3.41,1.34-6.79,1-10.23-.61-.07-1.85-.22-2.46-.3m-9.59,27.27c-.32,1.74-.67,3.47-.97,5.24,3.07-.12,4.97-2.36,5.01-5.4-1.27-1.21-2.71-.33-4.04.16m5.18,3.26c-1.58,3.85-1.48,8.2-2.42,12.24,1.01,1.04,2.04,2.08,3.08,3.13,1.11-5.39,1.62-10.88,2.51-16.3-.79.23-2.38.7-3.17.93m-6.24,3.7c-.61,1.37-.65,2.9-.85,4.39,1.11.93,2.21,1.87,3.37,2.79.57-3.08,1.06-6.17,1.47-9.27-1.37.66-2.74,1.26-3.99,2.09m-7.59,3.11c1.48-.18,2.12-2.83.33-3.05-1.28.18-1.79,2.86-.33,3.05m-1.4,1.87c-1.56,7.21-3.37,14.4-4.36,21.72,2.15.57,4.28,1.19,6.47,1.74,1.38-7.34,2.68-14.7,4.07-22.03.22-1.22-.05-2.45-.12-3.64-2.26-.14-4.35.81-6.06,2.21m7.83.6c-1.32,8.04-3.4,15.99-4.09,24.12,1.05.12,3.13.35,4.17.46,1.02-7.31,2.5-14.56,3.31-21.89-1.15-.9-2.28-1.81-3.39-2.69m4.74,4.66c-1.04,6.46-2.15,12.91-3.11,19.38-.56,1.99,2.17,2.28,3.51,2.53,1.41-6.3,1.76-12.78,2.95-19.12-1-1.08-2.1-2.05-3.35-2.79m-38.82,9.35c2.9.73,5.67,1.94,8.64,2.44.69-2.92,1.5-5.81,2.1-8.74-3.43,2.31-7.87,3.38-10.74,6.3Z"/>
      <path class="cls-25" d="m603.9,258.31c10.42.49,20.85.01,31.22-1.18-2.55,2.71-5.2,5.33-7.53,8.23-7.89-2.38-15.8-4.68-23.69-7.05Z"/>
      <path class="cls-9" d="m414.08,260.97l1.59-.03c-.42,9.52-.57,19.04-.44,28.56.43.1,1.29.29,1.71.39,1.28,1.18,2.08,2.82,3.5,3.93.1-2.16-.04-4.31-.88-6.3.42-1.88.63-3.81.54-5.72.37,1.87.95,3.7,1.72,5.47.31.23.91.71,1.21.94.8.16,2.4.47,3.2.63.47.08,1.43.24,1.91.32l.05.78.04.68c.42,4.25-1.35,9.88,3.07,12.59-.01-.7-.02-2.11-.02-2.81.34-.4,1.02-1.19,1.36-1.59.35,2.58-.37,6.27,2.96,7.13.05-2.19-.06-4.37-.22-6.54,0-2.42.34-4.82.63-7.21,3.97,1.31,7.93,2.67,11.97,3.8-.56.15-1.66.44-2.22.59-3.14-1.14-6.32-2.14-9.48-3.17.28,3.79.67,7.57,1.01,11.36,1.35-.02,2.73-.04,4.13-.03.3.24.89.73,1.18.97-1.68.03-3.35.07-5,.14-.01.77,0,1.56.02,2.36.44.32,1.33.97,1.77,1.29-.15.38-.44,1.13-.59,1.5l-.99-.48c.81,6.46,1.26,12.96,1.95,19.44,1.97-.16,3.97-.31,5.96-.53.33.29,1,.87,1.33,1.17-2.24.1-4.47.16-6.68.19-.3,4.31,0,8.71,1.05,12.92,5.33,3.75,10.95,7.13,16.51,10.57-.29.16-.86.5-1.15.66-5.14-3.33-10.31-6.61-15.46-9.9.51,7.75,1.53,15.46,2.24,23.2,1.59,17.58,3.41,35.14,5.09,52.7l-1.52,1.52c-1.62-19.87-3.87-39.68-5.59-59.54-.65-6.31-1.34-12.62-1.89-18.93-.87-.52-2.61-1.55-3.48-2.06.49,8.79,1.42,17.56,1.94,26.36,1.36,15.44,2.61,30.89,3.7,46.36-.23.51-.69,1.54-.92,2.05l-.45-.47c-1.13-14.52-2.22-29.04-3.46-43.55-.66-10.2-1.58-20.37-2.37-30.55.09-2.15-2.53-2.71-3.79-3.91.6,13.42,1.44,26.84,2.21,40.25.06,1.18.12,2.36.19,3.56,0,3.25-.01,6.63-1.42,9.64-.11-18.24-1.63-36.45-2.76-54.65-1.91-1.1-3.85-2.21-5.76-3.26.47,19.19,1.17,38.37,1.7,57.56l-1.37-.87c-.09-1.18-.15-2.33-.2-3.49-.63-18.03-1.09-36.06-1.75-54.09-1.51.24-2.99.49-4.47.73-.29,14.62-.39,29.24-.71,43.86-.42-2.54-.96-5.05-1.26-7.6.3-19.24.24-38.49.73-57.73-.59-6.65.8-13.29.17-19.94-.28-.4-.85-1.18-1.13-1.58-.45,5.36-.66,10.75-.41,16.13-1.07,6.86-.16,13.78-.31,20.66-1.15,1.35-1.41,3.07-1.18,4.79.38,5.66-.08,11.32.04,16.99-.24,11.7-1.01,23.41-.8,35.11l.29.05c-.03.54-.1,1.63-.14,2.18l-.03.52c-.39.37-1.17,1.1-1.56,1.47-.12-7.16.23-14.31.23-21.47.21-7.93.44-15.86.7-23.79.15-3.21.31-6.43.38-9.64-2.14-.1-4.25-.19-6.35-.18,2.07-.2,4.17-.46,6.27-.71.03-2.39.04-4.77.1-7.14.02-.34.06-1,.07-1.34.26-5.63.38-11.27.55-16.89-2,.08-3.95.18-5.9.32.29-.31.87-.95,1.16-1.27,1.55,0,3.11-.02,4.7-.02.13-5.45.54-10.89.43-16.33-.66-1.59-.77-3.3-.74-4.98,1.42-1.64,1.05-3.91,1.2-5.9.11-6.07.38-12.14.39-18.2m7.73,28.19c-.47,3.89.5,8.53,5.14,9.2-.14-2.83-.3-5.65-.56-8.46-1.54-.26-3.07-.51-4.58-.74m-4.07,4.04c-.09,4.21-.13,8.42-.19,12.64.83-.02,2.5-.07,3.34-.09-.83-4.1,1.8-10.53-3.15-12.55m4.51,3.49c-.08,2.98-.03,5.98.05,8.97,1.68-.06,3.38-.11,5.09-.16-.09-1.5-.23-2.98-.44-4.45-1.16-1.82-3.2-2.9-4.7-4.36m6.42,5.59c1.57,3.78-.35,7.8.82,11.65.73-.15,2.18-.47,2.9-.62-.91-2.38,1.09-6.91-2.53-7.25.45-.42,1.36-1.26,1.81-1.68-1.02-.71-2.02-1.41-3-2.1m4.68,3.84c.03,1.91.14,3.83.3,5.75.8-.35,2.39-1.07,3.19-1.42-.71-1.82-1.8-3.37-3.49-4.33m-15.73.71c-.19,4.7-.32,9.41-.17,14.13,1.28-.81,2.65-1.56,3.97-2.36-.33-3.93-.42-7.86-.54-11.79-.81,0-2.44.01-3.26.02m4.79-.11c.07,3.72.17,7.45.38,11.17,1.66-.89,3.33-1.77,5.04-2.61-.04-2.9-.21-5.8-.39-8.68-1.7.02-3.37.06-5.03.12m11.3,6.1c.58,5.89.93,11.8,1.51,17.69.77-.02,2.29-.08,3.05-.1-.43-6.08-1.21-12.12-1.64-18.2-.73.16-2.19.46-2.92.61m-4.12,2.12c-.19,5.32.58,10.63.71,15.95.86-.05,2.57-.16,3.42-.21-.44-5.47-.93-10.93-1.25-16.41-.72.17-2.16.5-2.88.67m-6.85,4.09c.14,4.2.33,8.41.47,12.62,1.86-.11,3.71-.23,5.61-.32-.5-5,.03-10.19-1.31-15.04-1.49,1.09-3.07,2.05-4.77,2.74m-5.45,2.91c-.28,3.47.72,6.97-.09,10.42l2.69.07-.97-2.94c.7.37,2.08,1.1,2.78,1.47-.17-3.57-.25-7.14-.35-10.7-1.41.48-2.73,1.06-4.06,1.68m13.16,9.88c-.42,3.01.26,6.85,3.95,7.06-.25-2.37-.45-4.72-.6-7.08-.84.01-2.52.02-3.35.02m4.83-.21c.74,3.62-1.06,9.95,4.17,10.59-.3-3.61-.63-7.2-1.01-10.79-.79.05-2.37.15-3.16.2m-9.22,1.31c.03,1.17.75,1.88,2.16,2.15,2.07-.86-.81-3.65-2.16-2.15Z"/>
      <path class="cls-10" d="m56.41,264.52c7.81-2.5,15.82,1.71,21.66,6.69,4.76,4.34,9.37,9.47,11.09,15.82-5.12-2.79-11.38-6.4-17.11-2.98-11.4,6.24-23.32,11.68-35.94,14.93-6.61-6.87-13.35-13.67-19.33-21.11,8.7,1.4,18.23,1.69,26.05-3.02,5.19-2.61,7.82-8.67,13.58-10.33Z"/>
      <path class="cls-50" d="m.21,275.81c2.57-2.46,5.19-4.87,7.86-7.22,2.88,3.11,5.8,6.19,8.71,9.28,5.98,7.44,12.72,14.24,19.33,21.11,6.46,6.3,12.34,13.17,18.58,19.69-2.4,2.66-4.75,5.37-7.15,8.03-15.82-16.93-31.53-33.95-47.33-50.89Z"/>
      <path class="cls-51" d="m395.15,274.91c.53.04,1.59.11,2.12.15-.13,1.75-.24,3.6-1.88,4.65-.13-1.61-.21-3.21-.24-4.8Z"/>
      <path class="cls-35" d="m101.26,284.29c2.26-1.2,4.52-2.43,6.79-3.62.44.42,1.33,1.26,1.77,1.68-.03.3-.11.91-.15,1.21l.28.54c10.26,18.56,20.4,37.43,33.86,53.93.17.24.51.71.68.95,8.31,12.03,18.39,22.79,29.06,32.76,4.61,4.06,9.2,8.2,14.37,11.56-1.97-23.31,4.73-46.66,16.5-66.66,3.48-.18,6.97-.28,10.48-.23,7.92-.19,15.86.26,23.79-.22,12.11,1.89,24.36,2.85,36.52,4.36.1-1.88.22-3.74.34-5.61-1.9-.11-3.77-.23-5.63-.26,2.04-.17,4.08-.43,6.15-.63-.1,2.28-.17,4.56-.22,6.86,3.45.54,6.91,1.05,10.38,1.53.08-.61.23-1.82.31-2.43.06.6.19,1.8.26,2.41,23.51,4.35,47.01,9.03,70.12,15.24.15.04.43.11.57.14.5-1.08,1.28-1.59,2.34-1.53.53.75,1.05,1.53,1.58,2.33,1.03.27,2.1.56,3.16.86.78.23,1.58.48,2.41.73.42.12.85.25,1.31.4,1.23.38,2.49.77,3.75,1.18-.92.81-1.88,1.59-2.76,2.43-.66-.46-1.32-.89-1.97-1.28l-.97.17c-2,.4-3.97.86-5.91,1.4-.28.09-.83.26-1.1.35-.15.2-.44.59-.58.78-.92.06-1.82.16-2.71.28-.47.2-1.41.59-1.88.78-7.33,2.92-13.46,8.23-17.91,14.68.2.52.6,1.56.81,2.08-.44.15-1.33.44-1.77.58-.11.41-.34,1.22-.45,1.62-25.23,13.89-50.77,27.22-75.86,41.34,3.77-.8,6.92-3.12,10.28-4.88,21.27-11.41,42.42-23.07,63.74-34.42-4.43,13.11-3.14,27.3-.06,40.56,1.05,5.28,2.28,10.54,3.87,15.69,2.87,8.76,6.28,17.8,12.84,24.51,2.53,2.78,6.12,4.09,9.62,5.19-2.24,1.26-4.65,2.26-7.2,2.56-11.58,1.62-23.28.85-34.9.41-23.9-1.46-47.73-4.13-71.31-8.25-8.12-1.57-16.32-3.06-24.1-5.9-3.51-1.2-5.37-4.64-8.04-6.95-2.74-2.36-4.63-5.64-7.57-7.72-15.21,2.17-30.5,3.87-45.86,4.56-22.22.27-44.76-1-66.21-7.28-5.25-1.39-10.2-3.63-15.4-5.14-13.96-6.58-27.1-15.56-36.55-27.92-7.24-9.24-11.48-21.2-9.97-32.99,1.49-12.09,7.81-23,15.38-32.31,2.4-2.66,4.75-5.37,7.15-8.03,6.11-5.93,12.52-11.55,19.34-16.66,2.67-1.94,4.75-4.72,7.83-6.08,3.94-1.69,7.15-4.58,10.58-7.09,3.19-.98,5.93-2.93,8.82-4.55Z"/>
      <path class="cls-43" d="m81.86,295.93c4.72-3.98,9.45-7.97,14.41-11.66-.11.56-.34,1.68-.45,2.24-1.18.7-2.3,1.49-3.38,2.33-3.43,2.51-6.64,5.4-10.58,7.09Z"/>
      <path class="cls-22" d="m143.81,338.03c19.49-15.86,39.27-31.38,58.72-47.31.13.3.4.9.54,1.2-19.58,15.62-39.14,31.26-58.58,47.06-.17-.24-.51-.71-.68-.95Z"/>
      <path class="cls-53" d="m457.14,298.73c3.1-.8,5.68-2.98,8.62-4.25.46.13,1.37.39,1.82.51-2.69,1.47-5.35,2.98-7.88,4.7,4.65,1.43,9.27,3.8,14.28,3.24,10.98-.63,21.96-1.14,32.93-1.74-.14.39-.42,1.16-.56,1.55-10.58.64-21.21.74-31.75,1.83,9.29,3.06,18.61,6.01,27.89,9.12-.11.34-.34,1-.46,1.34-10.06-3.25-20.11-6.55-30.16-9.82-2.32-.81-4.8-.47-7.17-.36-.63-3.38-4.61-3.17-7.14-4.32-1.99,1.03-3.93,2.13-5.79,3.35,4.08.01,8.16-.26,12.25-.51l-.1,1.55c-5.15.36-10.34.25-15.45.85-3.04.93-5.66,2.82-8.44,4.29,6.97,5.93,13.97,11.82,20.95,17.73,20.13-1.94,40.24-4.13,60.39-5.86,4.4-.47,8.83-.95,13.23-.1-23.89,2.71-47.85,4.71-71.76,7.29,6.3,5.89,13.13,11.16,19.6,16.85-.92.18-2.75.54-3.66.73-.12,0-.35.05-.46.06.31-.27.93-.81,1.24-1.08-4.73-4.65-10.08-8.59-15.01-13.01-1.42-1.13-2.69-2.58-4.4-3.21-4.4.04-8.72.96-13.1,1.14-.33-.3-1-.88-1.33-1.17,4.36-.61,8.74-.98,13.13-1.39-6.57-5.81-13.31-11.43-20.05-17.04.15-.37.44-1.12.59-1.5,1.01-1.38,2.53-2.25,3.92-3.22l-.71-.57c-.29-.24-.88-.73-1.18-.97,5.15.23,9.77-2.01,13.94-4.8-3.21-1.13-6.42-2.19-9.6-3.36.56-.15,1.66-.44,2.22-.59,3.07.82,6.02,2.12,9.16,2.74Z"/>
      <path class="cls-27" d="m276.45,309.12c3.63.46,7.4.23,10.91,1.47.07.6.23,1.79.31,2.39-.45,2.32-.92,4.65-1.13,7.03-.08.61-.23,1.82-.31,2.43-3.47-.48-6.93-.99-10.38-1.53.05-2.3.12-4.58.22-6.86-2.07.2-4.11.46-6.15.63-10.41.56-20.82,1.11-31.23,1.51-7.93.48-15.87.03-23.79.22,20.37-1.77,40.83-2.17,61.23-3.49.09-1.28.2-2.54.32-3.8Z"/>
      <path class="cls-43" d="m298.39,312.08c3.71-.37,7.49-.51,11.1.67-7.15.07-14.27.78-21.4.99l.22-1.42c3.35,0,6.72-.02,10.08-.24Z"/>
      <path class="cls-43" d="m536.41,321.75c.31-.24.92-.72,1.23-.96,1.57.61,3.13,1.33,4.74,1.91-10.11,6.84-20.12,13.84-30.19,20.75-.9.09-1.83.14-2.7.22,10.29-6.86,20.25-14.22,30.67-20.88-1.26-.4-2.51-.78-3.75-1.04Z"/>
      <path class="cls-41" d="m552.17,323.09c3.03.17,6.07.36,9.11.68-.71,6.51-1.02,13.06-1.91,19.55-.09.26-.27.79-.37,1.06-2.95.07-5.9-.06-8.83-.17.33-5.66.9-11.3,1.36-16.94.17-1.41.39-2.81.64-4.18Z"/>
      <path class="cls-42" d="m413.09,332.19c-.23-1.72.03-3.44,1.18-4.79-.23,1.95-.43,3.96.47,5.8-2.43,4.91-.92,10.69-1.61,15.98-.12-5.67.34-11.33-.04-16.99Z"/>
      <path class="cls-14" d="m367.94,347.79c-1.46-.19-.95-2.87.33-3.05,1.79.22,1.15,2.87-.33,3.05Z"/>
      <path class="cls-15" d="m441.54,362.92c1.72,19.86,3.97,39.67,5.59,59.54-.05.57-.15,1.71-.2,2.28-1.57-1.49-3.12-2.99-4.63-4.52-.17-1.87-.35-3.73-.49-5.57-1.09-15.47-2.34-30.92-3.7-46.36.45.24,1.36.73,1.82.97,1.16-1.93,1.89-4.06,1.61-6.34Z"/>
      <path class="cls-44" d="m334.84,365.64c.11-.4.34-1.21.45-1.62.27.24.83.73,1.1.97-.39.16-1.16.49-1.55.65Z"/>
      <path class="cls-6" d="m410.58,382.17c.29-5.04.29-10.09.54-15.13,0,7.16-.35,14.31-.23,21.47.39-.37,1.17-1.1,1.56-1.47l.49-.19c-.11-.08-.34-.25-.46-.33.04-.55.11-1.64.14-2.18l.45.04c.75.35,1.52.72,2.31,1.09-1.36,14.15.15,28.44-1.36,42.59-.16,13.02-.2,26.04-.37,39.06.05,2.29-.4,4.91,1.38,6.74-1.73-.02-3.47.01-5.17.06.18-16.85.65-33.7,1.24-50.54.7-.08,2.09-.26,2.78-.35.08-4.6.12-9.2.12-13.8-.66-.07-1.96-.22-2.62-.29-.04-1.95-.41-3.86-1.35-5.55-.1-5.12.18-10.24.25-15.36-3.89-1.24-7.83-2.34-11.6-3.89l-.25-1.08c4.17.91,8.17,2.44,12.28,3.62-.11-.63-.34-1.9-.45-2.53-3.23-3.71-7.05-6.9-10.74-10.14.48-.41.97-.81,1.48-1.19,2.83,3.46,6.31,6.31,9.58,9.35m1.56,6.45c-.19,6.64-.44,13.29-.74,19.94.8.01,2.38.02,3.17.03.05-6.15.32-12.31.2-18.45-.66-.38-1.97-1.14-2.63-1.52Z"/>
      <path class="cls-19" d="m415.22,369.86c.3,2.55.84,5.06,1.26,7.6.12,3.56-.32,7.14.19,10.69,1.07,1.15,2.65,1.52,4.17,1.84-.25,1-.47,2.02-.69,3.05-1.18-1.16-2.45-2.3-3.62-3.39-.4,6.09-.32,12.2-.35,18.3.01,5.11-.08,10.23-.04,15.35-.37,16.85-.4,33.72-1.11,50.56-1.78-1.83-1.33-4.45-1.38-6.74.17-13.02.21-26.04.37-39.06,1.51-14.15,0-28.44,1.36-42.59-.79-.37-1.56-.74-2.31-1.09.47-.26,1.4-.76,1.87-1.01-.08-4.51.11-9.01.28-13.51Z"/>
      <path class="cls-32" d="m436.98,372.68c1.24,14.51,2.33,29.03,3.46,43.55-2.31-2.05-3.99-4.65-5.48-7.31-.94-8.94-.95-17.94-1.74-26.89-.07-1.2-.13-2.38-.19-3.56,1.29-1.94,2.6-3.88,3.95-5.79Z"/>
      <path class="cls-22" d="m433.22,382.03c.79,8.95.8,17.95,1.74,26.89.36,4.82.24,9.67.89,14.47.76,6.05.19,12.17.94,18.22.93,6.81.27,13.72,1.26,20.53.19,3.93.95,8.05-.14,11.89-.25-.15-.74-.45-.98-.6-1.2-16.7-1.92-33.4-2.98-50.1-.06-4.83-.67-9.63-.76-14.46.6-3.4-1.63-6-4.32-7.66-4.12.32-3.68,4.56-3.26,7.56.39,4.81.41,9.64.57,14.47.33,6.98.15,13.98.43,20.97.91,9.77.92,19.61.7,29.41-.24.06-.73.2-.97.26-1.29-5.81-.27-11.88-.77-17.79-1.01-10.91-.8-21.88-1.34-32.81-.13-4.84-.25-9.67-.25-14.5-.02-1.44-.02-2.87,0-4.29.07-4.39-.26-8.76-.33-13.14l-.04-.9,1.37.87c2.16.86,4.41,1.53,6.51,2.59-2.19.02-4.31-.43-6.35-1.11.01.81.03,2.44.04,3.26,1.04.99,2.05,2.03,3.22,2.92,1.24-.35,2.46-.78,3.67-1.31-.44.65-1.31,1.94-1.75,2.59.18,1.28,1.57,1.99,2.34,2.98.05-3.89-.74-7.7-.86-11.57,1.41-3.01,1.42-6.39,1.42-9.64m-7.89,16.49c-.59,1.3-.3,2.24.88,2.82,2.05-.32.81-3.86-.88-2.82Z"/>
      <path class="cls-40" d="m412.48,386.52c.12.08.35.25.46.33l-.49.19.03-.52Z"/>
      <path class="cls-18" d="m423.41,386.96c.05,1.16.11,2.31.2,3.49l.04.9c.07,4.38.4,8.75.33,13.14-1.29.8-2.56,1.61-3.78,2.48v-1.09h-1.17c1.61-1.23,3.21-2.47,4.84-3.68.13-3.55-.67-7.03-3.72-9.16.22-1.03.44-2.05.69-3.05.58.1,1.74.3,2.32.4.07-.86.19-2.57.25-3.43Z"/>
      <path class="cls-23" d="m410.03,403.39c.94,1.69,1.31,3.6,1.35,5.55-.04,4.81-.29,9.62-.28,14.44-.59,16.84-1.06,33.69-1.24,50.54l.03.91c-.49-.02-1.46-.05-1.95-.06-.24-10.22.95-20.4.83-30.62.15-6.68.13-13.36.49-20.02l.08-.95c.4-4.86.37-9.74.51-14.6.04-1.74.1-3.48.18-5.19Z"/>
      <path class="cls-12" d="m343.77,408c.19-.44.58-1.32.78-1.75l-.43,1.72c2.68.02,5.38.04,8.08-.03.67-.03,1.38-.02,2.1,0,2.65.05,5.31.07,7.99-.08.35-.03,1.06-.08,1.42-.11,1.74.26,3.51.5,5.3.3.39-.05,1.17-.15,1.56-.2,1.58.17,3.32.66,4.78-.33.36.07,1.07.19,1.43.26,3,.58,6.07.53,9.13.52-.49,4.88-.86,9.77-1.17,14.67-13.33.42-26.69-.06-39.99.85-2.66-.04-5.31,0-7.94.11-1.59-5.15-2.82-10.41-3.87-15.69,1.5-.07,3.01-.11,4.55-.12.41,0,1.22.01,1.63.01.83.01,2.5.02,3.33.02.33-.04.99-.11,1.32-.15Z"/>
      <path class="cls-3" d="m416.18,407.95c.93-.71,1.87-1.42,2.85-2.08h1.17v1.1c-.74.54-1.46,1.1-2.16,1.68,1.97.02,3.95.07,5.94.13,0,4.83.12,9.66.25,14.5-2.71.01-5.4.02-8.09.02-.04-5.12.05-10.24.04-15.35Z"/>
      <path class="cls-8" d="m629.97,407.08c4.31.14,8.64.12,12.98.32.06.4.17,1.2.23,1.6-.25,4.05-.72,8.08-.92,12.14-.34,3.91-.77,7.81-1,11.73.48.19,1.45.58,1.93.77-.45.23-1.35.67-1.81.89-.81,2.89.23,7.32-3.37,8.58-4.17,1.58-8.53,2.68-12.38,5,.18-5.74,1.41-11.39,1.49-17.13.18-4.01.91-7.95,1.31-11.93.29-3.27.62-6.54,1.08-9.79.11-.55.34-1.63.46-2.18Z"/>
      <path class="cls-1" d="m396.19,408.45c4.55-.1,9.1-.07,13.66.13-.14,4.86-.11,9.74-.51,14.6-4.75-.16-9.5-.17-14.25-.27.07-4.85.67-9.65,1.1-14.46Z"/>
      <path class="cls-5" d="m411.38,408.94c.66.07,1.96.22,2.62.29,0,4.6-.04,9.2-.12,13.8-.69.09-2.08.27-2.78.35-.01-4.82.24-9.63.28-14.44Z"/>
      <path class="cls-36" d="m425.61,408.77c2.51,0,5.04.04,7.58.1.09,4.83.7,9.63.76,14.46-2.6-.04-5.19-.07-7.77-.09-.16-4.83-.18-9.66-.57-14.47Z"/>
      <path class="cls-30" d="m434.96,408.92c1.49,2.66,3.17,5.26,5.48,7.31l.45.47c-.19,2.15-.13,4.32.03,6.48-1.71.06-3.4.13-5.07.21-.65-4.8-.53-9.65-.89-14.47Z"/>
      <path class="cls-20" d="m440.89,416.7c.23-.51.69-1.54.92-2.05.14,1.84.32,3.7.49,5.57,1.2,11.97,1.86,23.99,2.93,35.97.29,6.17,1.26,12.29,1.21,18.48h-.82s-.82-.39-.82-.39c-.76-17.07-2.59-34.07-3.88-51.1-.16-2.16-.22-4.33-.03-6.48Z"/>
      <path class="cls-1" d="m585.05,415.31c14.49.85,28.91,2.65,43.38,3.74-.4,3.98-1.13,7.92-1.31,11.93-6.34-1.09-12.76-1.63-19.17-2.07-5.98-.4-11.95-1.39-17.95-1l-.17,1.2c-2.2-4.36-3.92-8.98-4.78-13.8Z"/>
      <path class="cls-55" d="m20.55,432.9c18.33-8.02,38.52-10.11,58.13-12.98,5.2,1.51,10.15,3.75,15.4,5.14,21.45,6.28,43.99,7.55,66.21,7.28-7.07,1-14.24-.18-21.3.84-12.72,1.9-25.61,3.13-37.99,6.75-1.94.22-3.45,2.57-2.04,4.23,2.3,2.96,6.06,4.15,9.44,5.45,11.68,3.91,23.83,6.18,35.98,8.09,21.39,3.73,43,6.06,64.61,8.15,52.25,4.89,104.69,7.5,157.14,8.52,13.93.33,27.89-.27,41.81.4.49.01,1.46.04,1.95.06,11.65-.17,23.29.12,34.91-.55l.82.4h.82c1.87-.22,3.74-.52,5.65-.64.49-.03,1.47-.08,1.96-.1,9.33-.59,18.7-.46,28.04-.97,23.35-1.15,46.68-2.96,69.9-5.67,21.72-2.88,43.54-6.12,64.49-12.75,10.65-3.45,21.35-7.66,29.99-14.99.99-.93,1.78-2.05,2.6-3.13-1.93-1.02-3.86-2.02-5.88-2.79-.48-.19-1.45-.58-1.93-.77.23-3.92.66-7.82,1-11.73,11.64,1.54,23.41,3.3,34.47,7.37,2.39,1.19,6.07,2.31,6.18,5.51-3.08,4.26.05,9.68-2.07,14.32-.53-3.04-.98-6.13-2.02-9.04-.4-.1-1.19-.31-1.58-.41-3.03,3.14-5.1,7.12-8.49,9.94-15.3,13.88-35.03,21.2-54.34,27.55-43.91,13.15-89.88,17.41-135.48,19.37-25.93,1.08-51.9.6-77.84.54-108.7-2.77-216.84-15.86-324.31-31.81-1.59-.13-3.15.01-4.71.08-11.95-1.67-23.96-3.5-35.79-5.78-7.69-6.72-13.11-16.05-15.73-25.88Z"/>
      <path class="cls-33" d="m442.3,420.22c1.51,1.53,3.06,3.03,4.63,4.52.05-.57.15-1.71.2-2.28l1.52-1.52c.03.38.08,1.14.1,1.52-1.87,4.5-.66,9.36-.25,14.02,1.15,12.52,2.55,25.02,3.59,37.56-1.91.12-3.78.42-5.65.63.05-6.19-.92-12.31-1.21-18.48-1.07-11.98-1.73-24-2.93-35.97Z"/>
      <path class="cls-39" d="m416.14,423.3c2.69,0,5.38-.01,8.09-.02.54,10.93.33,21.9,1.34,32.81.5,5.91-.52,11.98.77,17.79.24-.06.73-.2.97-.26.22-9.8.21-19.64-.7-29.41-.28-6.99-.1-13.99-.43-20.97,2.58.02,5.17.05,7.77.09,1.06,16.7,1.78,33.4,2.98,50.1.24.15.73.45.98.6,1.09-3.84.33-7.96.14-11.89-.99-6.81-.33-13.72-1.26-20.53-.75-6.05-.18-12.17-.94-18.22,1.67-.08,3.36-.15,5.07-.21,1.29,17.03,3.12,34.03,3.88,51.1-11.62.67-23.26.38-34.91.55l-.03-.91c1.7-.05,3.44-.08,5.17-.06.71-16.84.74-33.71,1.11-50.56Z"/>
      <path class="cls-11" d="m448.5,436.48c-.41-4.66-1.62-9.52.25-14.02.17,1.58.36,3.16.57,4.76,1.74,15.55,2.87,31.17,4.73,46.72-.49.02-1.47.07-1.96.1-1.04-12.54-2.44-25.04-3.59-37.56Z"/>
      <path class="cls-49" d="m336.81,423.93c2.63-.1,5.28-.15,7.94-.11,13.3,1.26,26.72-.1,40.07.42-1.16,9.6-1.23,19.31-2.54,28.9-.44,2.94-.26,5.92-.06,8.89,2.99-.09,6.3.67,9.1-.64,2.5-7.27,1.18-15.13,2.24-22.63.64-4.79.97-9.63.9-14.46,4.92-.35,9.86-.13,14.8-.17-.36,6.66-.34,13.34-.49,20.02.12,10.22-1.07,20.4-.83,30.62-13.92-.67-27.88-.07-41.81-.4-52.45-1.02-104.89-3.63-157.14-8.52-21.61-2.09-43.22-4.42-64.61-8.15-12.15-1.91-24.3-4.18-35.98-8.09-3.38-1.3-7.14-2.49-9.44-5.45-1.41-1.66.1-4.01,2.04-4.23,12.38-3.62,25.27-4.85,37.99-6.75,7.06-1.02,14.23.16,21.3-.84,15.36-.69,30.65-2.39,45.86-4.56,2.94,2.08,4.83,5.36,7.57,7.72,2.67,2.31,4.53,5.75,8.04,6.95,7.78,2.84,15.98,4.33,24.1,5.9,23.58,4.12,47.41,6.79,71.31,8.25,11.62.44,23.32,1.21,34.9-.41,2.55-.3,4.96-1.3,7.2-2.56-3.5-1.1-7.09-2.41-9.62-5.19-6.56-6.71-9.97-15.75-12.84-24.51Z"/>
      <path class="cls-49" d="m449.32,427.22c12.59,11.85,27.65,21.22,43.79,27.37,13.07-1.53,25.85-4.86,38.8-7.16,15.42-2.69,31.11-.99,46.57.47,10.52,1.17,21.04,2.44,31.54,3.9-8.21-6.04-15.64-13.47-20.19-22.69l.17-1.2c6-.39,11.97.6,17.95,1,6.41.44,12.83.98,19.17,2.07-.08,5.74-1.31,11.39-1.49,17.13,3.85-2.32,8.21-3.42,12.38-5,3.6-1.26,2.56-5.69,3.37-8.58.46-.22,1.36-.66,1.81-.89,2.02.77,3.95,1.77,5.88,2.79-.82,1.08-1.61,2.2-2.6,3.13-8.64,7.33-19.34,11.54-29.99,14.99-20.95,6.63-42.77,9.87-64.49,12.75-23.22,2.71-46.55,4.52-69.9,5.67-9.34.51-18.71.38-28.04.97-1.86-15.55-2.99-31.17-4.73-46.72Z"/>
      <path class="cls-54" d="m668.75,448.83c3.39-2.82,5.46-6.8,8.49-9.94.39.1,1.18.31,1.58.41,1.04,2.91,1.49,6,2.02,9.04-.36,18.19-4.59,36.1-9.36,53.58l-.07-.22c-.12-.44-.37-1.3-.5-1.74-11.34,15.47-29.63,23.24-46.99,29.86-19.89,6.83-40.49,11.41-61.22,14.8-45.83,7.23-92.28,9.67-138.62,10.29-90.89,1.01-181.66-5.34-272.12-13.62,1.44,6.95,9.06,9.56,14.81,12.13,19.74,7.15,40.71,9.88,61.38,12.98,49.69,6.6,99.82,8.6,149.87,10.29,25.69.15,51.38.21,77.06-.03,13.29-.97,26.65-.5,39.93-1.68,23.3-.95,46.56-2.77,69.74-5.3,23.89-2.78,47.86-6.15,70.97-13.03,6.7-1.83,12.86-5.18,19.53-7.11-5.99,16.27-13.9,31.87-23.11,46.56-6.66,10.29-14.3,20.38-24.56,27.32-6.23,4.5-14.04,5.39-21.5,5.18-79.97,4.06-159.92,9.77-240.03,10.08-25.73,0-51.54-.22-77.1-3.38-18.75-2.08-36.36-9.55-53.06-17.94-31.02-16.08-59.14-37.54-83.49-62.54-14.95-15.34-28.4-32.16-39.81-50.3-7.88-12.73-15.3-25.9-20.52-39.96,1.56-.07,3.12-.21,4.71-.08,107.47,15.95,215.61,29.04,324.31,31.81,25.94.06,51.91.54,77.84-.54,45.6-1.96,91.57-6.22,135.48-19.37,19.31-6.35,39.04-13.67,54.34-27.55m-52.36,43.74c-6.67,1.57-10.86,8.89-10.01,15.47,1.24,4.04,3.21,8.53,7.32,10.38,3.73,1.86,8.31,2.02,12.23.64,3.39-2.19,6.98-4.87,8.06-8.99,1.67-4.71-.28-9.87-3.11-13.69-3.47-4.2-9.48-4.78-14.49-3.81m-39.04,8.97c-5.31,1.82-10.04,6.72-10.12,12.56-1.13,9.42,9.47,18.04,18.46,14.49,5.26-1.17,7.99-6.22,9.97-10.76.39-4.2-1.06-8.57-3.44-12-4.01-3.41-9.54-6.26-14.87-4.29m-35.95,7c-5.91.3-10.56,5.15-12,10.65-.35,2.84-.03,5.71.14,8.56,2.91,3.42,5.77,7.58,10.52,8.44,3.32.33,6.91.26,10.02-1.09,2.57-1.96,5.28-4.17,6.77-7.08.67-4.72,1.59-10.7-2.4-14.24-3.01-3.93-8.1-6.29-13.05-5.24m-296.01,1.05c-5.94,1.03-10.88,5.9-11.87,11.86-2.07,9.95,9.83,19.61,19.12,15.25,4.65-1.36,7.47-5.93,8.81-10.32,1.49-5.38-1.67-10.6-5.2-14.39-3.25-1.9-7.06-3.47-10.86-2.4m34.05,2.04c-8.13,1.33-13.31,10.76-10.37,18.39,1.54,3.5,3.77,7.25,7.67,8.46,4.79,1.56,10.72,1.5,14.57-2.19,4.21-2.79,5.16-8.18,5.22-12.87.08-4.75-4.26-7.56-7.32-10.48-2.93-1.51-6.55-2.06-9.77-1.31m223.89-.07c-6.25,1.31-11.58,6.98-11.44,13.57-.99,6.22,3.84,11.6,9.25,13.83,3.98,1.24,8.06-.52,11.86-1.66,4.17-1.06,6.05-5.43,6.75-9.28.59-4.65-.54-10.11-4.49-13.04-3.43-2.41-7.66-4.33-11.93-3.42m-185.99,2.98c-6.22,1.65-12.35,6.65-12.15,13.59-.59,8.51,8.11,16.13,16.47,14.6,6.67-1.27,12.09-7.76,11.74-14.63-.29-7.95-8.03-14.87-16.06-13.56m73.05,1.07c-7.84,1.34-12.33,10.04-10.11,17.41.76,4.53,4.82,7.21,8.47,9.4,3.84,1.32,8.22.96,11.91-.73,4.47-2.92,7.78-8.11,7.16-13.6-.15-4.82-3.32-8.93-7.15-11.55-3.16-1.49-6.91-1.68-10.28-.93m73.03-.09c-9.07,3.14-12.01,15.84-5.66,22.86,4.42,3.74,11.2,6.23,16.64,3.14,6.33-2.38,9.19-10.09,7.52-16.35-.73-4.18-4.02-7.34-7.49-9.43-3.53-1.2-7.46-1.29-11.01-.22m-110.98.96c-4.46.87-7.35,4.85-9.15,8.72-.9,3.17-.72,6.61-.16,9.83,1.31,2.51,3.44,4.54,5.3,6.67,4.38,2.97,10.15,2.57,14.92.79,3.31-2.17,6.35-5.24,6.8-9.37,3.24-9.95-8.16-19.85-17.71-16.64m74.99,0c-3.41,1.29-6.95,2.94-8.68,6.36-3.01,3.66-2.13,8.61-1.05,12.82,1.61,2.54,3.86,4.7,6.13,6.7,4.38,2.47,10.04,2.02,14.48-.07,3.49-3.13,6.84-7.26,6.87-12.18.23-4.29-2.67-7.86-4.99-11.17-3.6-2.43-8.52-3.89-12.76-2.46Z"/>
      <path class="cls-47" d="m616.39,492.57c5.01-.97,11.02-.39,14.49,3.81,2.83,3.82,4.78,8.98,3.11,13.69-1.08,4.12-4.67,6.8-8.06,8.99-3.92,1.38-8.5,1.22-12.23-.64-4.11-1.85-6.08-6.34-7.32-10.38-.85-6.58,3.34-13.9,10.01-15.47Z"/>
      <path class="cls-17" d="m623.92,529.82c17.36-6.62,35.65-14.39,46.99-29.86.13.44.38,1.3.5,1.74-4.21,16.25-9.81,32.13-15.9,47.77l-.26.07c-6.67,1.93-12.83,5.28-19.53,7.11-23.11,6.88-47.08,10.25-70.97,13.03-23.18,2.53-46.44,4.35-69.74,5.3-13.28,1.18-26.64.71-39.93,1.68-25.68.24-51.37.18-77.06.03-50.05-1.69-100.18-3.69-149.87-10.29-20.67-3.1-41.64-5.83-61.38-12.98-5.75-2.57-13.37-5.18-14.81-12.13,90.46,8.28,181.23,14.63,272.12,13.62,46.34-.62,92.79-3.06,138.62-10.29,20.73-3.39,41.33-7.97,61.22-14.8Z"/>
      <path class="cls-24" d="m577.35,501.54c5.33-1.97,10.86.88,14.87,4.29,2.38,3.43,3.83,7.8,3.44,12-1.98,4.54-4.71,9.59-9.97,10.76-8.99,3.55-19.59-5.07-18.46-14.49.08-5.84,4.81-10.74,10.12-12.56Z"/>
      <path class="cls-46" d="m541.4,508.54c4.95-1.05,10.04,1.31,13.05,5.24,3.99,3.54,3.07,9.52,2.4,14.24-1.49,2.91-4.2,5.12-6.77,7.08-3.11,1.35-6.7,1.42-10.02,1.09-4.75-.86-7.61-5.02-10.52-8.44-.17-2.85-.49-5.72-.14-8.56,1.44-5.5,6.09-10.35,12-10.65Z"/>
      <path class="cls-37" d="m245.39,509.59c3.8-1.07,7.61.5,10.86,2.4,3.53,3.79,6.69,9.01,5.2,14.39-1.34,4.39-4.16,8.96-8.81,10.32-9.29,4.36-21.19-5.3-19.12-15.25.99-5.96,5.93-10.83,11.87-11.86Z"/>
      <path class="cls-47" d="m279.44,511.63c3.22-.75,6.84-.2,9.77,1.31,3.06,2.92,7.4,5.73,7.32,10.48-.06,4.69-1.01,10.08-5.22,12.87-3.85,3.69-9.78,3.75-14.57,2.19-3.9-1.21-6.13-4.96-7.67-8.46-2.94-7.63,2.24-17.06,10.37-18.39Z"/>
      <path class="cls-37" d="m503.33,511.56c4.27-.91,8.5,1.01,11.93,3.42,3.95,2.93,5.08,8.39,4.49,13.04-.7,3.85-2.58,8.22-6.75,9.28-3.8,1.14-7.88,2.9-11.86,1.66-5.41-2.23-10.24-7.61-9.25-13.83-.14-6.59,5.19-12.26,11.44-13.57Z"/>
      <path class="cls-47" d="m317.34,514.54c8.03-1.31,15.77,5.61,16.06,13.56.35,6.87-5.07,13.36-11.74,14.63-8.36,1.53-17.06-6.09-16.47-14.6-.2-6.94,5.93-11.94,12.15-13.59Z"/>
      <path class="cls-24" d="m390.39,515.61c3.37-.75,7.12-.56,10.28.93,3.83,2.62,7,6.73,7.15,11.55.62,5.49-2.69,10.68-7.16,13.6-3.69,1.69-8.07,2.05-11.91.73-3.65-2.19-7.71-4.87-8.47-9.4-2.22-7.37,2.27-16.07,10.11-17.41Z"/>
      <path class="cls-24" d="m463.42,515.52c3.55-1.07,7.48-.98,11.01.22,3.47,2.09,6.76,5.25,7.49,9.43,1.67,6.26-1.19,13.97-7.52,16.35-5.44,3.09-12.22.6-16.64-3.14-6.35-7.02-3.41-19.72,5.66-22.86Z"/>
      <path class="cls-24" d="m352.44,516.48c9.55-3.21,20.95,6.69,17.71,16.64-.45,4.13-3.49,7.2-6.8,9.37-4.77,1.78-10.54,2.18-14.92-.79-1.86-2.13-3.99-4.16-5.3-6.67-.56-3.22-.74-6.66.16-9.83,1.8-3.87,4.69-7.85,9.15-8.72Z"/>
      <path class="cls-47" d="m427.43,516.48c4.24-1.43,9.16.03,12.76,2.46,2.32,3.31,5.22,6.88,4.99,11.17-.03,4.92-3.38,9.05-6.87,12.18-4.44,2.09-10.1,2.54-14.48.07-2.27-2-4.52-4.16-6.13-6.7-1.08-4.21-1.96-9.16,1.05-12.82,1.73-3.42,5.27-5.07,8.68-6.36Z"/>
    </g>
  </g>
</svg>