<?xml version="1.0" encoding="UTF-8"?>
<svg id="Layer_2" data-name="Layer 2" xmlns="http://www.w3.org/2000/svg" viewBox="0 0 1280.3 95.65">
  <defs>
    <style>
      .cls-1 {
        fill: #00B2F4;
      }
    </style>
  </defs>
  <g id="other">
    <path class="cls-1" d="m0,95.65h1280c.1-21.02.2-42.04.3-63.06-13.27,3.43-30.99,7.7-52.04,11.89-19.67,3.91-50.11,9.32-94.65,13.91-17.29,1.78-76.7,7.56-157.68,7.63-15.76.01-88.33-.14-178.99-9.2-36.52-3.65-68.74-6.86-110.58-15.03-12.85-2.51-23.08-4.79-47.55-9.42-17.61-3.33-43.42-8.19-74.69-13.01-44.53-6.86-79.05-10.4-89.5-11.44-16.03-1.59-58.09-5.53-113.05-7.18-21.46-.64-62.81-1.48-115.29.45-32.1,1.18-70.41,2.67-120.22,8.75-39.62,4.83-68.32,10.34-80.52,12.79C27.54,26.33,12.23,29.9.45,32.82c-.15,20.94-.3,41.89-.45,62.83Z"/>
  </g>
</svg>