<?xml version="1.0" encoding="UTF-8"?>
<svg id="Layer_2" data-name="Layer 2" xmlns="http://www.w3.org/2000/svg" viewBox="0 0 706.44 656.3">
  <defs>
    <style>
      .cls-1 {
        fill: red;
      }

      .cls-1, .cls-2, .cls-3, .cls-4, .cls-5 {
        stroke: #000;
        stroke-miterlimit: 10;
        stroke-width: 2px;
      }

      .cls-2 {
        fill: #ed1c24;
      }

      .cls-3 {
        fill: #b3b3b3;
      }

      .cls-4 {
        fill: none;
      }

      .cls-5 {
        fill: #ff0;
      }
    </style>
  </defs>
  <g id="Logo_ship" data-name="Logo ship">
    <path class="cls-4" d="m378.29,1c-107.35,0-202.63,51.71-262.28,131.58-12.14-9.94-27.66-15.91-44.58-15.91C32.53,116.67,1,148.21,1,187.11c0,34.67,25.06,63.47,58.05,69.33-5.16,23.08-7.91,47.08-7.91,71.71,0,180.68,146.47,327.15,327.15,327.15s327.15-146.47,327.15-327.15S558.97,1,378.29,1Z"/>
    <polyline class="cls-4" points="408.38 149.32 414.8 92.22 426.22 146.11"/>
    <polyline class="cls-4" points="510.73 126.53 516.58 57.8 527.13 124.19"/>
    <line class="cls-4" x1="512.68" y1="182.38" x2="513.07" y2="217.52"/>
    <line class="cls-4" x1="523.22" y1="180.43" x2="522.83" y2="217.13"/>
    <line class="cls-4" x1="533.77" y1="180.82" x2="533.38" y2="217.91"/>
    <line class="cls-4" x1="389.28" y1="288.6" x2="391.23" y2="333.51"/>
    <line class="cls-4" x1="399.82" y1="285.86" x2="402.16" y2="339.76"/>
    <line class="cls-4" x1="416.22" y1="285.08" x2="417.39" y2="346"/>
    <line class="cls-4" x1="424.81" y1="286.26" x2="427.94" y2="351.47"/>
    <line class="cls-4" x1="435.36" y1="287.82" x2="443.95" y2="386.23"/>
    <line class="cls-4" x1="495.89" y1="297.19" x2="509.56" y2="386.62"/>
    <line class="cls-4" x1="511.51" y1="292.89" x2="521.66" y2="383.1"/>
    <line class="cls-4" x1="524.79" y1="293.68" x2="531.42" y2="372.95"/>
    <line class="cls-4" x1="538.45" y1="294.85" x2="543.92" y2="366.31"/>
    <line class="cls-4" x1="552.9" y1="294.85" x2="554.46" y2="361.63"/>
    <line class="cls-4" x1="563.84" y1="297.97" x2="564.23" y2="355.77"/>
    <line class="cls-4" x1="403.38" y1="197.5" x2="404.1" y2="227.12"/>
    <line class="cls-4" x1="416.59" y1="195.71" x2="417.66" y2="226.4"/>
    <line class="cls-4" x1="428.01" y1="195" x2="428.72" y2="226.05"/>
    <path class="cls-1" d="m86.38,226.93c.78-.41-.53-4.58-1.79-7.5-1.51-3.5-2.9-6.73-6.26-9.56-4.79-4.04-10.23-4.43-12.18-4.54-2.73-.16-10.18-.59-13.76,4.27-1.92,2.6-2.11,5.89-2.2,7.57-.08,1.38-.17,3.42.83,5.71.33.77.96,2.16,2.41,3.37,1.42,1.19,2.88,1.57,3.78,1.79.75.19,2.2.45,3.99.21,1.03-.14,2.22-.31,3.44-1.17.44-.31,1.29-.91,1.79-2,.39-.85.17-1.14.62-2.41.23-.64.47-1.33,1.03-2,.89-1.05,2.05-1.41,2.61-1.58,1.5-.44,2.75-.21,3.78,0,.49.1,1.95.42,3.85,1.51.65.37,1.68,1.02,5.5,4.4,1.89,1.67,2.27,2.07,2.55,1.93Z"/>
    <path class="cls-1" d="m209.29,196.22c-.9-.66,2.1-7.59,7.18-13.7,3.96-4.76,10-12.02,20.21-13.36,2.29-.3,12.02-1.26,19.46,5.51,1.02.93,7.98,7.26,6.85,15.7-.15,1.14-.83,6.14-5.18,9.19-2.73,1.92-7.2,3.26-10.52,1.5-2.41-1.27-4.07-4.08-5.26-6.1-.81-1.37-1.18-2.33-2.34-3.68-.37-.43-1.53-1.72-3.76-3.09-1.93-1.19-4.74-2.92-8-2.98-.87-.01-3.08.07-9.47,4.36-6.27,4.22-8.55,7.1-9.18,6.63Z"/>
    <path class="cls-3" d="m236.37,314.19c-.77-10.11.14-18.93,1.78-26.41,13.7-62.27,90.97-88.27,101.71-91.71l5.35,11.78c-7.69,5.29-27.91,20.7-38.54,49.25-12.38,33.22-3.54,62.09-.71,70.3-5.84-15.88-20.05-26.83-36.04-27.84-19.5-1.22-32.09,12.93-33.55,14.63Z"/>
    <path class="cls-3" d="m612.87,209.99c-5.57,7.34-17.24,24.78-19.63,49.96-3.09,32.53,11.35,56.38,16.06,63.52-10.2-5.48-23.87-11.61-40.68-16.06-15.66-4.14-29.63-5.65-40.68-6.07-8.75-.97-25.46-1.66-44.61,5.35-17.03,6.24-28.48,15.81-34.62,21.77-4.21-8.84-12.28-28.96-9.64-54.96,3.48-34.22,23.23-55.95,29.62-62.45,16.86,1.15,34.48,1.91,52.82,2.14,32.58.42,63.13-.86,91.36-3.21Z"/>
    <path class="cls-3" d="m338.79,181.08c.38-3.8,1.93-13.92,9.99-22.13,1.43-1.46,5.12-5.14,11.06-7.49,5.14-2.04,9.11-1.96,15.35-2.14,0,0,7.04-.21,21.77-1.43,14.82-1.23,17.59-4.98,34.26-8.56,6.7-1.44,16.78-3.09,29.62-3.21-3.64,2.72-12.29,10.01-15.7,22.48-4.67,17.11,3.98,31.31,6.42,35.33,4.96,8.15,11.18,13.1,14.99,15.7-5.8-1.67-14.11-3.77-24.27-5.35-13.02-2.03-24.44-3.81-38.9-1.43-6.59,1.09-15.48,2.64-25.34,8.56-8.64,5.19-14.25,11.47-17.49,15.7-3.87-3.3-8.91-8.41-13.2-15.7-7.24-12.31-8.41-24.16-8.56-30.33Z"/>
    <path class="cls-3" d="m451.92,203.21c-4.38-5.01-11.99-15.16-14.99-29.98-5.34-26.4,8.11-47.07,11.06-51.39,18.27,1.01,33.38.61,44.25,0,17.1-.96,25.17-2.54,44.25-3.93,17.83-1.29,32.61-1.49,42.82-1.43-2.23.35-7.01,1.44-11.06,5.35-1.25,1.21-3.89,4.1-5.71,10.71-.91,3.31-2.65,11.28.36,24.62,2.6,11.55,7.07,19.61,10.71,26.05,3.44,6.1,8.78,14.38,16.77,23.2-5.1-3.45-12.4-7.78-21.77-11.42-2.79-1.08-14.51-5.51-31.05-7.14-11.07-1.09-18.8-.37-34.26,1.07-13.24,1.23-21.14,2.02-31.4,5.35-8.69,2.82-15.47,6.31-19.98,8.92Z"/>
    <path class="cls-3" d="m359.49,307.77c-3.84,3.37-7.54,7.94-12.49,7.49-.88-.08-3.02-.43-5.71-2.85-5.66-5.1-15.82-21.23-13.92-42.11,1.83-20.15,13.88-33.5,18.56-38.18,16.12-3.57,33.77-6.79,52.82-9.28,19.22-2.51,37.27-3.95,53.89-4.64,4.24-.16,9.96-.8,16.42-2.85,5.86-1.86,10.52-4.31,13.92-6.42-4.7,3.5-12.53,10.33-17.84,21.41-7.96,16.61-5.19,32.22-3.57,41.4,3.39,19.15,12.66,32.73,18.56,39.97-8.59-5.89-25.43-15.73-48.89-18.91-3.33-.45-29.76-3.79-51.39,5-11.11,4.52-16.67,6.78-20.34,9.99Z"/>
    <path class="cls-5" d="m642.72,335.26c-5.87,12.4-8.98,26.08-14.84,38.45-3.56,2.31-5.99,5.31-8.22,8.11-4.9,6.18-5.07,9.61-8.97,17.05-3.95,7.54-8.07,12.2-14.13,19.06-9.11,10.32-13.69,15.89-21.98,19.74-3.7,1.72-7.49,2.84-9.17,3.33-7.77,2.26-13.92,2.53-17.07,2.95-21.76,2.89-38.55,3.11-41.95,3.14-16.08.16-27.34-.79-44.63-2.24-22.6-1.9-31.53-3.78-37.91-5.39-1.81-.45-10.15-2.59-20.86-6.72-16.78-6.49-25.17-9.73-30.06-16.83-5.21-7.58-5.4-16.08-5.6-25.79-.21-9.58,1.43-17.43,2.91-22.66-1.92-1.68-6.88-5.56-14.35-6.5-2.48-.31-9.08-1.04-15.7,2.92-4.26,2.54-6.68,5.92-7.85,7.85-.26-.79-2.09-6.13-6.97-8.06.15-1.2.24-2.48.25-3.81.08-9.01-3.41-15.6-5.08-18.36-6.89-4.35-13.78-8.71-20.67-13.07-23.44-5.15-46.88-10.29-70.32-15.43,8.74,1.46,21.3,3.53,36.95,6.04,1.3.21,2.86.46,3.72.6,11,1.75,50.77,7.97,66.72,4.29.09-.02.16-.04.32-.07,1.57-.36,7.5-1.68,15.3-2.66,6.22-.78,10.69-1.32,16.01-.78,4.43.44,7.67,1.45,16.01,4.68,2.92,1.13,17.49,6.83,37.1,17.58,2.57,1.4,6.1,3.38,8.99,7.42,1.04,1.46,1.84,3.21,4.29,12.49,2.61,9.89,2.16,9.83,3.13,11.72,3.04,5.94,8.65,8.68,13.27,10.93,8.58,4.19,16.18,4.72,22.26,5.08,5.84.35,16.62.89,29.29-3.52,12.17-4.22,20.57-11.09,24.6-14.44,7.61-6.33,11.23-11.57,21.48-17.58,3.76-2.2,6.75-3.53,9.37-4.68,51.29-22.54,57.08-18.28,69.91-27.73,2.21-1.63,9.06-6.92,13.27-4.69,1.61.86,2.33,2.53,2.74,3.52,2.4,5.8-.72,12.27-1.56,14.06Z"/>
    <path class="cls-4" d="m320.25,340.28c11.35,2.05,23.12,4.45,35.26,7.24,9.29,2.14,23.61,5.45,42.09,10.95,10.62,3.16,23.74,7.38,38.64,12.91"/>
    <path class="cls-4" d="m326.36,358.71c22.88,1.38,40.58,5.19,52.8,8.56,10.52,2.9,21.94,6.83,40.78,10.61,9.56,1.92,17.52,3.1,22.89,3.81"/>
    <path class="cls-2" d="m233.51,61.73c22.32-13.47,42.43-21.86,57.56-27.15,34.99-12.23,52.11-10.97,62.13-9.2,4.32.77,7.87,1.73,10.32,2.47,5.64-.47,14.12-1.02,24.45-1.12,20.65-.2,40.75-.39,63.48,6.73,13.22,4.14,30.44,9.79,39.93,25.12,2.27,3.67,7.48,12.09,4.49,20.41-2.17,6.03-7.59,9.07-9.42,10.09-9.01,5.05-18.84,2.69-22.43,1.57-10.55-3.3-16.91-11.44-26.02-23.1-5.49-7.03-5.81-9.01-11.21-14.58-7.4-7.63-14.25-11.6-16.82-13.01-4.68-2.56-9.27-5.07-15.93-6.06-8.08-1.19-14.73.53-18.39,1.79,3.01,1.53,8.74,4.98,13.23,11.66,1.93,2.87,6.64,10.81,5.83,21.53-.26,3.43-.87,10.27-6.06,16.6-6.36,7.76-15.15,9.31-17.5,9.64,1.11,3.2,2.38,7.9,2.69,13.68.27,4.96.79,14.67-4.93,24-5.37,8.75-13.35,12.44-17.5,14.36-12.85,5.94-24.99,4.39-30.28,3.36.68,2.04,1.77,6.36,0,10.77-2.93,7.3-11.53,9.37-15.48,10.32-8.74,2.11-16.08-.03-20.41-1.35-13.55-4.12-13.68-9.99-26.24-13.68-1.96-.58-11.01-3.09-22.43-1.12-11.76,2.03-19.58,7.71-24,10.99-10.56,7.85-15.96,16.86-19.74,23.33-2.58,4.41-7.74,13.37-10.09,24.9-2.88,14.06-.45,26.4,4.71,42.84,9.95,31.71,22.93,55.98,31.18,70.43,7.79,13.65,19.13,32.14,34.54,53.16-.71-3.57-2.68-15.83,4.71-26.02,2.15-2.97,6.61-9.12,13.68-9.2,3.92-.04,8.75,1.79,10.99,5.61,2.02,3.43.42,5.97-1.12,17.27-.77,5.64-1.57,11.67-1.35,18.62.14,4.47.3,9.17,2.02,14.8,3.62,11.84,11.47,18.95,14.13,21.31,6.82,6.04,13.87,8.91,18.39,10.32-3.18-3.38-7.89-9.24-11.21-17.72-1.07-2.74-3.71-10.1-3.81-19.96-.07-6.42-.14-12.73,3.59-19.51,1.01-1.84,4.26-7.57,10.99-10.99,2.9-1.47,6.48-3.29,10.54-2.02,5.37,1.69,7.36,7.48,7.63,8.3,1.17-1.93,3.59-5.31,7.85-7.85,6.62-3.96,13.22-3.23,15.7-2.92,7.47.94,12.43,4.82,14.36,6.5-1.48,5.23-3.12,13.08-2.92,22.65.21,9.71.39,18.21,5.61,25.79,4.88,7.1,13.27,10.34,30.06,16.82,10.71,4.14,19.05,6.27,20.86,6.73,6.38,1.61,15.31,3.48,37.91,5.38,17.3,1.45,28.56,2.4,44.64,2.24,3.4-.03,20.19-.25,41.94-3.14,3.16-.42,9.3-.69,17.08-2.95,1.68-.49,5.47-1.61,9.17-3.33,8.29-3.85,12.87-9.42,21.98-19.74,6.06-6.86,10.18-11.52,14.13-19.07,3.9-7.44,4.07-10.87,8.97-17.05,3.02-3.81,6.43-8,12.56-10.32,7.54-2.85,14.26-1,16.15-.45,3.47,1.01,9.15,2.66,12.56,8.3,2.94,4.85,3.24,11.06.9,16.15-.69,1.51-3.53,7.68-9.87,8.75-4.04.68-7.33-1.08-8.52-1.79.5-.67,3.17-4.38,2.24-9.2-.52-2.69-1.92-4.51-2.69-5.38-1.55-.36-6.17-1.21-10.32,1.35-4.48,2.76-5.6,7.77-6.28,10.99-1.53,7.31.36,12.71,2.69,21.08,3.73,13.37,5.59,20.05,6.06,26.47.73,10.08-1.59,17.68-4.93,28.93-1.8,6.07-5.01,15.27-10.69,25.71-6.37,11.7-12.81,19.37-18.92,26.55-2.47,2.91-12.03,14.43-28.93,28.49-8.28,6.89-21.83,18.05-41.94,30.28-13.22,8.03-32.75,19.75-59.89,28.71-37.07,12.23-67.76,12.53-85.68,12.56-39.28.06-68.86-7.45-77.83-9.87-13.37-3.61-63.35-18.15-113.5-60.34-30.85-25.95-48.58-51.26-53.38-58.32-4.72-6.93-24.91-37.25-38.13-82.09-9.17-31.09-11.18-56.28-12.56-73.57-1.97-24.63-1.07-41.58-.67-47.78,1.21-18.87,1.82-28.31,5.16-39.25,1.78-5.84,5.22-15.4,7.85-29.61,1.1-5.94,1.86-11.6.22-18.39-.73-3.02-2.23-8.96-7.18-14.13-5.56-5.81-12.41-7.47-17.05-8.52-11.22-2.56-14.29,1.21-23.55-2.24-3.46-1.29-9.44-3.52-12.34-9.42-3.56-7.25.04-15,.67-16.37,4.86-10.48,16.64-13.61,21.98-15.03,12.68-3.37,22.99.21,24.9.9,2.78,1.01,12.77,4.79,19.51,15.03,5.11,7.77,5.94,15.58,6.5,20.86.52,4.93.32,9.11,0,12.11,2.94-7.09,7.73-17.24,15.25-28.49,4.07-6.08,7.95-10.78,15.7-20.19,5.21-6.32,12.18-14.31,26.47-29.61,15.35-16.44,23.03-24.65,29.04-29.91,8.43-7.37,19.07-15.48,32.28-23.24Z"/>
    <path class="cls-4" d="m368.57,377.65c6.68,2.01,16.83,5.19,29.11,9.5,20.26,7.12,25.66,10.15,42.51,15.4,12.43,3.87,19.81,5.45,32.71,8.2,0,0,12.02,2.57,30.71,2.2,2.06-.04,6.03-.2,10.2-2.4,1.94-1.02,3.34-2.01,4.5-3.2,4.59-4.72,6.89-7.08,8.1-9.7,3.12-6.76,1.44-13.37.9-15.6-.68-2.79-1.69-4.99-2.5-6.5"/>
    <path class="cls-4" d="m368.3,399.06c11.34,4.91,27.18,11.05,46.6,16.43,10.8,2.99,45.54,12.04,93.2,12.82,28.8.47,47.04.57,69.44-8.46,13.73-5.54,24.03-12.5,30.74-17.67"/>
    <path class="cls-4" d="m371.14,95.14c-4.86-5.57-13.15-13.6-25.4-19.25-31.64-14.59-64.19-1.52-78.71,4.3-30.72,12.33-49.65,33.23-57.8,42.43-10.6,11.96-9.69,14.49-30.75,40.59-17.48,21.67-20.85,23.31-26.44,33.21-10.34,18.29-11.64,35.3-12.91,54.73-2.27,34.68,3.59,61.11,10.45,91.01,4.05,17.63,9.11,39.37,20.29,66.41,5.99,14.48,18.47,44.67,38.84,70.4,45.8,57.82,115.13,72.5,131.49,75.96,78.68,16.65,141.73-10.83,162.34-20.91,0,0,27-8.38,99.62-54.73,5.35-3.41,15.67-10.23,19.06-22.14,2.1-7.39.99-14.85,0-21.52-1.94-13.05-5.26-14.06-5.53-23.98-.12-4.34-.25-13.38,5.53-21.52,1.97-2.78,6.57-9.34,14.14-9.84,3.91-.26,7.08,1.2,8.84,2.21.81,1.62,1.62,3.23,2.43,4.85-.15,1.97-.3,3.94-.45,5.91"/>
    <path class="cls-4" d="m195.56,92.29c-8.53,10.84-18.89,24.99-29.62,42.23-2.3,3.69-12.62,20.39-25.23,46.07-14.72,29.96-22.07,44.94-26.88,63.62-7.52,29.24-5.4,52.52-3.29,75.69,1.72,18.94,7.39,61.43,31.26,109.69,15.04,30.4,31.15,50.66,41.14,63.07,23.82,29.6,49.61,61.65,94.89,83.92,10.29,5.06,57.42,27.23,120.12,22.49,52.54-3.98,89.52-24.85,126.15-45.52,33.67-19,52.94-36.38,59.24-42.23,20.98-19.5,35.45-38.96,44.97-53.75l3.84-13.45,1.15-5.9"/>
    <path class="cls-4" d="m321.13,150.55c-.34-2.57-1.39-7.55-5.28-11.76-2.87-3.1-6.24-4.66-9.43-5.72-18.53-6.11-38.31-2.86-38.31-2.86-13.84,2.27-39.02,6.41-64.61,26.3-13.13,10.21-27.86,21.66-34.02,41.74-4.08,13.3-2.89,25.48-.86,46.31.72,7.43,1.63,13.03,5.72,34.59,5.06,26.65,7.59,39.98,9.15,46.88,6.64,29.34,24.87,73.41,59.46,112.07,14.31,16,33.05,36.93,65.47,52.03,38.05,17.72,72.46,16.92,90.62,16.3,37.47-1.29,65.13-11.9,87.77-20.58,29.79-11.43,50.38-23.81,58.32-28.87,9.29-5.93,16.83-11.46,22.37-15.75"/>
    <path class="cls-4" d="m332.34,371.93c-.29,3.03-.51,7.19-.23,12.12.12,2.1.56,10,2.8,17,3.33,10.43,10.06,16.99,15.71,22.38,2.5,2.39,12.42,11.57,32.49,20.44,19.44,8.59,35.76,11.28,46.04,12.91,14.44,2.28,24.75,2.28,45.18,2.37,13.41.06,24.1-.02,38.3-1.94,13.91-1.88,25.29-4.78,33.25-7.15"/>
    <path class="cls-4" d="m520.81,406.05c19.15-2.19,34.19-5.33,44.71-7.9,4.82-1.18,10.62-2.72,22.21-5.8,11.91-3.17,21.73-5.84,28.51-7.7"/>
    <path class="cls-4" d="m537.23,402.67c1.19-3.18,2.29-6.71,3.17-10.58,2.83-12.42,2.27-23.4,1.06-31.42"/>
    <path class="cls-4" d="m542.95,371.99c12.08-4.97,24.34-9.91,36.77-14.81,21.27-8.37,42.24-16.31,62.9-23.83"/>
    <path class="cls-4" d="m541.33,389.29c31.36-12.65,62.72-25.3,94.07-37.95"/>
    <path class="cls-5" d="m136.14,224.22c12.14-.28,2.4-.3,24.29-.93,7.89-.22,14.85-.35,20.65-.42-.08,1.94-.09,4.03,0,6.26.11,2.69.37,5.18.69,7.44-11.09.13-19.68.47-24.23.76,0,0-2.67.26-6.2,1.27-3.36.97-5.09,1.49-6.29,3.13-1.25,1.71-1.88,4.56-.7,5.92,1.23,1.41,3.35,0,6.27,1.74.41.25,2.51,1.5,2.35,2.89-.13,1.15-1.75,1.87-2.81,2.34-1.59.71-1.92.33-3.25.93-.5.22-2.96,1.32-3.48,3.6-.28,1.21.02,2.59.73,3.58,1.57,2.16,4.95,2.08,9.84,1.88,8.06-.33,12.09-.49,13.58-.7,5.18-.72,12.06-1.88,20.2-3.83,1.01,2.86,2.01,5.73,3.02,8.59-12.11,5.16-22.5,8.98-30.34,11.67-14.66,5.04-25.1,7.78-32.97,9.59-10.85,2.49-17.53,3.36-24.81,3.36-5.7,0-10.42-.54-13.7-1.04.24-3.89.55-7.87.93-11.96.34-3.69.73-7.29,1.16-10.8,6.41-2.42,11.8-3.66,15.61-4.34,6.88-1.23,11.86-1.28,17.42-4.79,2.59-1.64,4.39-3.49,5.49-4.79-.94-1.25-2.38-2.93-4.44-4.56-.97-.77-3.91-2.96-8.42-4.33-2.91-.88-4-.66-12.28-1.52-2.64-.27-4.79-.53-6.2-.7.1-1.9.59-6.17,3.6-10.26.49-.67,2.51-3.31,6.15-5.34,2.97-1.65,5.62-2.12,6.85-2.32,12.63-2.1,21.27-2.3,21.27-2.3Z"/>
    <path class="cls-5" d="m202.87,299.08c-.42-1.16-.99-2.76-2.21-4.3-1.06-1.34-3.17-3.33-8.59-4.64-6.46-1.56-11.94-.79-13.35-.58-15.77,2.37-23.65,3.55-28.33,4.76-3.99,1.03-11.56,3.63-26.7,8.82-7.47,2.56-11.35,3.97-16.25,6.97-7.62,4.66-11.34,9.28-12.66,11.03-2.64,3.51-5.34,7.17-5.69,12.54-.1,1.48-.32,5.77,2.21,9.87,3.23,5.23,8.9,6.84,12.42,7.78,5.38,1.44,11.29,1.6,23.1-1.16,13.04-3.04,22.59-7.15,33.09-11.73,7.62-3.32,3.3-1.81,20.09-9.75,7.74-3.66,12.48-5.79,17.53-10.8,5.75-5.7,6.39-9.68,6.5-11.38.23-3.47-1.04-7.09-1.16-7.43Zm-36.34,15.56c-.2.9-.82,2.85-4.64,5.69-1.42,1.06-3.61,2.48-6.97,3.83-4.97,2.01-9.02,2.46-12.19,2.79-.76.08-3.97.39-7.89-.35-2.33-.44-3.34-.95-3.83-1.86-.76-1.4.03-3.14.23-3.6.6-1.34,1.6-2.18,3.48-3.37,3.37-2.12,6.25-3.23,6.62-3.37,1.25-.47,2.85-1.03,8.13-2.44,5.63-1.5,8.07-2.01,11.15-2.09,3.64-.1,4.93.48,5.57,1.39.83,1.17.49,2.72.35,3.37Z"/>
    <path class="cls-5" d="m226.9,343.44c-2.29-4.29-6.96-5.8-10.38-6.86-7.78-2.4-15.09-1.57-24.69.78-9.52,2.33-14.92,4.6-28.02,9.6-23.17,8.84-21.98,7.75-29.39,11.17-20.29,9.37-26.57,16.38-28.61,18.81-3.53,4.2-8.52,10.3-8.43,18.81.02,1.66.1,9.1,5.29,13.72,2.31,2.06,6.43,4.27,20.97,2.74,11.37-1.19,20.78-3.8,29.19-6.66,4.49-1.53,15.95-5.61,30.37-13.13,2.52-1.32,14.51-7.64,28.41-18.22,6.56-5,11.21-9.16,14.11-15.87,1.31-3.03,4.08-9.46,1.18-14.89Zm-47.22,25.67c-.15.76-.56,3.06-8.23,7.64-3.96,2.36-8.86,4.75-15.28,6.47-6.92,1.85-8.86,1.12-9.99.39-1.69-1.09-3.15-3.28-2.94-5.29.24-2.3,2.58-3.72,7.25-6.47.16-.09.27-.16.45-.26,3.41-1.96,6.28-3.22,8.75-4.24,2.58-1.07,5.05-1.95,9.99-3.72,1.68-.6,5.78-1.98,8.1-.48.05.03.09.06.13.09,1.69,1.29,2.15,3.9,1.76,5.88Z"/>
    <path class="cls-5" d="m252.77,390.07c-1.21-5.95-3.43-10.1-5.88-14.7-3.45-6.45-7.19-11.29-9.99-14.5-8.41,9.13-15.65,16.69-21.16,22.34-12.72,13.04-16.01,15.72-18.81,17.83-5.67,4.27-11.13,7.51-20.57,13.13-5.42,3.22-7.91,4.52-10.38,5.68-3.83,1.79-7.5,3.11-14.7,5.68-8.42,3.01-8.95,2.97-13.13,4.7-1.46.6-6,2.52-11.56,5.68-6.08,3.46-7.72,5.19-8.82,6.66-.91,1.22-2.72,3.65-3.14,7.05-.63,5.09,2.24,9.16,4.7,12.54,2.24,3.08,5.57,6.65,11.76,10.58,5.16,3.28,14.46,9.04,27.82,9.99,9.43.67,16.7-1.35,21.55-2.74,6.41-1.84,10.86-4.11,15.87-6.66,4.16-2.12,11.54-5.93,19.99-12.74,7.61-6.13,12.48-11.79,15.28-15.09,6.63-7.79,10.66-14.46,11.95-16.65,3.81-6.47,6.28-10.66,8.03-17.05,1.05-3.82,3.18-11.89,1.18-21.75Zm-33.7,37.82c-1.5,5.5-4.74,8.84-6.47,10.58-3.8,3.83-7.76,5.52-9.21,6.07-3.86,1.49-7.06,1.66-9.6,1.76-3.37.14-6.4.27-9.99-1.18-.63-.25-3.56-1.47-6.47-4.31-1.83-1.79-3-3.58-3.72-4.9.78-1.3,2.07-3.15,4.11-4.9,2.03-1.74,3.77-2.49,9.8-5.09,4.89-2.12,7.35-3.18,7.64-3.33,4.01-2.08,5.57-3.59,9.99-6.66,2.4-1.67,5.9-3.96,10.38-6.47,1.12,1.44,2.81,4.02,3.72,7.64.26,1.02,1.27,5.41-.2,10.78Z"/>
    <path class="cls-5" d="m230.82,468.25c3.65-5.49,6.07-9.95,10.78-18.61,4.97-9.15,5.99-11.68,9.8-17.44,2.8-4.23,5.53-7.84,9.6-11.36,4.71-4.08,8.04-5.29,9.21-5.68,2.18-.73,5.89-1.97,9.99-.78,1.99.57,2.48,1.26,7.45,4.9,3.69,2.7,6.5,4.59,9.6,6.66,5.73,3.83,8.59,5.75,9.8,6.27,1.41.61,3.76,1.5,6.07,3.72.96.92,1.83,1.75,2.35,2.94.61,1.37.78,3.3-2.55,10.58-1.57,3.43-1.39,2.52-6.47,11.76-1.65,3.01-2.23,4.12-3.72,5.09-3.4,2.23-7.61,1.2-8.43.98-.92-.25-1.96-.65-8.43-5.68-4.1-3.19-4.81-3.91-6.86-4.9-1.92-.93-4.03-1.92-6.86-1.76-2.97.16-5.08,1.5-6.07,2.16-4.49,2.94-5.87,7.58-6.27,9.01-.61,2.18-1.41,5.03-.2,7.84,1.08,2.5,2.77,2.67,8.43,6.47,6.82,4.58,5.9,5.37,10.38,7.64,3.96,2.01,6,2.06,6.86,4.11.93,2.22-.37,4.74-1.57,7.05-.89,1.73-2.65,5.14-6.47,7.25-5.56,3.08-11.54,1.21-13.52.59-5.17-1.62-9.37-5.24-12.15-7.64-1.9-1.64-2.67-2.57-4.7-3.72-1.72-.98-5.95-3.39-9.6-1.96-1.13.44-1.15.84-4.51,4.51-4.48,4.88-5.03,4.81-6.27,6.86-1.91,3.15-2.33,6.16-2.55,7.84-.19,1.51-.9,6.95,1.57,11.76,1.38,2.7,3.1,3.91,15.09,10.58,9.86,5.48,10.75,5.81,14.11,8.03,7.29,4.83,10.65,8.34,12.15,9.99,3.63,4.02,5.61,6.21,6.47,9.8,1.3,5.42-.93,10.07-3.33,15.09-2.55,5.32-5.04,10.53-10.97,13.52-5.67,2.86-11.33,2.1-13.91,1.57-13.26-6.68-23.8-13.49-31.55-19.01-10.83-7.71-6.58-6.04-20.97-16.85-1.82-1.37-16.51-12.38-19.79-21.55-1.07-2.98-.62-4.92-.39-5.68.67-2.21,2.28-3.65,5.09-5.68,3.66-2.65,5.49-3.97,9.01-5.68,3.62-1.76,7.43-5.9,14.89-14.11,2.02-2.22,8.41-9.3,18.42-21.94,5.55-7.01,8.33-10.52,10.97-14.5Z"/>
    <path class="cls-5" d="m300.57,513.51c2.95-13.35,6.75-26.49,9.99-39.78,1.35-5.54,3.73-10.78,5.29-16.26.91-3.19,2.38-8.62,6.66-11.95,1.51-1.17,2.78-1.64,3.92-1.76,2.37-.27,4.24.82,6.66,2.35,5.49,3.48,8.23,5.22,9.6,6.66,2.04,2.15,4.33,5.37,6.66,13.32,2.89,9.84,3.38,18.48,3.72,25.28.17,3.4.45,10.99,2.74,19.01.67,2.35,1.65,6,4.7,7.45,2.24,1.06,4.58.48,4.9.39.44-.12,3.07-.81,4.31-3.14.41-.77.67-1.73.2-6.07-.18-1.61-.47-3.83-.98-6.47-.26-2.1-.55-4.83-.78-8.03-.43-5.96-.13-6.55-.39-14.11-.22-6.48-.6-10.91.78-15.09.44-1.34,1.18-2.98,2.74-4.31.44-.37,1.67-1.39,3.53-1.76,2.68-.53,5.45.53,7.05,2.16,2.15,2.18,2.1,5.27,1.96,9.01-.36,9.75-.54,14.62-.98,16.65-.38,1.73-.77,13.56-1.57,37.23-.57,17.11-2.24,34.22-1.76,51.34.1,3.49.6,19.94-4.7,35.27-1.28,3.71-3.28,8.44-8.03,11.76-4.73,3.3-9.9,3.59-12.54,3.53,1.25-14.91,1.18-27.44.78-36.84-.46-10.96-1.44-18.95-2.35-24.88-.36-2.32-1.82-11.62-5.49-22.92-.44-1.35-2.29-6.93-6.27-13.13-2.29-3.56-4.26-5.73-7.05-7.25-1.09-.59-3.18-1.69-6.07-1.76-.85-.02-5.1-.12-8.23,2.94-2.15,2.1-2.67,4.63-3.14,7.05-.9,4.7-.16,8.23.2,10.78.42,3.06-.11,7.79-1.18,17.24-1.09,9.71-1.64,8.86-3.92,23.71-.78,5.07-1.76,11.9-4.51,20.57-1.27,4.02-2.59,7.36-5.88,9.6-3.89,2.65-8.34,2.25-9.21,2.16-1.46-.16-4.27-.45-6.66-2.55-2.67-2.35-3.21-5.55-3.72-8.62-.58-3.47-.22-6.19.2-9.4.29-2.19.78-4.46,1.76-8.23,1.41-5.45,2.22-6.63,3.92-11.95,1.27-4,2.22-8.55,4.11-17.63.76-3.63.61-3.1,2.16-10.78,1-4.93,1.89-9.35,2.74-13.32,1.59-7.38,3.06-12.67,4.11-17.44Z"/>
    <path class="cls-5" d="m402.19,498.9c.84-3.56,2.52-8.24,6.01-12.75,7.8-10.08,19.21-12.34,23.14-13.12,6.3-1.25,11.24-.75,14.76-.36,9.03.98,17.18,1.87,22.59,8.38,4.79,5.75,5.94,14.11,3.64,20.59-.57,1.61-2.72,7.66-7.83,9.29-2.41.77-5.09.43-5.65.36-1.54-.19-3.62-.46-5.28-1.82-1.41-1.16-1.58-2.34-2.91-6.56-1.6-5.06-2.43-7.63-3.83-9.66-1.06-1.54-2.47-3.6-5.1-4.74-4.01-1.73-8.02-.11-9.66.55-1.31.53-6.55,2.64-8.74,8.38-1.65,4.31-1.16,9.56,1.64,13.12,1.26,1.6,2.65,2.43,4.37,3.46,4.27,2.55,8.29,3.2,10.02,3.46,8.81,1.32,12.92.7,22.04,1.46,7.43.62,11.24.97,15.85,2.91,5.93,2.51,9.92,6.15,12.02,8.38,6.39,6.77,8.2,14.16,9.84,20.77.99,3.99,2.81,11.68,1.46,21.68-1.35,9.96-5.13,16.95-6.38,19.13-6.07,10.61-14.53,16.46-19.13,19.13-15.72,9.12-31.24,7.1-36.25,6.38-5.51-.8-15.73-2.41-25.51-10.38-3.98-3.24-10.69-9.83-14.39-20.4-1.4-4-3.6-12.08-2-22.04,1.01-6.32,2.85-17.82,12.93-24.59,7.13-4.79,17.7-6.77,26.42-2.37.39.2,9.38,4.89,11.48,13.66.39,1.64,1.2,5-.55,8.2-.33.61-1.47,2.63-3.83,3.64-2.52,1.09-5.01.42-6.56,0-3.05-.82-3.34-1.98-5.47-2-2.61-.03-4.59,1.7-5.1,2.19-2.65,2.51-2.7,6.15-2.73,9.11-.02,1.73-.02,6.49,2.73,11.3,4.34,7.57,12.44,9.88,15.49,10.75,1.79.51,19.15,5.15,30.97-6.92,10.53-10.75,7.75-25.64,7.11-28.6-3.5-16.14-18.16-23.64-22.23-25.14-2.38-.88-5.28-1.64-5.28-1.64-4.52-1.19-7.71-1.49-10.38-1.82-.48-.06-8.87-1.15-18.04-3.83-4.24-1.24-7.03-2.07-10.57-4.01-5.54-3.03-8.19-6.19-8.93-7.11-1.37-1.7-2.74-3.4-3.46-6.01-1.3-4.71.51-8.85,1.28-10.38Z"/>
    <path class="cls-5" d="m489.09,492.53c12.55,34.97,18.83,52.45,20.59,59.39,2.78,11,7.77,21.38,10.38,32.43.05.22.26,1.16.91,2.19.28.44.73,1.16,1.46,1.64,1.22.8,3.05.8,4.31.07,2.61-1.52,2.19-5.88,2.09-6.93-.17-1.73-.73-3.07-1.14-3.89-3.61-11.9-7.22-23.8-10.83-35.7-.27-.66-1.03-2.73-.28-5.13.19-.61,1.28-3.81,3.99-4.37,1.93-.4,3.58.78,4.75,1.61,1.86,1.33,2.8,3,3.23,3.89,3.92,10.83,7.85,21.65,11.77,32.48.04.33.38,2.54,2.37,3.8,1.8,1.14,3.99.89,5.51,0,1.94-1.14,2.46-3.15,2.56-3.61.29-1.28-.03-2.47-.66-4.84-.36-1.36-.75-2.46-1.04-3.23-1.74-4.57-26.43-79.45-30.01-88.41-.14-.34-.9-2.21-2.56-4.08-.89-1.01-1.72-1.92-3.13-2.37-2.1-.68-3.94.13-4.27.28-2.47,1.14-3.27,3.61-3.51,4.37-1.12,3.5.61,6.55.95,7.12,4.56,11.14,9.12,22.28,13.67,33.43.19.42.78,1.85.28,3.51-.59,1.97-2.28,2.84-2.85,3.13-1.77.91-3.43.66-3.99.57-2.35-.38-3.76-1.89-4.18-2.37-4.08-13.45-8.17-26.91-12.25-40.36-.37-.77-1.46-2.77-3.8-3.89-.83-.4-2.62-1.25-4.56-.57-2.13.75-3,2.83-3.32,3.61-.89,2.13-.79,4.19-.38,5.32.95,2.62,2.32,6.39,3.94,10.92Z"/>
    <path class="cls-5" d="m532.24,471.64c.63.64,2.02,2.03,3.89,2.56,2.64.74,5.65-.4,7.5-2.37.47-.5,2.97-3.32,1.99-6.55-.1-.33-.77-2.42-2.75-3.32-2.06-.93-4.14.05-6.27,1.04-1.48.7-3.34,1.57-4.46,3.61-.28.51-1.4,2.53-.57,4.18.13.25.29.48.66.85Z"/>
    <path class="cls-5" d="m538.51,486.16c-.31-2.24.19-4.84.19-4.84.36-1.91.68-3.56,2.09-4.56,1.87-1.32,4.31-.53,4.75-.38,1.54.54,2.41,1.58,3.61,3.04,1.15,1.39,1.86,2.7,2.28,3.61l25.73,58.4c.45.87,1.14,2.51,1.14,4.65,0,1.28,0,3.48-1.61,5.22-1.59,1.72-3.74,1.92-4.56,1.99-2.19.2-3.9-.56-4.75-1.04-1.82-1.03-2.76-2.47-3.13-3.13-15-34.04-25.21-59.16-25.73-62.96Z"/>
    <path class="cls-5" d="m601,522.87c-.25-1.6-.95-4.51-3.33-7.65-5.92-9.37-11.84-18.74-17.76-28.11-.38-1.74-.76-3.48-1.14-5.22,1.87-1.75,4.39-4.46,6.65-8.26,1.7-2.87,3.26-5.5,3.8-9.31.21-1.5.91-7.03-2.47-12.63-.82-1.36-3.96-6.39-10.35-8.17-4.99-1.38-9.13,0-10.73.57-4.99,1.75-7.75,5.05-8.74,6.27-1.39,1.71-3.19,3.91-3.61,7.31-.34,2.73.36,4.96.85,6.17,3.5,5.98,6.98,12.13,10.45,18.42,7.63,13.87,14.57,27.46,20.89,40.68.9,1.64,2.55,4.02,5.39,5.71,1.02.61,2.4,1.4,4.35,1.52.82.05,3.55.2,5.07-1.56,1.33-1.54,1-3.68.68-5.75Zm-24.32-54.18c-1.14.96-3.37,2.85-5.89,2.18-1.43-.38-2.34-1.42-2.75-1.99-1.93-3.58-3.86-7.15-5.79-10.73.16-.65.51-1.7,1.33-2.75,1.15-1.48,2.54-2.09,3.23-2.37,2.34-.99,4.45-.68,5.89-.47,1.65.24,3.52.51,5.22,1.99.46.4,1.46,1.37,2.09,2.94.89,2.24.44,4.24.19,5.32-.18.8-.88,3.66-3.51,5.89Z"/>
    <path class="cls-5" d="m586.46,432.64c-.28.86-.58,2.15-.51,3.71.19,4.43,3.19,7.31,3.97,8.06.63.6,4.2,3.91,8.96,3.77,2.79-.08,6.31-1.36,9.28-2.43,1.43-.52,2.26-.89,3.52-.77,2.45.23,4.11,2.1,5.37,3.52,1.14,1.28,3.18,3.58,3.77,7.23.27,1.64,1.05,6.44-2.24,9.28-2.87,2.47-6.71,1.6-6.97,1.54-.42-.1-3.96-.97-4.67-3.39-.2-.69-.05-2.06.26-4.8.1-.88.21-1.72-.26-2.56-.44-.79-1.16-1.16-1.41-1.28-1.47-.73-3.26-.3-4.41.45-1.43.93-1.91,2.38-2.37,3.84-.19.6-.93,3.12-.38,7.16.47,3.47,1.6,5.95,2.56,8,1.46,3.14,2.2,4.71,3.71,6.01,3.13,2.7,7.14,2.65,9.47,2.62,1.68-.02,6.47-.14,10.81-3.52,3.08-2.39,4.39-5.23,5.82-8.32,1.95-4.21,2.44-7.8,2.69-9.72.34-2.69.73-5.95-.19-10.04-.46-2.02-1.14-4.88-3.39-7.8-.64-.83-2.51-3.1-5.76-4.8-3.84-2-7.4-2.05-9.53-2.05-3.87,0-7.7.9-10.43,1.54-1.92.45-3.97,1.02-6.65.58-1.22-.2-3.15-.55-4.03-2.11-.1-.17-.75-1.38-.26-2.69.63-1.65,2.52-1.97,2.62-1.98.27-.04.9-.1,3.01.77,2.15.89,2.01,1.16,3.2,1.54.81.25,2.75.71,4.8-.06.73-.28,1.77-.67,2.43-1.73.79-1.26.55-2.69.45-3.33-.16-.94-.5-1.6-.7-1.98-.14-.26-.97-1.78-2.56-2.81-2-1.3-4.11-1.12-6.84-.9-2.45.2-4.24.81-4.99,1.09-1.27.47-2.9,1.07-4.48,2.43-2.29,1.97-3.24,4.46-3.65,5.95Z"/>
    <path class="cls-4" d="m253.16,381.13c1.89,2.98,4.68,7.12,8.36,11.81,4.54,5.78,21.26,26.15,57.46,44.88,24.95,12.91,44.95,17.69,72.61,24.3,25.59,6.11,43.16,10.18,67.75,9.72,26.03-.49,45.61-5.77,53.17-8,19.45-5.75,34.79-13.57,45.6-20.09"/>
  </g>
</svg>