<?xml version="1.0" encoding="UTF-8"?>
<svg id="Layer_2" data-name="Layer 2" xmlns="http://www.w3.org/2000/svg" viewBox="0 0 413.04 286.84">
  <defs>
    <style>
      .cls-1 {
        fill: #b3b3b3;
      }
    </style>
  </defs>
  <g id="logos">
    <path class="cls-1" d="m42.63,10.58c-7.27,12.87-10.07,24.19-11.28,31.37-.1.59-1.68,10.43.28,22.56.92,5.74,2.31,9.94,5.78,12.11.69.43,3.33,2.08,6.05,1.1,2.7-.97,3.67-3.87,3.85-4.4.68-2.03.31-3.71,0-5.5-.6-3.54-.51-7.16-.83-10.73-.58-6.51-.86-9.82-.55-12.38.43-3.61,1.44-6.46,2.2-8.25.28,6.42.45,10.87.55,13.48.11,2.92.24,6.49,2.2,10.18.8,1.5,1.68,2.6,2.94,3.4.5.32,3.08,1.87,5.59,1,.61-.21,2.17-.89,4.4-5.83,1.96-4.32,2.62-7.9,2.64-8.04,2.53-14.24.11-26.86.11-26.86-1.24-6.47-2.87-10.08-3.58-11.56-1.49-3.09-3.12-5.49-4.4-7.15,3.43-1.38,8.4-3.08,14.58-4.13C80.15-.23,85.49-.05,90.79.13c7.33.25,12.98,1.11,20.09,2.2,4.53.7,8.31,1.39,11.01,1.93-6.23,7.25-10.05,13.94-12.38,18.71-2.53,5.19-4.44,11.62-8.25,24.49-4.18,14.09-4.71,18.15-4.95,20.64-.49,4.88-.32,8.85,0,16.79.38,9.22,1.13,12.63,2.2,15.68,1.63,4.65,3.67,7.54,4.4,8.53,2.21,3,4.59,5.04,6.33,6.33-4.48-.19-8.39-.01-11.56.28-6.04.55-10.52,1.61-11.83,1.93-2.69.66-4.94,1.36-6.6,1.93.34-2.22.69-6.58-1.1-11.56-.74-2.06-2.27-6.15-6.33-9.36-1.54-1.22-7.16-5.66-13.21-3.58-3.91,1.35-5.83,4.64-6.33,5.5-3.84,6.64-.08,13.92.28,14.58,2.21,4.11,5.73,6.06,7.7,7.15,3.27,1.82,6.33,2.44,8.29,2.68-2.64,2.07-6.36,5.47-9.66,10.52-1.15,1.76-3.75,6.02-5.5,12.11-.99,3.42-2.15,8.97-1.65,15.96-.82-2.17-2.27-5.33-4.9-8.49-2.26-2.72-4.39-4.25-7.7-6.66,0,0-1.9-1.39-11.89-8.79-8.12-6.01-12.53-13.45-15.96-19.26-5.62-9.52-8.3-18.58-9.63-25.32-.93-4.72-2.66-13.96-.83-25.87.46-3.01,2.1-12.33,7.7-22.84,3.99-7.48,8.36-12.54,11.56-16.23,4.44-5.13,8.45-8.76,10.73-10.73,4.25-3.66,8.31-6.55,11.83-8.81Z"/>
    <path class="cls-1" d="m174.71,43.39c-.76-4.21-1.75-9.66-5.79-15.23-4.54-6.25-10.29-9.01-12.94-10.24-5.44-2.53-10.11-3.02-12.4-3.23-3.31-.31-6.62-.63-10.65.67-3.46,1.12-5.77,2.89-7.41,4.18-3.34,2.61-5.23,5.24-7.14,7.95-.67.95-3.78,5.42-6.74,12.67-1.54,3.77-2.28,6.47-3.77,11.86-2.08,7.52-3.12,11.27-3.5,16.04-.23,2.87-.07,6.13.27,12.67.36,6.93.53,10.39,1.21,13.48,1.13,5.14,2.14,9.73,5.93,13.88,4.48,4.9,10.2,6.3,12.53,6.87,1.97.48,2.23.31,12.26.67,10.07.36,10.52.56,12.67.13,2.1-.42,7.44-1.54,11.99-5.93,3.81-3.67,5.24-7.85,6.47-11.45,1.27-3.71,1.77-7.21,2.16-9.84.4-2.77.27-3.03.94-8.09.51-3.81.88-5.89,1.21-7.55.43-2.12.75-3.35,1.08-4.72.31-1.28,1.69-7.08,2.16-12.13.55-5.91-.18-10.68-.54-12.67Zm-22.64,29.11c-.44,1.87-.79,3.33-1.72,5.16-1.61,3.13-3.7,4.91-4.15,5.28-1.96,1.62-3.93,2.46-5.31,2.9,1.08-.58,2.66-1.59,4.18-3.23,2.16-2.34,3.04-4.71,3.77-6.74.8-2.23,1.47-4.06,1.35-6.6-.06-1.28-.22-4.01-2.16-6.47-.83-1.06-2.31-2.97-4.72-3.1-2.29-.12-3.9,1.46-4.19,1.74-1.61,1.58-1.8,3.58-1.88,4.46-.16,1.7.26,3.05.54,3.77.22-.84.71-2.16,1.89-3.23.51-.46,1.12-1.02,2.02-1.08,1.23-.08,2.15.81,2.43,1.08,1.35,1.31,1.43,3.17,1.48,4.58.11,3.28-1.07,5.75-1.75,7.14-1.03,2.1-1.85,3.76-3.77,4.85-.55.31-2.46,1.39-4.58.81-2.28-.63-3.39-2.78-4.18-4.31-1.11-2.16-1.28-4-1.62-7.55-.12-1.32-.31-3.42-.13-6.2.13-2.08.28-4.35,1.21-7.14.64-1.93,1.48-4.43,3.77-6.74.69-.69,2.11-2.1,4.45-2.96.96-.36,3.39-1.26,6.06-.54,4.21,1.14,6.06,5.53,6.74,7.14,1.11,2.63,1.15,4.81,1.21,8.22.03,1.43.01,4.72-.94,8.76Z"/>
    <path class="cls-1" d="m232.85,72.95c-1.22-7.38-2.29-13.85-7.54-19.71-4.46-4.97-9.74-7.06-11.5-7.73-2.67-1.02-6.66-2.55-11.88-1.89-5.41.69-9.1,3.34-10.84,4.62-3.1,2.28-4.98,4.77-6.51,6.79-2.2,2.92-3.48,5.44-3.96,6.41-1.53,3.15-2.16,5.58-2.92,8.39-3.28,12.15-3.29,10.4-3.96,13.96-1.65,8.7-.95,15.65-.75,17.35.67,5.97,1.25,11.05,4.9,16.31,1.52,2.19,4.36,6.28,9.43,8.3,3.48,1.38,5.12.64,9.24,2.73,3.6,1.83,3.53,2.99,6.32,3.87,4,1.26,7.72,0,9.71-.66,4.43-1.49,7.17-4.1,8.68-5.56,4.83-4.7,6.72-9.91,8.3-14.43,2.09-5.97,2.63-10.66,3.21-16.03.8-7.37,1.52-14.08.09-22.73Zm-20.18,13.11c.04,2.12.06,4.77-.98,7.93-.67,2.04-1.6,3.72-2.04,4.51-.83,1.5-1.68,2.7-2.36,3.59.82-1.97,1.26-3.67,1.51-4.9.43-2.13.84-4.23.19-6.7-.32-1.21-.63-2.35-1.7-3.21-1.14-.92-3.01-1.41-4.43-.66-1.64.86-1.92,2.98-2.17,4.9-.24,1.81-.02,3.31.19,4.24-.08-1.34.51-2.53,1.51-3.02.05-.03,1.22-.57,2.07,0,.31.21.65.61.85,2.36.24,2.13.37,3.2-.19,4.53-.23.56-.93,2.22-2.73,3.02-1.74.77-3.36.24-3.77.09-2.38-.82-3.41-3.07-3.87-4.05-.68-1.47-.77-3.02-.94-6.13-.09-1.58-.17-3.11,0-5.19.25-3.05.89-5.26,1.04-5.75.65-2.19,1.09-3.7,2.36-5.37.63-.84,1.89-2.45,4.15-3.39.71-.3,2.13-.89,3.87-.66,2.83.37,4.56,2.66,5.19,3.49,2.14,2.83,2.18,5.92,2.26,10.37Z"/>
    <path class="cls-1" d="m282.53,91.66c-.45-5.85-.88-11.28-3.14-17.91-1.26-3.68-2.73-7.86-6.29-12.29-1.71-2.13-4.58-5.62-9.53-7.72-1.99-.85-3.58-1.15-5.53-1.52-1.12-.21-3.83-.68-12.86-.67-4.26,0-4.59.11-6.1-.1-3.6-.5-6.42-1.75-8.29-2.76.66.91,1.51,2.16,2.38,3.72.62,1.1,1.87,3.46,3.05,6.96,1.86,5.54,2.42,10.63,2.76,13.91.63,6.04.5,10.85.38,14.86-.04,1.57-.1,3.46-.29,5.81-.12,1.49-.65,7.69-2.95,16.77,0,0-2.1,8.28-6.48,17.91-.5,1.09-1.33,2.86-3.05,4.57-1.86,1.86-3.91,2.82-5.24,3.43-1.81.83-3.43,1.28-4.57,1.52,2.38-.02,6.11.14,10.48,1.24,5.59,1.41,6.84,2.99,12.67,4.48,4.86,1.24,8.67,1.34,12.1,1.43,6.34.16,9.79.25,13.91-1.62.81-.37,3.89-1.83,6.86-4.95.52-.55,2.78-2.98,4.76-7.43,1.06-2.38,1.66-4.5,2.86-11.24,1.37-7.7,2.05-11.54,2.29-15.72.06-1.11.32-6.04-.19-12.67Zm-15.44,5.91c-.06,1.68-.24,5.31-1.14,9.72-.47,2.3-.94,3.82-1.81,5.43-.86,1.59-1.84,2.76-2.57,3.53.88-1.96,1.35-3.71,1.62-5.05.38-1.87.42-3.2.48-5.43.09-3.3-.21-4.16-.38-4.57-.25-.63-1.14-2.81-2.76-2.95-1.73-.15-3.03,2.12-3.24,2.48-.81,1.41-.83,2.79-.86,4.76-.02,1.45.12,2.66.26,3.49-.08-1.8.44-3.03.79-3.68.24-.44.99-1.83,1.72-1.72.64.1.93,1.33,1.14,2.19.25,1.05.25,1.96.19,2.86-.1,1.5-.25,3.45-1.33,5.62-.59,1.18-.95,1.88-1.81,2.38-.92.53-2.3.78-3.33.19-.73-.42-1.34-1.28-1.72-4.67-.34-3.03-.2-5.38-.1-6.96.18-2.73.31-3.9.76-8.77.03-.34.24-2.36.66-6.4.35-3.33.57-5.24,1.91-7.03.84-1.12,1.67-1.6,2.1-1.81.38-.19,1.66-.79,3.24-.48,1.41.28,2.29,1.14,2.86,1.72,1.62,1.63,2.21,3.57,2.57,5.05.35,1.45.95,4.41.76,10.1Z"/>
    <path class="cls-1" d="m314.08,31.79c-1.14,0-2.83.08-4.83.47-4.35.84-6.57,2.46-11.69,5.3-8.54,4.73-8.19,3.47-13.4,6.86-3.51,2.28-4.75,3.56-8.1,4.99-3.33,1.41-6.33,1.95-8.42,2.18,1.54.12,4.03.53,6.55,2.03,3.64,2.16,5.38,5.43,7.79,10.13,1.57,3.05,2.77,6.03,3.74,9.04.45,1.38,2.42,7.6,3.27,16.68.59,6.24.37,10.87.16,15.43-.22,4.68-.72,10.37-1.87,16.83-1,5.62-2.11,9.69-3.9,13.56-1.11,2.4-2.31,4.37-3.9,6.23-1.37,1.62-2.72,2.79-3.74,3.58,1.33.18,3.28.35,5.61.16,2.25-.19,4.98-.72,10.44-3.12,6.13-2.69,10.59-5.49,12.47-6.7,2.89-1.88,6.36-4.12,10.29-7.79,4.88-4.56,4.31-5.55,8.42-8.88,2.82-2.29,4.13-2.66,10.44-6.39,4.16-2.46,7.45-4.57,9.51-5.92-.04-2.67-.37-6.6-1.87-11.07-.46-1.37-1.21-3.34-5.14-10.44-1.42-2.57-3.42-6.1-5.92-10.29.76,1.6,1.47,3.88,1.25,6.55-.4,4.82-3.58,7.86-4.99,9.2-1.07,1.02-2.75,2.59-5.46,3.43-1.64.51-4.68,1.46-7.01-.16-2.79-1.93-2.55-6.13-2.49-7.17.16-2.79,1.38-4.74,2.96-7.17,1.14-1.76,3.09-4.33,6.23-6.86-3.38.6-6.22.68-8.26.62-4.46-.12-6.89-.22-8.42-2.03-1.67-1.97-1.24-4.77-1.09-5.77.65-4.27,4.12-6.55,4.83-7.01,2.75-1.8,5.52-1.89,6.55-1.87,5.08.1,8.29,3.54,8.88,4.21-2.92-3.52-4.62-6.85-5.61-9.2-2.1-4.97-2.61-9.28-2.96-12.47-.32-2.92-.35-5.39-.31-7.17Z"/>
    <path class="cls-1" d="m320.32,29.77c-.24,2.25-.38,5.44.16,9.2.39,2.73,1.04,5.7,2.81,9.82,1.64,3.83,3.68,7.8,9.51,16.83,3.55,5.5,4.99,7.44,8.88,13.72,2.31,3.73,4.01,6.59,5.61,10.6,2.07,5.19,2.4,8.31,2.49,9.98.15,2.73-.16,5-.47,6.55,2.61-2.45,4.91-4.43,6.7-5.92,2.04-1.7,3.23-2.59,4.99-3.27,1.93-.75,3.67-.91,4.83-.94-1.18-.63-2.87-1.69-4.52-3.43-.98-1.04-3.34-3.58-4.21-7.64-.26-1.22-.81-3.97.31-7.01.48-1.31,1.04-2.82,2.49-3.58,2.22-1.17,4.93.25,6.23.94,3.16,1.66,4.59,4.37,4.99,5.14,1.31,2.55,1.35,4.85,1.4,7.33.05,2.54-.3,4.64-.62,6.08,1.14-.85,2.8-1.93,4.99-2.81,2.81-1.13,5.14-1.39,6.7-1.56,1.55-.16,3.63-.26,6.08,0-1.62-2.63-2.4-5.04-2.81-6.7-.9-3.69-.61-6.51-.31-9.51.45-4.43,1.38-5.78,1.87-6.39,1.02-1.26,2.25-1.96,3.12-2.34-1.55-.81-3.47-2-5.46-3.74-2.14-1.88-3.65-3.79-4.68-5.3.83,2.3,1.13,4.26,1.25,5.61.21,2.47.4,4.62-.78,6.86-.38.72-1.36,2.58-3.43,3.43-3.26,1.33-6.62-.93-7.33-1.4-2.83-1.9-3.82-4.67-4.99-7.95-.86-2.4-1.95-5.6-1.09-9.35.27-1.18.72-3.01,2.34-4.52,1.13-1.05,2.37-1.51,3.12-1.71-1.94-1.51-4.61-3.45-7.95-5.46-3.98-2.38-7.16-3.82-10.13-5.14-4.8-2.14-7.63-3.41-11.85-4.52-1.25-.33-5.76-1.48-11.85-1.87-3.34-.22-6.2-.14-8.42,0Z"/>
    <path class="cls-1" d="m153.61,226.41c2.32-4.74,5.23-11.91,6.71-21.01,1.47-9.04.86-15.92.18-23.13-1.48-15.56-2.23-23.53-7.59-32.67-7.2-12.27-17.83-18.29-22.25-20.48-11.86-5.87-22.47-5.65-27.72-5.47-9.11.3-20.39.67-29.66,9.01-10.85,9.75-11.56,23.77-11.83,28.96-.26,5.14-.07,17.78,7.95,28.96,4.48,6.25,12,12.88,19.78,16.6,1.55.74,5.35,2.44,9.89,5.65,1.15.82,4.54,3.28,8.12,7.24,1.85,2.05,2.78,3.08,3.35,4.41,1.45,3.37,1.27,7.82-1.06,11.3-1.77,2.63-4.15,3.78-5.12,4.24-5.95,2.78-11.77.1-12.71-.35-1.68-.81-6.73-3.23-7.24-7.95-.06-.59-.49-3.33,1.24-5.12,1.37-1.42,3.4-1.53,4.41-1.59,1.21-.07,2.4-.21,3.53.53,1.24.81,1.62,2.14,1.77,2.65.61,2.11-.27,3.92-.53,4.41.59-.07,2.16-.32,3.53-1.59,1.51-1.39,1.82-3.12,1.94-3.88.32-1.96-.25-3.5-.53-4.24-.91-2.36-2.54-3.78-3.53-4.59-4.04-3.3-8.17-5.26-9.71-6-4.69-2.27-9.28-4.49-14.13-8.12-3.02-2.26-5.76-4.78-8.12-7.95-2.1-2.81-3.07-5-3.53-6.18-.66-1.68-1.02-3.15-1.24-4.24-1.33,3.49-2.9,8.15-4.24,13.77-.98,4.12-2.3,9.78-2.65,17.3-.2,4.27-.44,9.43.88,16.07.32,1.61,1.8,8.67,6.36,16.95,2.44,4.44,5.97,10.85,13.07,16.42,4.06,3.18,7.65,4.71,14.83,7.77,8.5,3.62,12.78,5.44,19.07,5.83,3.11.19,9.47.51,16.6-2.65,8.97-3.98,13.47-10.94,15.36-13.95,5.11-8.14,5.74-15.88,6-19.78.24-3.46.59-9.5-1.94-16.6-2.9-8.13-7.98-13.16-9.89-15.01-2.19-2.12-6.64-5.48-15.54-12.18-2.16-1.62-3.88-2.9-5.47-5.3-3.42-5.13-2.94-10.68-2.83-11.83.16-1.6.62-5.54,3.65-9.25.91-1.12,3.29-3.7,7.3-5.06,1.65-.56,5.34-1.8,9.54-.18,4.21,1.63,6.11,5.07,6.71,6.18.67,1.26,1.56,2.97,1.31,5.21-.07.67-.28,2.48-1.66,3.8-1.77,1.69-4.28,1.44-6.43,1.22-2.07-.21-4.19-.42-5.34-2.1-.13-.19-1.39-2.09-.41-3.88.67-1.23,2.14-1.93,3.71-1.77-.32-.18-2.93-1.57-5.47-.35-1.92.92-2.63,2.76-3.01,3.73-.82,2.13-.53,3.99-.24,5.83.24,1.55.54,3.46,1.84,5.27,1.22,1.71,2.64,2.66,4.41,3.35,2.4.93,5.01,2.45,10.24,5.47,1.57.91,4.85,2.83,8.3,6.18.99.96.35.44,7.24,9.18,1.36,1.72,2.28,2.88,2.83,4.77.72,2.48.37,4.73,0,6.18Z"/>
    <path class="cls-1" d="m136.3,120.3c3.77.15,7.76.47,11.92,1.02,13.94,1.84,25.78,5.69,35.19,9.74-1.4,6.16-2.02,11.37-2.33,15.12-.75,9.25.23,15.14,2.18,26.9.39,2.34,1.2,6.84,4.51,9.02.48.31,1.96,1.29,4.07,1.31.15,0,2.29,0,4.22-1.31,2.74-1.85,3.52-5.29,3.93-7.71,1.91-11.49-.58-22.1-.58-22.1-1.14-4.86-3.34-11.92-7.85-19.78,3.52.72,7.75,1.87,12.36,3.78,4.1,1.7,7.54,3.61,10.33,5.38-.79,4.75-1.69,11.26-2.18,19.05-.4,6.37-.83,13.47,0,22.69.52,5.75,1.3,13.88,4.8,23.7,3.16,8.87,6.26,12.75,7.27,13.96,3.56,4.27,7.45,6.9,10.18,8.43-3.79,4.25-7.91,8.64-12.36,13.09-4.4,4.4-8.73,8.47-12.94,12.22,1.03-6.04,1.29-11.17,1.31-14.98.02-4.56-.35-9.42-1.31-14.54-.39-2.08-1.04-5.03-2.53-8.48-1.56-3.61-2.68-6.09-5.15-6.98-2.63-.94-5.32.44-6.34,1.03-.9.65-2.13,1.7-3.25,3.25-1.55,2.14-2.08,4.16-2.64,6.52-1.35,5.71-2.03,8.57-2.33,11.93-.54,6.01-.04,10.55.15,12.07.61,4.93,1.15,8.88,3.93,12.8,1.03,1.44,2.6,3.6,5.53,4.65,2.16.78,4.12.62,5.24.44-3.57,3.11-8.26,6.77-14.11,10.33-7.49,4.56-13.74,7.04-15.85,7.85-9.7,3.72-17.69,4.95-20.94,5.38-5.79.76-10.62.81-13.82.73-4.7-.12-8.82-.6-12.22-1.16,1.78-.16,4.41-.59,7.27-1.89,2.86-1.29,5.82-3.39,10.91-9.89,5.08-6.5,8.18-12.14,9.31-14.25,3.9-7.31,6.01-13.17,8-18.76.8-2.25,3.56-10.16,6.11-21.09,1.41-6.06,3.01-13.02,3.93-22.4.57-5.78,1.3-13.69.29-24-.59-6.03-1.21-11.88-3.93-19.2-2.63-7.09-5.96-12.11-7.71-14.54-1.57-2.2-5.43-7.28-11.78-12.36-4.02-3.22-7.81-5.46-10.76-6.98Z"/>
    <path class="cls-1" d="m239.66,148.7c7.48.77,7.7.63,13.38,1.35,1.4.18,5.42.72,9.69,2.7,1.47.68,2.92,1.51,3.44,3.07.48,1.44-.1,2.82-.37,3.44-.74,1.71-2.19,3.18-6.01,5.03-3.65,1.77-6.92,2.66-9.33,3.19-1.42.31-5.69,1.18-11.54,1.23-3.79.03-6.94.03-10.92-1.1-2.82-.8-5.89-1.72-7.98-4.54-.59-.8-1.79-2.48-1.72-4.79.07-1.99,1.06-3.4,1.6-4.17,1.29-1.84,2.88-2.73,4.42-3.56,2.15-1.17,4.14-1.69,5.52-1.96,3.17-.62,5.37-.33,9.82.12Z"/>
    <path class="cls-1" d="m220.64,170.67c2.22.85,5.35,1.87,9.2,2.58,3.08.57,5.39.7,8.1.86,5.04.29,7.67.45,11.29-.12,4.15-.66,7.17-1.89,8.84-2.58,2.78-1.15,5.31-2.2,7.98-4.54,2.14-1.87,3.49-3.82,4.29-5.15.9,2.02,2.01,4.8,2.95,8.22.71,2.57,1.63,6.03,1.84,10.68.18,4.15-.29,7.3-.61,9.33-.7,4.43-1.77,7.52-2.58,9.82-2.26,6.4-3.76,7.38-4.42,7.73-1.21.65-1.46.22-4.91,1.1-2.3.59-3.93,1.24-5.77,1.96-2.61,1.03-4.46,1.76-6.72,3.12-2,1.2-3.56,2.45-4.87,3.5-2.82,2.25-3.24,2.99-4.97,3.69-.74.3-2.58,1.01-4.83.62-2.22-.38-3.64-1.62-4.99-2.83-2.26-2.02-3.38-4.06-4.66-6.38-1.77-3.22-2.96-5.37-3.31-8.59-.14-1.31-.42-4.12.86-7.36.3-.76,1.78-4.32,5.64-6.87,1.05-.69,4.51-2.91,9.08-2.45,1.5.15,5.01.5,6.75,3.19.27.41,1.35,2.07.86,4.17-.47,2.03-2.07,3.06-2.42,3.28.56-1.37.27-2.88-.69-3.81-.79-.76-1.88-.99-2.78-.82-2.13.4-2.9,2.99-3.07,3.56-.13.42-.8,2.7.49,4.54.67.95,1.57,1.37,2.33,1.72,1.4.65,2.63.7,3.68.74,1.27.04,3.09.1,5.15-.86,2.03-.94,3.16-2.34,3.44-2.7,1.3-1.67,1.63-3.33,1.84-4.42.2-1.04.59-3.1-.25-5.4-.49-1.33-1.15-2.16-2.09-3.31-1.83-2.25-3.74-3.6-4.57-4.16-2.1-1.4-3.72-1.93-6.96-3.08-6.23-2.21-9.35-3.3-11.66-4.42-2.17-1.05-4.73-2.5-7.49-4.54Z"/>
    <path class="cls-1" d="m270.85,151.93c.22-.73,3.4.04,7.93-.06,4.18-.09,7.26-.96,10.74-1.94,2.83-.8,6.16-1.75,10.11-3.93,3.5-1.93,6.11-4.05,7.87-5.68-.8,2.18-1.74,5.05-2.56,8.49-.28,1.17-1.29,5.51-1.87,11.8-.34,3.69-.36,6.71-.37,12.61-.02,8.26-.04,12.39.56,16.54.45,3.1,1.04,7.05,2.93,11.92,1.64,4.22,3.62,7.49,5.18,9.74-5.37-1.46-9.98-2.21-13.42-2.62-5.19-.62-9.26-.65-13.86-.69-4.54-.04-8.36.1-11.17.25,1.27-.66,3.26-1.89,5.06-4.06,2.45-2.95,3.22-6.03,3.5-7.55-.02-9.3-.04-18.6-.06-27.91-.9-2.71-1.77-4.92-2.43-6.49-1.44-3.41-2.18-5.14-3.43-6.56-2.37-2.67-4.87-3.23-4.68-3.87Z"/>
    <path class="cls-1" d="m368.73,123.71c-.79-3.03-1.68-6.24-4.62-8.8-.43-.37-2.6-2.22-6.06-3-3.27-.74-5.89-.11-6.56.06-.65.17-1.64.64-3.62,1.56-1.37.64-2.98,1.39-5.05,2.52-1.92,1.05-3.3,1.91-4.93,2.93,0,0-1.87,1.12-3.38,2.17-6.35,4.42-12,8.35-16.79,15.61-3.8,5.74-5.33,10.94-6.18,13.92-2.08,7.26-2.05,12.77-2,21.79.03,6.28.1,12.32,1.81,20.1,1.39,6.32,3.27,11.07,4.12,13.11,1.25,2.99,2.51,5.47,3.56,7.37,5.39.57,12.23.78,20.04-.25,5.34-.7,10.04-1.84,13.98-3.06-1.93-1.08-4.51-2.67-7.37-4.87-2.95-2.27-6.57-5.1-9.99-9.8-1.91-2.63-4.34-6.04-5.62-11.17-1.09-4.38-.88-8.15-.56-10.49,2.07.15,5.1.15,8.62-.69,4.4-1.05,7.39-2.88,10.05-4.56,5.24-3.29,8.5-6.84,10.61-9.18,2.59-2.86,4.9-5.43,6.93-9.55,2.47-5.01,3.05-9.36,3.44-12.47.45-3.59.95-7.94-.44-13.25Zm-14.98,15.86c-.13,3.26-1.76,5.58-3.06,7.43-.98,1.4-2.69,3.47-5.43,5.37.71-.65,2.27-2.25,2.87-4.81.3-1.25.87-3.67-.56-5.49-1.71-2.18-4.92-1.82-5.62-1.75-.49.05-3.55.44-5.37,3.18-1.06,1.6-1.18,3.21-1.19,3.93.83-2.09,2.75-3.34,4.56-3.12,1.99.24,2.99,2.17,3.18,2.56,1.1,2.26,0,4.57-.25,5.06-1.66,3.25-5.86,4.08-8.49,3.93-1.23-.07-3.98-.22-5.81-2.43-2.03-2.46-1.36-5.6-1.25-6.12.22-1.04.7-2.23,3.68-5.43,3.73-4,5.77-6.18,9.43-7.74,2.92-1.24,5.18-1.36,6.18-1.37,1.99-.02,4.12-.04,5.62,1.44,1.65,1.61,1.55,4.05,1.5,5.37Z"/>
    <path class="cls-1" d="m384.5,94.88c1.71-.24,5.92-.68,11.37.68,4.41,1.1,9.06,2.25,12.66,6.46,3.84,4.49,4.3,9.79,4.43,11.26.2,2.3-.03,4.24-.48,7.9-.39,3.21-.91,5.84-1.32,7.67-.39-.69-1.03-1.68-2.04-2.63-1.69-1.6-3.27-2.03-6.23-3.11-4.14-1.52-6.22-2.28-7.9-3.47-2.07-1.46-3.47-3.27-4.43-4.91.18.13,1.38.97,2.87.6.36-.09,1.8-.51,2.2-1.84.38-1.24-.44-2.32-.64-2.6-.95-1.26-2.44-1.41-2.75-1.44-1.6-.16-2.77.67-3.35,1.08-.41.29-1.59,1.15-2.16,2.75-.82,2.32.27,4.39.48,4.79.78,1.48,1.91,2.19,3.83,3.35,6.31,3.83,8.86,5.27,8.86,5.27,3.46,1.95,4.57,2.6,5.99,3.95.21.2,1.81,1.75,2.87,3.47,2.2,3.58,1.93,7.73,1.32,12.22-.95,7.01-1.5,11.05-3.83,17.49-1.85,5.12-5.08,13.82-12.7,22.64-2.89,3.35-6.46,7.4-12.52,10.8-3.09,1.73-7.79,4.3-14.43,4.65-2.51.13-8.6.45-14.49-3.11-3.55-2.15-5.49-4.75-8.98-9.46-2.67-3.6-4.53-6.86-5.75-9.22,3.27-.44,7.77-1.41,12.7-3.71,3.08-1.44,8.94-4.61,14.32-10.75,2.59-2.96,5.43-6.2,7.12-11.29,2.02-6.08,2.4-13.17,2.4-13.17.14-3.31-.11-5.61,1.56-7.9.33-.45,2.27-3.03,5.75-3.35,3.01-.28,5.16,1.31,5.63,1.68,1.52,1.19,2.22,2.64,2.52,3.35-.97-.65-2.1-.74-2.87-.24-.67.44-.86,1.18-.96,1.56-.27,1.06-.04,2.34.72,3.23,1.44,1.72,4.06,1.18,4.55,1.08.61-.13,2.46-.61,3.59-2.4,1.57-2.47.33-5.2.24-5.39-.77-1.63-2.13-2.31-4.67-3.59-8.4-4.25-9.2-4.7-9.94-5.15-2.94-1.79-5.08-3.12-6.95-5.75-.79-1.11-2.39-3.43-2.75-6.83-.46-4.31,1.39-7.56,2.28-9.1.65-1.13,1.88-3.2,4.31-4.91,2.62-1.84,5.16-2.24,7.59-2.58Z"/>
  </g>
</svg>