<?xml version="1.0" encoding="UTF-8"?>
<svg id="Layer_2" data-name="Layer 2" xmlns="http://www.w3.org/2000/svg" viewBox="0 0 243.28 312.79">
  <defs>
    <style>
      .cls-1 {
        fill: #fff;
        stroke: #000;
        stroke-miterlimit: 10;
        stroke-width: 4px;
      }
    </style>
  </defs>
  <g id="Logo_ship" data-name="Logo ship">
    <polygon class="cls-1" points="22.49 140.57 29.79 133.27 49.23 162.44 46.8 121.12 63.82 104.1 83.27 143 83.27 82.22 100.28 70.07 97.85 230.51 83.27 220.79 63.82 150.29 61.39 201.34 44.37 181.89 22.49 140.57"/>
    <polygon class="cls-1" points="224.26 133.27 212.11 152.72 161.06 108.96 161.06 123.55 207.25 162.44 161.06 228.08 144.04 230.51 144.04 138.13 161.06 155.15 163.49 186.75 180.51 162.44 146.47 123.55 146.47 70.07 224.26 133.27"/>
    <path class="cls-1" d="m240.7,164.91c-.7-7.16-1.64-17.87-2.43-31.6-5.93,14.65-12.23,24.86-17.02,31.6-2.47,3.47-6.16,8.31-12.15,17.02-4.2,6.1-7.53,11.19-9.72,14.59,5.67-4.05,11.34-8.1,17.02-12.15v2.43c-2.33,7.37-5.12,13.09-7.29,17.02-5.26,9.52-14.09,17.66-31.6,34.03-.83.78-4.37,4.05-9.72,7.29-5.11,3.09-8.03,4.81-12.15,4.86-5.91.07-10.26-3.32-12.15-4.86-4.46-3.62-6.44-7.82-7.29-9.72-2.5-5.58-2.44-10.64-2.43-12.15.04-10.1-.1-71.4,0-155.58,1.47-2.39,3.83-5.91,7.29-9.72,3.56-3.93,4.77-4.29,7.29-7.29,1.8-2.14,5.97-7.1,7.29-14.59.44-2.5,1.32-9.55-2.43-17.02-3.55-7.08-9.17-10.39-12.15-12.15-1.84-1.09-8.12-4.57-17.02-4.86-3.47-.12-11.41-.27-19.45,4.86-1.34.85-8.28,5.43-12.15,14.59-1.18,2.8-3.38,7.99-2.43,14.59,1.02,7.08,5.12,12.01,7.29,14.59,2.81,3.33,3.7,3.34,7.29,7.29,3.46,3.81,5.83,7.33,7.29,9.72v131.27c-.26,7.4-.98,15.56-2.43,24.31,0,0-.36,4.27-2.43,12.15-1.1,4.17-2.28,6.9-4.86,9.72-.97,1.06-3.36,3.61-7.29,4.86-1.36.43-3.91,1.03-9.72,0-3.32-.59-8.69-1.58-14.59-4.86-2.76-1.54-5.91-3.91-17.02-17.02-13.06-15.42-18-24.12-19.45-26.74-2.18-3.95-3.79-7.34-4.86-9.72h2.43c1.62.81,3.24,1.62,4.86,2.43,3.24,2.43,6.48,4.86,9.72,7.29-2.43-4.05-4.86-8.1-7.29-12.15,0,0-11.44-14.86-21.88-36.46-.48-1-6.91-14.3-7.23-16.85,0-.07-.02-.16-.06-.16-.59-.1-5.64,19.67-7.29,41.33-.85,11.17-.34,16.66,0,19.45,1,8.24,3.1,14.89,4.86,19.45-.15-1.42-.19-3.06,0-4.86.6-5.7,3.17-9.89,4.86-12.15.81-.81,1.62-1.62,2.43-2.43,1.19,6.45,3.32,14.9,7.29,24.31,2.27,5.38,6.07,13.24,12.15,21.88,5.07,7.2,10.24,12.83,14.59,17.02,1.15,1.2,2.82,2.89,4.86,4.86,2.37,2.29,8.01,7.6,17.02,14.59.8.62.67.52,1.35,1.05,5.96,4.66,10.38,8.52,13.23,11.1,8.47,5.03,11.88,7.09,12.15,7.29,0,0,.1.07.23.17.16.12.39.29.67.49,1.31.95,3.54,2.5,6.4,4.2,2.84,1.69,5.72,3.39,9.72,4.86,2.3.85,5.59,1.85,9.72,2.43,2.38-.36,5.79-1.04,9.72-2.43,2-.71,7.43-2.76,17.02-9.72,8.08-5.87,13.86-11.4,17.02-14.59,1.6-1.61,5.4-5.51,14.59-17.02,3.54-4.43,11.21-14.13,21.88-29.17,8.68-12.24,13.05-18.43,14.59-21.88,1.52-3.41,6.93-16.3,9.72-21.88.07-.13,2.43-4.86,2.43-4.86,1.97,4.99,2.42,7.93,2.43,9.72t0,2.43c0,1.62,0,3.24,0,4.86v4.86c1.36-1.48,3.32-3.9,4.86-7.29,1.93-4.23,2.28-7.9,2.43-9.72,1.3-15.81,0-29.17,0-29.17ZM123.62,43.33c-6.71,0-12.15-4.9-12.15-10.94s5.44-10.94,12.15-10.94,12.15,4.9,12.15,10.94-5.44,10.94-12.15,10.94Z"/>
  </g>
</svg>